<svg xmlns="http://www.w3.org/2000/svg" viewBox="0 0 708.96 495.84">
  <title>barspoon</title>
  <g>
    <path d="M0,495.84Q0,247.92,0,0H709q0,247.92,0,495.84H0ZM503.52,150.73a1,1,0,0,0-1,.48c-1.53.31-3,.72-3.83,2.25a15.68,15.68,0,0,0-5,4,2.09,2.09,0,0,0-1.61,1.76,2.1,2.1,0,0,0,1.93-.06,1,1,0,0,1,1.3.22l-0.69.41c-1.35-.21-1.51.7-1.32,1.62a14,14,0,0,0,1,2.43c0.55,1.33.39,1.84-.78,2.55a4.1,4.1,0,0,1-2,.55,22.35,22.35,0,0,1-5.87-.9,3.92,3.92,0,0,1-2.64-1.41c-0.65-.9-1.17-0.39-1.53.37a26,26,0,0,0-4.33,3.48,9.06,9.06,0,0,0-2.49,2.52c-0.92,1.12-.8,2,0.35,3a1.79,1.79,0,0,1,.72,1.86,1.78,1.78,0,0,1-1.81,1.27,12.26,12.26,0,0,1-4.47-.43c-1.27-.31-2.17-0.77-1.77-2.38a3.85,3.85,0,0,0-.87.29c-0.89.64-1.76,1.31-2.63,2a21.64,21.64,0,0,0-3.9,3.37,2.46,2.46,0,0,0-1.67,1.77,2.35,2.35,0,0,0,1.88,0,2.26,2.26,0,0,1,2.22.12,1.77,1.77,0,0,0-1.32.63,1.79,1.79,0,0,0-2.21.93c-0.55.85,0.33,1.26,0.75,1.77s1.14,1.14.52,2.06a3.67,3.67,0,0,1-3.68,1.65,31.52,31.52,0,0,1-4.59-1.19c-1.68-.64-1.7-0.6-1.85-2.41a6.14,6.14,0,0,0-2.94,1.89c-1.32,1.18-3.2,1.69-4.08,3.39-0.87.15-1.24,0.94-1.83,1.45a5.1,5.1,0,0,0-1.59,2.77c-0.18.9,1.08,1,1.59,1.59a1.41,1.41,0,0,1,.54,1.48,1.3,1.3,0,0,1-1.3.87,15.06,15.06,0,0,1-5.21-.44c-0.62-.2-1.29-0.26-1.44-1-0.18-.93.55-1.24,1.18-1.57,1.21-.63,2.44-1.23,3.65-1.85l-0.27-.5c-2.61,1.21-5.41,2-7.56,4.16a21.8,21.8,0,0,0-3.81,3.16,2.67,2.67,0,0,0-1.56,1.81,1.13,1.13,0,0,0-.24.32c0.18,0.28.35,0.11,0.5-.06a13.4,13.4,0,0,0,2.55-.24,5.11,5.11,0,0,1,3-.08l-2.73.71a2,2,0,0,0-2.31,1.21c-0.53,1,.27,1.43.78,2a2.69,2.69,0,0,1,.85,1.39c0.22,1.36-.14,1.87-1.54,1.93a11.45,11.45,0,0,1-2.61,0c-2.06-.39-4.3-0.38-5.8-2.23a1.34,1.34,0,0,0,.23-0.64,0.66,0.66,0,0,0-1.12,0c-1.08,1.27-2.61,2.07-3.59,3.45a2.69,2.69,0,0,0-1.54,1.39,0.74,0.74,0,0,0-.07.88,0.75,0.75,0,0,0,.87.2,2.44,2.44,0,0,1,2.27-.08,1.61,1.61,0,0,1-.39.12,1.55,1.55,0,0,0-2,.91c-0.35.81,0.42,1.28,0.9,1.78a1.46,1.46,0,0,0,1.4.71,2.33,2.33,0,0,1,.19.32,2.22,2.22,0,0,1-2.5,1.9,22.34,22.34,0,0,0-4.19,0l-0.46-.18c-0.22-.71-0.52-1.07-1.09-0.25l-1.37-.09a0.74,0.74,0,0,0-.9-0.95l0.3-1c0.2-.08.22-0.21,0-0.29a0.29,0.29,0,0,0-.44.29,12.89,12.89,0,0,0-4.25,3.53,1,1,0,0,0-.82,1.19c0.28,0.47,1,.45,1.23-0.31l3.88-.25-0.1.69-2,.48c-2.56.2-2.73,0.5-1.44,2.52a8.87,8.87,0,0,0,.54.78c0.59,0.73.39,1.22-.35,1.74a2.43,2.43,0,0,1-2.19.57c-1.82-.52-3.66-1-5.46-1.55-1.24-.4-1.25-0.61-0.49-2,0.16-.09.49-0.12,0.15-0.39a5.52,5.52,0,0,1-2.16,1.25A14.79,14.79,0,0,0,387.3,227a4.66,4.66,0,0,0-2,1.64,7,7,0,0,0-1.51,3.31c-0.09,1,1.32.59,1.89,1.08a1.66,1.66,0,0,1,.65,1.48c-0.11.75-.76,0.73-1.31,0.72a10.72,10.72,0,0,1-4.22-.56c-1.29-.54-2.51-0.87-2.2-2.61-0.79,0-1.28.2-1.36,0.91-2.21.58-3.74,2.15-5.34,3.62a2.61,2.61,0,0,0-.77.47c-0.37.48-.93,1-0.53,1.66a1.3,1.3,0,0,0,1.7.29,7.19,7.19,0,0,1,3.48-.12l-3.14.83a1.12,1.12,0,0,0-1.13-.06c-2.61,1.21-2.83,2.36-.59,4.17a2.08,2.08,0,0,1,.91,2.45c-0.28.9-1.7,1.53-2.85,1.39a41.68,41.68,0,0,1-7.18-1.6,2.31,2.31,0,0,0-1.82-.25c0-.59.57-1.1,0.26-2-2.11,1.88-4.43,3.18-5.84,5.5a0.86,0.86,0,0,0-.85.34c-1.39,2.33-3.87,2.89-6.11,3.9-1.71.77-3.57,1.4-4.74,3a20.85,20.85,0,0,0-4.8,3.59,3.38,3.38,0,0,0-1.78,1.51,4.21,4.21,0,0,1-2.42,1.81c-0.46.15-1.32,0-1.22,0.82a1.56,1.56,0,0,0,1.31,1.51,2.92,2.92,0,0,1,1.88.9c1.11,1.15.91,2.18-.62,2.62a6.5,6.5,0,0,1-5-.61c-1.16-.63-2-1.52-1.33-3.21a18.29,18.29,0,0,0-3.92,2c-0.31.22-.94,0.5-0.31,1.06a0.74,0.74,0,0,0-1,.08,18.1,18.1,0,0,0-3.26,2.62,1.41,1.41,0,0,0-1,.54c-0.93,1.07-1.79,2.21-2.77,3.24-1.26,1.32-1.26,2,.37,2.8a2.76,2.76,0,0,1,1.59,1.28c0.42,1,.21,1.59-0.84,1.69a11.1,11.1,0,0,1-6.27-.83,1.34,1.34,0,0,1-.93-1.64c0.22-1.37-.1-1.53-1.36-1a1.84,1.84,0,0,0-1.25,1c-2.19,1.32-4.43,2.58-5.81,4.86a0.85,0.85,0,0,0-.84.31c-1.59,2.14-3.89,3-6.31,3.84a6.82,6.82,0,0,0-3.83,2.48,21.32,21.32,0,0,0-5.91,4.83,5,5,0,0,0-2.45,2.66c-0.34.74,0.17,0.75,0.67,0.76l0,0c-0.21.23-.41,0.47-0.63,0.69-1.19,1.13-1.12,1.63.42,2.3a5,5,0,0,1,1.84,1,3.31,3.31,0,0,1,1,2.78c-0.09.59-2.09,1.33-2.93,1.07-1.14-.35-2.36-0.13-3.48-0.63a1,1,0,0,0-1.24.4l-0.58-.15c-0.7-1.16-2-1.25-3.08-1.75a1,1,0,0,1-.69-1c0-.93-0.1-0.93-1.15-0.17a21.53,21.53,0,0,0-2.29,1.62c-1.07,1-2.63,1.45-3.17,3a1.91,1.91,0,0,0-1.67,1.48,2.61,2.61,0,0,1-1.41,1.66c-1.29.72-1.18,1.19,0.29,1.91a5.51,5.51,0,0,1,1.58,1,1.66,1.66,0,0,1-.42,2.86,3,3,0,0,1-2.27.35,17.76,17.76,0,0,0-3.24-.64,6.27,6.27,0,0,1-2.41-.92c-1-.57-0.6-1.58-0.77-2.56l-2.06,1.13-4.75,3.75c-2.4.73-2.43,3.32-3.8,4.86a0.7,0.7,0,0,0,0,.67c0.89,1,1.51,2.51,3.3,2.16a1.42,1.42,0,0,1,.51.92c0,0.55-.06,1.1-0.15,1.64a1.74,1.74,0,0,1-1.52,1.59c-1.63.13-3.32,0.4-4.88-.37-2-1-4.33-1.29-6.31-2.4a2.41,2.41,0,0,1,.67-1.38c0.53,0.05.77-.28,0.61-0.69s-0.53-.14-0.8,0a1,1,0,0,0-.62.65,18.86,18.86,0,0,0-5.93,4.74,4.81,4.81,0,0,0-2.52,2.71c0.69,0.52,1.14,0,1.64-.08s0.78-.1.88,0.44l-1.16.48c-1.26-.38-1.74.52-2,1.42a1.44,1.44,0,0,0,1.2,1.93,3.88,3.88,0,0,1,2.06,1.84c0.54,0.83.64,1.52-.4,2.15-0.74.45-1.79,0.87-1.45,2.13l-5.31.78v-0.81a1.43,1.43,0,0,1,.38-0.11c1,0.44,2.11.22,2.34-.76s-1-1-1.71-1.14l-1.84-.46a4.24,4.24,0,0,1-3.25-2.46l0.74-1.34c-3.17,1-4.81,3.37-6.78,5.32-1.18.47-1.77,1.54-2.54,2.45s-0.19,2.35-1.6,2.85c-0.24.08,0,.73,0.22,1.07a6.64,6.64,0,0,0,1.51,1.15,4.17,4.17,0,0,1,1.72,1.61c0.28,0.7.31,1.2-.54,1.5a6,6,0,0,1-2.57.45,19,19,0,0,1-6-1.38,1.82,1.82,0,0,1-1.41-1.1c0.22-.72,1-1,1.5-1.81a3,3,0,0,0-2.7,1.38c-1.91,1.28-3.92,2.43-5.33,4.32a1.51,1.51,0,0,0-1.18.73c-1.38,1.95-3.49,2.57-5.58,3.34s-4.07,1.34-5.63,2.91a23.76,23.76,0,0,0-5.92,4.52c-1.91.9-2.86,2.89-4.6,4-0.91.59-.66,1.42,0.4,2a16.87,16.87,0,0,1,2.85,1.72,1.87,1.87,0,0,1,.84,2.05c-0.15.48-2.57,1.71-3,1.48a35.64,35.64,0,0,0-5-1.55c-1.86-.61-2.12-1.55-1.21-3.27a1,1,0,0,0,.38-1.1,2.89,2.89,0,0,0-2.49,1.38,0.56,0.56,0,0,0-.51.5l0,0c-2.28.59-3.7,2.36-5.35,3.83a3.4,3.4,0,0,0-2,1.62,8.43,8.43,0,0,1-4.63,3.1,32.84,32.84,0,0,0-3.27,1.43,1.3,1.3,0,0,0-1.1,1.08c-2.39.94-4.23,2.67-6.16,4.28-1.07.9-.66,1.56,0.16,2.26-0.24.83,0.41,1.31,0.77,1.9a21,21,0,0,1,2.47,5.17c0.13,0.44.49,1-.11,1.25-1.25.44-1.58,1.64-2,2.54a15.87,15.87,0,0,1-8.81,7.93,5.39,5.39,0,0,1-3.18.45c-2.22-.41-3.88.45-4.57,2.42a69.93,69.93,0,0,1-3.23,7.15,37.3,37.3,0,0,1-3.06,5.06,44.3,44.3,0,0,1-6.17,6.66,28.33,28.33,0,0,1-4.59,3.78c-2.93,1.78-5.77,3.73-8.52,5.72-4.35,3.14-9.11,5.53-13.67,8.25-4.09,2.44-8.35,4.62-12.63,6.71a53.24,53.24,0,0,1-5.53,2.79,60.58,60.58,0,0,1-8.8,2.07c-2.21.42-4.43,0.3-6.63,0.72a17.26,17.26,0,0,1-5.42.55A39.08,39.08,0,0,1,43,459.8c-2.47-.81-3.94-2.91-5.63-4.68a3.07,3.07,0,0,1-.67-3.35,4.64,4.64,0,0,0,.14-3.06,7.67,7.67,0,0,1,.08-4.46,25.46,25.46,0,0,0,.62-3.51,13.06,13.06,0,0,1,.31-3.24c0.44-1.17,1.49-1.82,2.21-2.73,2.49-3.17,5.78-5.42,8.84-7.9a32.4,32.4,0,0,1,4.2-2.62c1.94-1.12,4.06-1.74,6-2.71a89.73,89.73,0,0,1,10.68-4.59c3.38-1.15,6.61-3,10.39-2.83a3.12,3.12,0,0,0,1-.53c2.6-1.14,5.15-2.39,7.77-3.48,1.84-.77,3.77-1.16,5.63-1.83,3.13-1.12,6-3,9.46-3.18a1.76,1.76,0,0,0,.84-0.43,3,3,0,0,1,2.91-.53,3.83,3.83,0,0,0,1.9,0,41.28,41.28,0,0,1,7.7-1.2,38.65,38.65,0,0,1,8.81.21c2.22,0.42,4.59.32,6.2-1.57a35.37,35.37,0,0,1,8.61-7.4,1.75,1.75,0,0,0,1.1-1.43,1.63,1.63,0,0,0-1.25-1.75c-1.67,3.15-4.57,4.55-7.7,5.63a2,2,0,0,1-2.48-.92c-0.61-.88-1.57-1.78-0.82-3,1.36-2.24,2.36-4.76,5.09-6.36a42.91,42.91,0,0,0-15-2c-5,.36-10,0.94-15,1.61a159.39,159.39,0,0,0-26.82,6,128,128,0,0,0-31.66,15.14,121.77,121.77,0,0,0-15.72,12.5,44.38,44.38,0,0,0-11.68,17,24.68,24.68,0,0,0-1.27,14.09c1.13,0.71.39,2.79,2.21,3-0.39,1.34,1.14,2,1.08,3.27a2.63,2.63,0,0,0,.71,1.7,61.12,61.12,0,0,0,3.69,5,54.29,54.29,0,0,0,6.09,6,24.51,24.51,0,0,0,6.4,3.66c0.54,0.21,1.19.37,1.16,1-0.07,1.4,1.11,1.46,1.89,1.72,1.73,0.58,3.54.92,5.31,1.36a1.54,1.54,0,0,0,1.36-.22c2.39,1,4.95,1.07,7.46,1.25,12.62,0.9,24.55-1.93,36.13-6.71,10.67-4.4,20-10.88,28.79-18.25a122.14,122.14,0,0,0,12.28-12.39,0.8,0.8,0,0,0,.83-1.07l3.57-4.63a1.22,1.22,0,0,0,.93-1.46c0.57-1.32,1.95-2.23,2-3.83l0,0c0.69-.07.72-0.48,0.51-1l0,0a2.29,2.29,0,0,0,1.48-2.44l0,0c0.43,0.15.47-.24,0.62-0.47,1.38-.93,1.46-2.59,2.11-3.91A43.33,43.33,0,0,0,148.6,407c0.21-2.34,1.08-3.54,3.14-4.15a15.18,15.18,0,0,0,6-3.43,23.7,23.7,0,0,0,3.39-4,6.37,6.37,0,0,1,2.3-2.38,38.85,38.85,0,0,1,6.82-2.86,14.56,14.56,0,0,0,7.14-4.63c0.84-1,1.72-1.9,2.51-2.9a8.66,8.66,0,0,1,4.26-3,31.26,31.26,0,0,1,3.22-.91,15.67,15.67,0,0,0,10.15-6.67,10.58,10.58,0,0,1,6.63-4.41c0.85-.19,1.69-0.47,2.53-0.71a12.74,12.74,0,0,0,6.6-4.45q1.13-1.4,2.18-2.85a10.62,10.62,0,0,1,6.8-4.43,14.15,14.15,0,0,0,9.56-6.64,12,12,0,0,1,7.88-5.78c4.64-.94,8-3.75,10.83-7.38a11.49,11.49,0,0,1,4.26-3.4,20.82,20.82,0,0,1,4.34-1.34,14.68,14.68,0,0,0,9.37-6.15,10.82,10.82,0,0,1,7.23-4.75,14.78,14.78,0,0,0,9.89-6.56c1.65-2.36,3.71-4.44,6.71-5.13a16.66,16.66,0,0,0,11-7.71,9.33,9.33,0,0,1,6.28-4.44,17.6,17.6,0,0,0,10.78-6.65c0.19-.25.44-0.46,0.64-0.71a12.17,12.17,0,0,1,7.71-4.45c0.39-.07.77-0.23,1.16-0.31a13.36,13.36,0,0,0,8.56-5.68,11,11,0,0,1,6.76-4.64c0.78-.17,1.52-0.53,2.3-0.67a10.6,10.6,0,0,0,7.06-5,15,15,0,0,1,9.49-6.75,11.82,11.82,0,0,0,7.75-5.62,12.24,12.24,0,0,1,8.52-6,11.87,11.87,0,0,0,7.64-5,10.75,10.75,0,0,1,7.66-4.88,16.26,16.26,0,0,0,2.56-.62,6.73,6.73,0,0,0,4-2.91,10,10,0,0,1,7.73-5,6.7,6.7,0,0,0,5.21-3.39,10.54,10.54,0,0,1,7.61-5.31,7.37,7.37,0,0,0,5.62-4,9.89,9.89,0,0,1,7.46-5.4,11.31,11.31,0,0,0,7.9-4.93,11.55,11.55,0,0,1,7.52-5.14c0.78-.14,1.55-0.4,2.33-0.57a11.82,11.82,0,0,0,7.09-4.55c2.12-2.75,4.57-5,8.32-5.51a12.87,12.87,0,0,0,8.83-5.7,13.34,13.34,0,0,1,8.26-5.71,12.85,12.85,0,0,0,8.55-6.07,11.7,11.7,0,0,1,8.22-5.68,14.29,14.29,0,0,0,9.41-6.07,11.82,11.82,0,0,1,6.55-4.6c1-.28,2-0.59,3-0.79a12.47,12.47,0,0,0,7.8-5.2,13.62,13.62,0,0,1,8.39-5.54,13.25,13.25,0,0,0,8.32-5.28,17.51,17.51,0,0,1,10.42-7.15,12.34,12.34,0,0,0,7.41-5.36,14.64,14.64,0,0,1,10-6.73,12.32,12.32,0,0,0,7.83-5.12,14.18,14.18,0,0,1,9.46-6,11.55,11.55,0,0,0,7.76-4.37,16.21,16.21,0,0,1,10.09-6.75,12.72,12.72,0,0,0,7.88-5.51,14.11,14.11,0,0,1,8.49-5.84,11,11,0,0,0,6.75-4.18c0.7-1,1.55-1.82,2.3-2.75a12.13,12.13,0,0,1,7-4.67c2.92-.67,5.91-1.44,7.84-4.12,0.59-.82,1.15-0.62,1.71.1a58.76,58.76,0,0,0,5.51,6,33.84,33.84,0,0,0,13.48,8,12.9,12.9,0,0,0,4.65,1,22.35,22.35,0,0,0,11.5-3.52,17.57,17.57,0,0,0,7.76-11.32,31.64,31.64,0,0,0,.47-9,46.27,46.27,0,0,0-2.43-11.92,1.2,1.2,0,0,0-.86-1,23.13,23.13,0,0,0-2.15-6,41.68,41.68,0,0,0-7-11.07c-0.44-1.5-3.39-5.22-4.14-5.09l0.12,1.44c-0.87.07-1.72-.47-2.55,0a0.73,0.73,0,0,1-.84-0.31c-1-1.29-2.61-1.74-3.82-2.79a32.34,32.34,0,0,0-7.21-5,1.34,1.34,0,0,1-.77-0.86l0,0a8.35,8.35,0,0,0,4.71-1c-2.41-1.87-4.33-2.68-6.27-2.71a13.9,13.9,0,0,0-13.83.85c-0.53-.62-1.06-0.21-1.47.09-3.93,2.8-7,6.23-8.39,11a31.84,31.84,0,0,0-.25,15.37,59.54,59.54,0,0,0,4.08,12.48,2.4,2.4,0,0,1,.3,1.83l0,0c-1.74.91-3.77,1.39-4.82,3.3a14.53,14.53,0,0,0-4.06,3.26c-0.6.39-1.63,1-1.42,1.43,0.52,1.17-.6,2.21.14,3.42s0.4,1.85-.91,2.61c-1.48.86-2.91,0.29-4.38,0-1.31-.25-2.14-0.81-1.75-2.64-1.5,1.14-3.15,1.43-3.94,3a11.47,11.47,0,0,0-4.43,3.93c-1.87.1-.93,2-1.75,2.76a1.12,1.12,0,0,0-.25,1.08c0.28,2.56.26,2.56-2.37,3.1-0.31.06-.6,0.23-0.91,0.26a3.63,3.63,0,0,1-3.74-2.2c-1.42,1.12-3.31,1.46-4.36,3.09a17.35,17.35,0,0,0-3.34,2.94,2.46,2.46,0,0,0-1.8,2.73,10.22,10.22,0,0,1,0,1.43c-0.09,2.2-1.4,3.36-3.54,3.09a11.43,11.43,0,0,1-1.38-.36c-0.79-.2-2,0.18-2.15-1-0.11-.91,1.14-0.92,1.66-1.48,0.14-.15.15-0.27-0.22-0.54-2,1.11-4.27,1.94-6,3.79a16.06,16.06,0,0,0-4,3.37,2.31,2.31,0,0,0-1.74,1.94c1.13-.26,2-0.54,2.95-0.67,2.65-.38,5.23-1.35,8-0.92-1.37.23-2.76,0.41-4.12,0.72a17.73,17.73,0,0,0-4.51,1.29c-1.29.1-1.63,0.55-1,1.85,1.48,3,.09,4.93-3.37,4.75a6,6,0,0,1-.95-0.1,29.76,29.76,0,0,0-5.64-.83,2.1,2.1,0,0,1-1.47-.6c-1-.93-1.46-0.68-1.94.92-1.84.09-2.71,1.64-4,2.62a2.86,2.86,0,0,0-1.87,1.9,1.27,1.27,0,0,0-.25.31c0.18,0.26.35,0.11,0.5-.06l4.19-.65c-0.3.74-1.3,0.19-1.62,0.89-1.22-.24-1.74.53-2.09,1.49s0.32,1.49.69,2.17c0.92,1.72.63,2.53-1.09,3.41a5.34,5.34,0,0,1-3.25.5c-1.49-.21-3-0.57-4.44-0.82a2.91,2.91,0,0,1-2.21-1.23c-0.44-.69-0.9-0.79-1.47,0-0.37.47-1.24,0.39-1.41,1.15a22,22,0,0,0-3.39,3c-3.12,2.08-3.27,3-.88,5.64a1.22,1.22,0,0,1,.12,1.71,3.71,3.71,0,0,1-2.83,1.54c-2.58.32-5.19,0.8-7.17-1.6a0.72,0.72,0,0,0-1.05-.11c-0.53.34-1,.73-1.54,1.1l-3.85,3.27a5.25,5.25,0,0,0-2.2,2.24c0.64,0.47,1.35-.06,2,0.56-1.55.54-2.06,1.51-1.38,3a1.46,1.46,0,0,1-.14,1.56,3.58,3.58,0,0,1-4.07,1.69c-0.92-.22-1.8-0.66-2.72-0.8a1.58,1.58,0,0,1-1.51-2,2.35,2.35,0,0,0,.65-0.11c0.23-.11.63-0.28,0.4-0.59s-0.57-.08-0.76.15a2,2,0,0,0-.25.59,4.15,4.15,0,0,0-3.37,1.83,24.5,24.5,0,0,0-3.86,2.94A4.21,4.21,0,0,0,510,147.2c-0.78,1.3-2.05,2.55-.61,4.32,0.78,1-.07,2.36-1.38,2.58a10.52,10.52,0,0,1-4.44-.53c-1.48-.38-1.57-0.69-1-2.39a0.88,0.88,0,0,0,1-.48,1,1,0,0,0,1-.47,1.62,1.62,0,0,0,1.69-.83,1.72,1.72,0,0,0-1.66.86A1,1,0,0,0,503.52,150.73Zm-123.7,80.94a0.29,0.29,0,0,0,0-.15,0.23,0.23,0,0,0-.19,0c-0.17.09-.15,0.19,0.05,0.24A0.4,0.4,0,0,0,379.82,231.67Zm127.72-82.6a0.22,0.22,0,0,0-.37,0,0.47,0.47,0,0,0,.17.11A0.49,0.49,0,0,0,507.54,149.07ZM405.68,215.3l0.18,0.09v-0.15ZM141.5,389.54l-0.15-.08v0.13Z" fill="#fff"/>
    <path d="M377.23,233c0.08-.71.57-0.87,1.36-0.91-0.31,1.75.91,2.08,2.2,2.61a10.72,10.72,0,0,0,4.22.56c0.55,0,1.2,0,1.31-.72a1.66,1.66,0,0,0-.65-1.48c-0.57-.5-2-0.1-1.89-1.08a7,7,0,0,1,1.51-3.31,4.66,4.66,0,0,1,2-1.64,0.87,0.87,0,0,0,1.22.74c0.61-.1,1.53-0.53,1.76,0,0.49,1.12,1.27.43,1.86,0.49a3.37,3.37,0,0,0,2.27-.56,0.88,0.88,0,0,0,.3-0.58,0.45,0.45,0,0,0-.47-0.43c-0.47-.08-0.94-0.13-1.41-0.21a1.75,1.75,0,0,1-1.65-2.31,2,2,0,0,1,1.87-1l0.14,0.14c-0.76,1.39-.76,1.6.49,2,1.8,0.58,3.64,1,5.46,1.55a2.43,2.43,0,0,0,2.19-.57c0.74-.52.94-1,0.35-1.74a8.87,8.87,0,0,1-.54-0.78c-1.29-2-1.12-2.32,1.44-2.52a5.81,5.81,0,0,0,.67,3.69,3.56,3.56,0,0,1,.42,1.84,1.92,1.92,0,0,1-2.11,2.26c-1.11.06-2.23,0-3.35,0a34.34,34.34,0,0,0-8.34.48c-1.5.34-2,1.17-1.4,2.59,0.34,0.89.78,1.75,1.1,2.65,0.85,2.39.78,2.56-1.66,3.89h2.66c1.85,0,3.23-.65,3.82-2.55a4,4,0,0,1,1.36-1.93,1.06,1.06,0,0,0,.41-1.24c-0.49-1.71-.17-2.37,1.39-3a5.65,5.65,0,0,1,3.51-.26,5.55,5.55,0,0,0,4.2-.21c1.33-.78,2.91-1.39,3.15-3.29a1.72,1.72,0,0,1,.72-0.91,1.15,1.15,0,0,0,.48-1.19c-0.18-2.18.26-2.68,2.42-2.81,1.43-.09,2.87,0,4.31,0,2.69-.09,3.84-1.06,4.69-3.69,0.33-1,1.51-1.88.26-3a4.42,4.42,0,0,1,.46-0.77c0.27-.46.92-0.67,0.85-1.59a35.28,35.28,0,0,0-7.43.47,2.44,2.44,0,0,0-2.27.08,0.75,0.75,0,0,1-.87-0.2,0.74,0.74,0,0,1,.07-0.88,2.69,2.69,0,0,1,1.54-1.39c0.09,0.3.17,0.79,0.48,0.73,1.58-.26,3.1.42,4.67,0.22a3.37,3.37,0,0,0,1.61-.27,0.94,0.94,0,0,0,.36-0.53,0.42,0.42,0,0,0-.44-0.44c-0.62-.11-1.27-0.11-1.87-0.27-1.38-.37-1.45-0.92-0.33-2.23,1.5,1.85,3.74,1.84,5.8,2.23a11.45,11.45,0,0,0,2.61,0c1.41-.06,1.77-0.57,1.54-1.93a2.69,2.69,0,0,0-.85-1.39c-0.52-.56-1.31-1-0.78-2a2,2,0,0,1,2.31-1.21c-0.36,1.3.15,2.39,0.59,3.62,1.49,4.17,1.68,3.25-1.81,5.38a17.4,17.4,0,0,0,4.6-.09,3.26,3.26,0,0,0,2.63-1.86,9.55,9.55,0,0,1,2.06-3.41,1,1,0,0,0-.16-1.5c-0.62-.73-0.27-1.29.29-1.86a2.26,2.26,0,0,0,1.05-1.17,1,1,0,0,0-.37-0.24,44.6,44.6,0,0,0-6.15.41,5.11,5.11,0,0,0-3,.08,13.4,13.4,0,0,1-2.55.24l-0.26-.26a2.68,2.68,0,0,1,1.56-1.81,1.32,1.32,0,0,0,.51.44,30.89,30.89,0,0,1,4.23.31,5.57,5.57,0,0,0,2.55-.43c0.52-.18.54-0.76,0-1.11a1.55,1.55,0,0,0-.9-0.21,2.28,2.28,0,0,1-2.6-2.17c2.15-2.12,5-3,7.56-4.16l0.27,0.5c-1.22.61-2.44,1.22-3.65,1.85-0.63.33-1.37,0.64-1.18,1.57,0.15,0.77.82,0.83,1.44,1a15.06,15.06,0,0,0,5.21.44,1.3,1.3,0,0,0,1.3-.87,1.41,1.41,0,0,0-.54-1.48c-0.51-.58-1.77-0.69-1.59-1.59a5.1,5.1,0,0,1,1.59-2.77c0.58-.51,1-1.3,1.83-1.45,1.8,0.12,3.63-.2,5.42.28a4,4,0,0,0,1.65-.08,1.15,1.15,0,0,0,1.24-.89c0-.82-0.61-1-1.28-1.07a1.61,1.61,0,0,0-.47,0c-1.36.29-1.94-.63-2.48-1.61a6.14,6.14,0,0,1,2.94-1.89c0.15,1.81.17,1.77,1.85,2.41a31.52,31.52,0,0,0,4.59,1.19,3.67,3.67,0,0,0,3.68-1.65c0.61-.92,0-1.45-0.52-2.06s-1.3-.92-0.75-1.77a1.79,1.79,0,0,1,2.21-.93,2.76,2.76,0,0,0,0,1.64,9.73,9.73,0,0,1,1.29,6,0.92,0.92,0,0,0,1.11,1.14,4.43,4.43,0,0,0,4-3.7,3,3,0,0,1,.71-2.19c1.5-1.56,1.47-1.6-.31-2.82,0.48-.74,1.62-0.58,2.27-1.69-1.29.1-2.29,0.14-3.29,0.27-1.49.19-2.91,0.82-4.44,0.77a2.26,2.26,0,0,0-2.22-.12,2.35,2.35,0,0,1-1.88,0,2.46,2.46,0,0,1,1.67-1.77c2.12,0.55,4.3,0,6.45.38,0.77,0.14,2,.17,2.09-1s-1.15-1.15-2-1.1a2.31,2.31,0,0,1-2.67-1.66c0.87-.66,1.74-1.32,2.63-2a3.85,3.85,0,0,1,.87-0.29c-0.4,1.61.5,2.07,1.77,2.38a12.26,12.26,0,0,0,4.47.43,1.78,1.78,0,0,0,1.81-1.27A1.79,1.79,0,0,0,475,174c-1.14-1-1.26-1.89-.35-3a9.06,9.06,0,0,1,2.49-2.52c0.16,0.47.37,0.95,1,.79,2-.51,3.87.24,5.81,0.15a1.61,1.61,0,0,1-1.28.48,25.32,25.32,0,0,0-3.24.76c-1.66.59-2,1.52-1.34,3.13,0.77,1.84,2,3.54,1.89,5.68,0,0.55,0,1,.94,1a3.93,3.93,0,0,0,4-4.12c0-1.1-.26-2.24,1.26-2.7a0.91,0.91,0,0,0,.32-1.57c-1.19-1.19-.11-1.76,1-2.6h-3.54a1,1,0,0,1,.21-0.39c0.56-.34,1.61-0.23,1.49-1.21s-1.08-.64-1.72-0.75c-0.23,0-.47,0-0.71-0.05a1.63,1.63,0,0,1-1.68-2.05c0.36-.76.88-1.27,1.53-0.37a3.92,3.92,0,0,0,2.64,1.41,22.35,22.35,0,0,0,5.87.9,4.1,4.1,0,0,0,2-.55c1.17-.72,1.32-1.23.78-2.55a14,14,0,0,1-1-2.43c-0.19-.92,0-1.83,1.33-1.62a28.78,28.78,0,0,0,1.13,4.1c1.39,3.26,1.38,3.26-1.42,5.05a12.7,12.7,0,0,0,4.33-.19c1.78-.45,3-1.3,3-3.4a3.15,3.15,0,0,1,.77-2.45c1.17-1,1.65-1.95,1-3.44-0.32-.72.73-0.86,1-1.45-3.17-.25-6.11.82-9.12,1.37a1,1,0,0,0-1.3-.22,2.1,2.1,0,0,1-1.93.06,2.09,2.09,0,0,1,1.61-1.76,9.81,9.81,0,0,0,3.08-.29,1.89,1.89,0,0,1,1.63,0c1.19,0.86,2.22-.11,3.32-0.22a0.76,0.76,0,0,0,.59-0.91,0.83,0.83,0,0,0-.79-0.75,12.27,12.27,0,0,0-1.67-.1c-1.23,0-1.52-.63-1.16-1.71,0.82-1.53,2.3-1.93,3.83-2.25l0,0c-0.57,1.7-.48,2,1,2.39a10.52,10.52,0,0,0,4.44.53c1.31-.23,2.16-1.63,1.38-2.58-1.44-1.77-.17-3,0.61-4.32a4.21,4.21,0,0,1,2.17-1.77,1.18,1.18,0,0,0,1.44.52c1.5-.13,3-0.27,4.51-0.42,0.45,0,1,0,1.07-.69A3,3,0,0,0,517,144a1.11,1.11,0,0,1-1-1.51,4.15,4.15,0,0,1,3.37-1.83l0,0a1.58,1.58,0,0,0,1.51,2c0.93,0.14,1.8.59,2.72,0.8a3.58,3.58,0,0,0,4.07-1.69,1.46,1.46,0,0,0,.14-1.56c-0.68-1.46-.17-2.44,1.38-3-0.6-.62-1.32-0.09-2-0.56a5.25,5.25,0,0,1,2.2-2.24c0,0.39,0,1,.5.89a33.63,33.63,0,0,1,5.63-.12,3.29,3.29,0,0,0,1.32-.49,1,1,0,0,0,.47-1,0.77,0.77,0,0,0-.86-0.63,10,10,0,0,0-1.66-.06c-1.45.14-1.82-.57-1.55-1.85,0.51-.37,1-0.76,1.54-1.1a0.72,0.72,0,0,1,1.05.11c2,2.39,4.59,1.91,7.17,1.6a3.71,3.71,0,0,0,2.83-1.54,1.22,1.22,0,0,0-.12-1.71c-2.4-2.63-2.25-3.56.88-5.64,0.71,0.87,1.61.48,2.43,0.29a3,3,0,0,1,3,.63c-0.87.79-1.91,0.51-2.77,0.79-2.11.71-2.54,1.45-1.78,3.51,0.44,1.19,1,2.32,1.46,3.51,0.55,1.54.17,2.47-1.14,3.13a6.59,6.59,0,0,0,4-.45,4.06,4.06,0,0,0,2.31-4.32c-0.13-1.17-.35-2.49,1.09-3.09,1.2-.5.79-1.43,0.69-2.23-0.13-1-1-.77-1.7-0.83-0.51,0-1.14.27-1.43-.45,0.16-.64,1.24-0.68,1-1.47a1.35,1.35,0,0,0-1.57-.81c-1.07.1-1.54-.65-2.17-1.22,0.16-.77,1-0.68,1.41-1.15,0.57-.74,1-0.64,1.47,0A2.91,2.91,0,0,0,555.1,120c1.48,0.25,3,.61,4.44.82a5.34,5.34,0,0,0,3.25-.5c1.73-.88,2-1.69,1.09-3.41-0.37-.68-1-1.28-0.69-2.17s0.87-1.73,2.09-1.49c-0.56,1.64.11,3.06,0.78,4.48a5.4,5.4,0,0,1,.75,3c-0.13,1.12-1.34,1.31-2,2.1a21.53,21.53,0,0,0,2.28,0c3.13-.35,4.58-1.95,4.66-5.05,0-.4,0-0.79.05-1.19a1.73,1.73,0,0,1,.85-1.57c1.52-1,1.49-1.09.91-3.07a2.25,2.25,0,0,0,1.64-.19,1.17,1.17,0,0,0-1.66.17,26.33,26.33,0,0,0-5.36.4,1.15,1.15,0,0,0-1.38.12l0.07,0-4.19.65-0.25-.25a2.87,2.87,0,0,1,1.88-1.9,0.87,0.87,0,0,0,.31.33c2.13,0.1,4.16-.64,6.25-0.85a0.73,0.73,0,0,0,.61-0.88c-0.1-.51-0.57-0.43-0.94-0.5-0.79-.15-1.79.37-2.27-0.72,0.48-1.61.9-1.85,1.94-.92a2.1,2.1,0,0,0,1.47.6,29.76,29.76,0,0,1,5.64.83,6,6,0,0,0,.95.1c3.46,0.18,4.85-1.71,3.37-4.75-0.63-1.3-.29-1.75,1-1.85a5.1,5.1,0,0,0,.81,2.92c1.11,1.92,1.81,3.92-.65,5.72,0.65,0,1,.09,1.28.09,3.55,0,5.71-.89,5.77-5.51,0-1,.12-1.74,1.16-2.09a1.51,1.51,0,0,0,1.17-1.09c0.22-1.24,1.14-1.35,2.13-1.51,2.6-.41,5.19-0.84,7.83-1,3.38-.2,5.07-2,5.12-5.31,0-.48,0-1,0-1.44a1.31,1.31,0,0,1,.95-1.48c1.64-.46,2.59-2.06,4.27-2.48-3.59-.45-6.93.63-10.29,1.42-1.3.31-1.7,1.51-1.3,2.85,0.32,1.07.69,2.12,0.94,3.21a2.09,2.09,0,0,1-1.56,2.76c-3,.26-6,1-9,0.93-2.74-.43-5.32.54-8,0.92-0.92.13-1.82,0.41-2.95,0.67a2.31,2.31,0,0,1,1.74-1.94l4.91-.51a3.7,3.7,0,0,0,1.74-.68,0.61,0.61,0,0,0,.31-0.8,0.76,0.76,0,0,0-.56-0.32c-1,0-1.9-.07-2.44-1.05,1.7-1.85,4-2.68,6-3.79,0.38,0.26.37,0.38,0.22,0.54-0.52.55-1.77,0.57-1.66,1.48,0.14,1.16,1.36.78,2.15,1a11.43,11.43,0,0,0,1.38.36c2.14,0.27,3.46-.9,3.54-3.09a10.22,10.22,0,0,0,0-1.43,2.46,2.46,0,0,1,1.8-2.73,0.9,0.9,0,0,0,1,.33,10.49,10.49,0,0,1,3.74-.41c1.47,0.06,2.11-.66,2.24-2.08-1.27-.33-2.65.22-3.68-0.77,1-1.63,2.94-2,4.36-3.09a3.63,3.63,0,0,0,3.74,2.2c0.31,0,.6-0.2.91-0.26,2.63-.54,2.65-0.54,2.37-3.1a1.12,1.12,0,0,1,.25-1.08c0.82-.77-0.12-2.66,1.75-2.76a42,42,0,0,1,4.67-.53,1.91,1.91,0,0,0,1.51-.55,1.2,1.2,0,0,0,.55-1.2,0.86,0.86,0,0,0-1-.49c-0.74-.05-1.47-0.1-1.33-1.16,0.79-1.52,2.44-1.82,3.94-3-0.39,1.83.44,2.39,1.75,2.64,1.47,0.28,2.9.86,4.38,0,1.31-.77,1.7-1.32.91-2.61s0.38-2.25-.14-3.42c-0.21-.47.82-1,1.42-1.43,1.73,0.4,3.37-.52,5.16-0.22,1.11,0.19,1.9-.83,1.86-2.11-0.92-.67-2.35.54-3-0.93,1-1.92,3.08-2.39,4.82-3.3a1.92,1.92,0,0,1-.13.45c-0.76,1.29-.7,1.62.52,1.93a15.44,15.44,0,0,0,3.26.55c2.07,0.05,2.92-1.11,2.15-2.94a1.06,1.06,0,0,1,.59-1.67c0.31-.15.78-0.27,0.57-0.85-0.85-.2-1.46.39-2.17,0.67-1.61.62-3,1.8-4.82,1.9a2.4,2.4,0,0,0-.3-1.83,59.54,59.54,0,0,1-4.08-12.48,31.84,31.84,0,0,1,.25-15.37c1.36-4.77,4.47-8.2,8.39-11,0.41-.29.95-0.71,1.47-0.09a48.7,48.7,0,0,1,10.47.24c0.6,0.07,1.54-.31,1.62.84,0,0.27-.31.62,0.17,0.72s0.64-.31.75-0.7l0.82-1.94c1.94,0,3.86.84,6.27,2.71a8.35,8.35,0,0,1-4.71,1,1.14,1.14,0,0,0-1.71-.71,1.59,1.59,0,0,0,1.74.67,1.34,1.34,0,0,0,.77.86,32.34,32.34,0,0,1,7.21,5c1.21,1,2.82,1.5,3.82,2.79a0.73,0.73,0,0,0,.84.31c0.83-.49,1.68,0,2.55,0L678,29.12c0.75-.13,3.7,3.58,4.14,5.09,0.3,0.94.13,1.63-1,1.79a0.62,0.62,0,0,1-.37-0.53c-0.06-.4.21-1.09-0.59-0.93a1,1,0,0,0-.87,1,2.78,2.78,0,0,0,.86,1l1.13,2.7a10.43,10.43,0,0,0-5,6.76c0.8,0.11,1-1.09,1.86-.86a4.54,4.54,0,0,1-.14,2.1,7.45,7.45,0,0,0,.18,4.22c0.52,1.48.77,1.68,2.14,0.93s2.42-1.54,3.67-2.23c1.86-1,2.88-.71,3.79,1.2,0.61,1.29,1.1,2.64,1.64,4-0.19-3.12-.19-3.12,1.89-4a1.2,1.2,0,0,1,.86,1,46.27,46.27,0,0,1,2.43,11.92,31.64,31.64,0,0,1-.47,9,17.57,17.57,0,0,1-7.76,11.32,22.35,22.35,0,0,1-11.5,3.52,12.9,12.9,0,0,1-4.65-1,33.84,33.84,0,0,1-13.48-8,58.76,58.76,0,0,1-5.51-6c-0.56-.72-1.12-0.92-1.71-0.1-1.93,2.68-4.91,3.45-7.84,4.12a12.13,12.13,0,0,0-7,4.67c-0.74.93-1.6,1.78-2.3,2.75a11,11,0,0,1-6.75,4.18,14.11,14.11,0,0,0-8.49,5.84,12.72,12.72,0,0,1-7.88,5.51,16.21,16.21,0,0,0-10.09,6.75,11.55,11.55,0,0,1-7.76,4.37,14.18,14.18,0,0,0-9.46,6,12.32,12.32,0,0,1-7.83,5.12,14.64,14.64,0,0,0-10,6.73,12.34,12.34,0,0,1-7.41,5.36,17.51,17.51,0,0,0-10.42,7.15,13.25,13.25,0,0,1-8.32,5.28,13.62,13.62,0,0,0-8.39,5.54,12.47,12.47,0,0,1-7.8,5.2c-1,.2-2,0.51-3,0.79a11.82,11.82,0,0,0-6.55,4.6,14.29,14.29,0,0,1-9.41,6.07,11.7,11.7,0,0,0-8.22,5.68,12.85,12.85,0,0,1-8.55,6.07,13.34,13.34,0,0,0-8.26,5.71,12.87,12.87,0,0,1-8.83,5.7c-3.74.54-6.2,2.76-8.32,5.51a11.82,11.82,0,0,1-7.09,4.55c-0.78.17-1.54,0.43-2.33,0.57A11.55,11.55,0,0,0,443.7,208a11.31,11.31,0,0,1-7.9,4.93,9.89,9.89,0,0,0-7.46,5.4,7.37,7.37,0,0,1-5.62,4,10.54,10.54,0,0,0-7.61,5.31A6.7,6.7,0,0,1,409.9,231a10,10,0,0,0-7.73,5,6.73,6.73,0,0,1-4,2.91,16.26,16.26,0,0,1-2.56.62,10.75,10.75,0,0,0-7.66,4.88,11.87,11.87,0,0,1-7.64,5,12.24,12.24,0,0,0-8.52,6,11.82,11.82,0,0,1-7.75,5.62,15,15,0,0,0-9.49,6.75,10.6,10.6,0,0,1-7.06,5c-0.78.14-1.52,0.5-2.3,0.67a11,11,0,0,0-6.76,4.64,13.36,13.36,0,0,1-8.56,5.68c-0.39.08-.76,0.24-1.16,0.31a12.17,12.17,0,0,0-7.71,4.45c-0.2.25-.45,0.46-0.64,0.71a17.6,17.6,0,0,1-10.78,6.65,9.33,9.33,0,0,0-6.28,4.44,16.66,16.66,0,0,1-11,7.71c-3,.7-5.07,2.77-6.71,5.13a14.78,14.78,0,0,1-9.89,6.56,10.82,10.82,0,0,0-7.23,4.75,14.68,14.68,0,0,1-9.37,6.15,20.82,20.82,0,0,0-4.34,1.34,11.49,11.49,0,0,0-4.26,3.4c-2.81,3.63-6.19,6.43-10.83,7.38a12,12,0,0,0-7.88,5.78,14.15,14.15,0,0,1-9.56,6.64,10.62,10.62,0,0,0-6.8,4.43q-1.06,1.45-2.18,2.85a12.74,12.74,0,0,1-6.6,4.45c-0.85.24-1.68,0.52-2.53,0.71a10.58,10.58,0,0,0-6.63,4.41,15.67,15.67,0,0,1-10.15,6.67,31.26,31.26,0,0,0-3.22.91,8.66,8.66,0,0,0-4.26,3c-0.79,1-1.67,1.94-2.51,2.9a14.56,14.56,0,0,1-7.14,4.63,38.85,38.85,0,0,0-6.82,2.86,6.37,6.37,0,0,0-2.3,2.38,23.7,23.7,0,0,1-3.39,4,15.18,15.18,0,0,1-6,3.43c-2.05.61-2.93,1.81-3.14,4.15a43.33,43.33,0,0,1-4.25,15.4c-0.65,1.32-.73,3-2.12,3.91-0.68-.47-0.56.11-0.62,0.47l0,0a2.87,2.87,0,0,0-1.48,2.44l0,0a0.86,0.86,0,0,0-.51,1l0,0a8.87,8.87,0,0,0-2.91,4.33c-1,.23-1.27,1.16-1.77,1.83a102.76,102.76,0,0,1-18.13,18.24c-2.63,2.08-5.35,4-8.11,5.89a108.55,108.55,0,0,1-29.06,13.86A65.88,65.88,0,0,1,49,476.41a0.87,0.87,0,0,0-1.22.75,1.54,1.54,0,0,1-1.36.22c-1.78-.44-3.58-0.79-5.31-1.36-0.77-.26-2-0.32-1.89-1.72,0-.65-0.62-0.8-1.16-1a24.51,24.51,0,0,1-6.4-3.66,54.29,54.29,0,0,1-6.09-6,61.12,61.12,0,0,1-3.69-5,2.63,2.63,0,0,1-.71-1.7,9.49,9.49,0,0,1,3,.43c0.91,0.21,1.36-.35,1.12-1.24a3.19,3.19,0,0,0-.43-0.84,33,33,0,0,1-3.46-6.17,0.77,0.77,0,0,0-.69-0.57c-0.51,0-.53.47-0.58,0.87-0.15,1.41.31,2.84-.08,4.25-1.81-.21-1.07-2.29-2.21-3a24.68,24.68,0,0,1,1.27-14.09,44.38,44.38,0,0,1,11.68-17,121.77,121.77,0,0,1,15.72-12.5,128,128,0,0,1,31.66-15.14,159.39,159.39,0,0,1,26.82-6c5-.68,10-1.26,15-1.61a42.91,42.91,0,0,1,15,2c-2.73,1.61-3.73,4.12-5.09,6.36-0.75,1.23.21,2.13,0.82,3a2,2,0,0,0,2.48.92c3.13-1.08,6-2.47,7.7-5.63a1.63,1.63,0,0,1,1.25,1.75,1.75,1.75,0,0,1-1.1,1.43,35.37,35.37,0,0,0-8.61,7.4c-1.6,1.89-4,2-6.2,1.57a38.65,38.65,0,0,0-8.81-.21,41.28,41.28,0,0,0-7.7,1.2,3.83,3.83,0,0,1-1.9,0,3,3,0,0,0-2.91.53,1.76,1.76,0,0,1-.84.43c-3.45.18-6.33,2.05-9.46,3.18-1.86.67-3.79,1.06-5.63,1.83-2.62,1.1-5.17,2.34-7.77,3.48a3.12,3.12,0,0,1-1,.53c-3.78-.21-7,1.68-10.39,2.83a89.73,89.73,0,0,0-10.68,4.59c-2,1-4.08,1.59-6,2.71a32.4,32.4,0,0,0-4.2,2.62c-3.07,2.49-6.36,4.73-8.84,7.9-0.72.91-1.76,1.56-2.21,2.73a13.06,13.06,0,0,0-.31,3.24,25.46,25.46,0,0,1-.62,3.51,7.67,7.67,0,0,0-.08,4.46,4.64,4.64,0,0,1-.14,3.06,3.07,3.07,0,0,0,.67,3.35C39,456.89,40.52,459,43,459.8a39.08,39.08,0,0,0,6.57,1.85,17.26,17.26,0,0,0,5.42-.55c2.2-.41,4.43-0.29,6.63-0.72a60.58,60.58,0,0,0,8.8-2.07,53.24,53.24,0,0,0,5.53-2.79c4.28-2.09,8.54-4.27,12.63-6.71,4.57-2.73,9.32-5.11,13.67-8.25,2.75-2,5.59-3.94,8.52-5.72a28.33,28.33,0,0,0,4.59-3.78,44.3,44.3,0,0,0,6.17-6.66,37.3,37.3,0,0,0,3.06-5.06,69.93,69.93,0,0,0,3.23-7.15c0.69-2,2.36-2.83,4.57-2.42a5.39,5.39,0,0,0,3.18-.45,15.87,15.87,0,0,0,8.81-7.93c0.45-.9.78-2.11,2-2.54,0.6-.21.24-0.81,0.11-1.25a21,21,0,0,0-2.47-5.17c-0.36-.59-1-1.07-0.77-1.9a16.12,16.12,0,0,1,3.05.37,6.4,6.4,0,0,0,5.11-.94,1.19,1.19,0,0,0-1-.71c-3.31-1.08-3.64-2.37-1.29-5.08l0.16-.18a1.3,1.3,0,0,1,1.1-1.08,32.84,32.84,0,0,1,3.27-1.43,8.43,8.43,0,0,0,4.63-3.1,3.4,3.4,0,0,1,2-1.62,0.92,0.92,0,0,0,.83,1c2.8-.14,5.52.88,8.33,0.47a0.77,0.77,0,0,0,.86-0.53,2.51,2.51,0,0,0-1.93-.9c-2.72-.51-3.16-1.13-2.75-3.86l0,0,0.51-.5a2.89,2.89,0,0,1,2.49-1.38,1,1,0,0,1-.38,1.1c-0.91,1.72-.65,2.66,1.21,3.27a35.64,35.64,0,0,1,5,1.55c0.48,0.24,2.89-1,3-1.48a1.87,1.87,0,0,0-.84-2.05,16.87,16.87,0,0,0-2.85-1.72c-1.06-.61-1.31-1.44-0.4-2,1.75-1.13,2.69-3.12,4.6-4,0.64,0.66,1.47.46,2.25,0.48,1.58,0,3.16-.14,4.7.51a3.4,3.4,0,0,0,1.65,0c0.82-.1,2.14.19,2.22-0.84s-1.23-.88-2-1c-2.75-.39-3.21-1-2.87-3.72,1.57-1.57,3.65-2.19,5.63-2.91s4.21-1.39,5.58-3.34a1.51,1.51,0,0,1,1.18-.73c0.6,0.73,1.45.44,2.21,0.53,0.6,0.07,1.29-.18,1.72.48l-0.11.14,0.08-.17c1.6,0,3.19,0,4.79-.09,0.84,0,2.1.18,2.11-.94s-1.23-.68-2-0.75c-2.86-.27-3.44-0.82-3.52-3.52a3,3,0,0,1,2.7-1.38c-0.5.78-1.28,1.09-1.5,1.81a1.82,1.82,0,0,0,1.41,1.1,19,19,0,0,0,6,1.38,6,6,0,0,0,2.57-.45c0.85-.3.82-0.8,0.54-1.5a4.17,4.17,0,0,0-1.72-1.61,6.64,6.64,0,0,1-1.51-1.15c-0.25-.34-0.46-1-0.22-1.07,1.41-.5.87-2,1.6-2.85s1.36-2,2.54-2.45c0.17,1.16,1.06,1,1.84,1,2.76,0,5.52.65,8.28,0q0,0.4,0,.81c-1.55.24-3.1,0.47-4.64,0.73a29.9,29.9,0,0,0-5.81,1.29c-1.21.47-1.32,0.77-.55,1.65a40.17,40.17,0,0,1,2.37,3.29c1.61,2.26,1.61,2.25.35,4.68a3,3,0,0,0,1.63,0c2.2-.31,4.06-1,4.33-3.64a1.65,1.65,0,0,1,1-1.27c0.66-.4.79-0.8,0.24-1.52a3,3,0,0,1,1.66-4.7,32.26,32.26,0,0,1,6.82-.87c3.71-.08,7.18-0.62,8.59-4.88a1.92,1.92,0,0,0,0-1.7c-0.8-1.71.58-4.34,2.41-4.89,1.43-.43,2.91-0.57,4.37-1h-6.28a3.2,3.2,0,0,0,1.09-.85,0.74,0.74,0,0,0-.76-0.75c-0.62-.15-1.25-0.2-1.88-0.28-1.84-.25-2-0.42-1.78-2.48,2,1.11,4.28,1.39,6.31,2.4,1.57,0.78,3.25.5,4.88,0.37a1.74,1.74,0,0,0,1.52-1.59c0.09-.54.1-1.09,0.15-1.64a3.43,3.43,0,0,1,1.9,3.51c0,1.19-1.22.74-1.74,1.21a17.47,17.47,0,0,0,4.51-.18c1.3-.32,2.5-0.65,2.52-2.34a1.67,1.67,0,0,1,.69-1.22c1-.79,1.75-1.56.18-2.53a0.56,0.56,0,0,1-.16-0.64,8.77,8.77,0,0,1,2.72-4,44.19,44.19,0,0,0-6.26.27c-1.64.21-3.23,0.83-4.92,0.68l-0.44,0c-0.8.72-1.3,1.46-.08,2.24a1.62,1.62,0,0,1,.55,2.08c-1.8.35-2.42-1.12-3.3-2.16a0.7,0.7,0,0,1,0-.67c1.37-1.54,1.41-4.13,3.8-4.86a0.87,0.87,0,0,0,1,1c1.88,0,3.8-.25,5.56.76a1.53,1.53,0,0,0,1.16,0c0.75-.3,2.08-0.13,2-1.25-0.07-.81-1.25-0.71-2-0.8-2.73-.35-3-0.68-3-3.44l2.06-1.13c0.18,1-.2,2,0.77,2.56a6.27,6.27,0,0,0,2.41.92,17.76,17.76,0,0,1,3.24.64,3,3,0,0,0,2.27-.35,1.66,1.66,0,0,0,.42-2.86,5.51,5.51,0,0,0-1.58-1c-1.47-.72-1.58-1.19-0.29-1.91a2.61,2.61,0,0,0,1.41-1.66,1.91,1.91,0,0,1,1.67-1.48,23.83,23.83,0,0,1,5.24.27,13.63,13.63,0,0,0,3.58,0,2,2,0,0,0,2.13-1.81,1,1,0,0,1,1.24-.4c1.12,0.5,2.34.28,3.48,0.63,0.84,0.26,2.83-.49,2.93-1.07a3.31,3.31,0,0,0-1-2.78,5,5,0,0,0-1.84-1c-1.54-.67-1.61-1.17-0.42-2.3,0.22-.21.42-0.46,0.63-0.69L285,298c-0.52,2.12.93,3.64,1.72,5.31,1.38,2.89,1,3.78-2.11,4.35a6.16,6.16,0,0,1-.72.06c-2.71.17-5.41,0.32-8.12,0.51a40.76,40.76,0,0,0-7.08,1.16c-1.66.41-1.72,0.66-1,2.1,0.44,0.85.9,1.69,1.35,2.53,0.56,1,1.21,2,.77,3.36s-1.37,1.74-3,2.09a14.1,14.1,0,0,0,5.27-.32,3.5,3.5,0,0,0,3-2.43c0.36-1.1.27-2.37,1.52-3.09,0.43-.25.07-0.82-0.12-1.28a2.67,2.67,0,0,1,2-3.73,23.5,23.5,0,0,1,5.22-.57,21.75,21.75,0,0,0,6.15-.76,3.77,3.77,0,0,0,3.11-3.23,2.11,2.11,0,0,1,1-1.75c1-.55.93-1.16,0.38-2.14-1-1.81-.34-3.14,1.68-3.5a22.43,22.43,0,0,1,5-.64,22.22,22.22,0,0,0,6.13-1,3.09,3.09,0,0,0,2.5-1.67,7.1,7.1,0,0,1,1.9-3.46,0.84,0.84,0,0,0,0-.89c-0.8-2.73-.27-3.72,2.39-4.49,0.9-.26,1.83-0.43,3-0.71a41.91,41.91,0,0,0-8.41.51,29.9,29.9,0,0,0-5.09,1.23c-1,.3-1.51.8-1.09,2.12a29.27,29.27,0,0,0,1.78,3.88c1.24,2.58,0,3.42-1.92,3.68-4.5.61-9,1.17-13.5,1.75-1-.39-1.07-0.38-1.3.17a0.76,0.76,0,0,1-1.08.34c-1.25-.72-2.24.12-3.3,0.55-0.5,0-1,0-.67-0.76a5,5,0,0,1,2.45-2.66,1.9,1.9,0,0,0,2.29.78,10,10,0,0,1,4,.07,4.22,4.22,0,0,0,4.21-1.26c-1.45-.45-2.76-0.23-3.93-0.71a1.71,1.71,0,0,1-1.21-2.4,12.11,12.11,0,0,1,.55-1.31,6.82,6.82,0,0,1,3.83-2.48c2.42-.82,4.72-1.7,6.31-3.84a0.85,0.85,0,0,1,.84-0.31c2.71-.28,5.39.37,8.1,0.31,0.82,0,2.09.21,2.11-.9s-1.23-.71-2-0.79c-2.77-.31-3.14-0.82-2.42-3.48a1.84,1.84,0,0,1,1.25-1c1.26-.58,1.58-0.41,1.36,1a1.34,1.34,0,0,0,.93,1.64,11.1,11.1,0,0,0,6.27.83c1-.1,1.26-0.74.84-1.69a2.76,2.76,0,0,0-1.59-1.28c-1.63-.81-1.63-1.48-0.37-2.8,1-1,1.84-2.17,2.77-3.24a1.41,1.41,0,0,1,1-.54,1.34,1.34,0,0,0,.51.44c2.36,0.16,4.75-.09,7.09.53a1.21,1.21,0,0,0,1.63-1.43c-1-.16-2-0.39-3.06-0.47a1.85,1.85,0,0,1-1.89-1.77c-0.62-.56,0-0.84.31-1.06a18.29,18.29,0,0,1,3.92-2c-0.64,1.69.17,2.58,1.33,3.21a6.5,6.5,0,0,0,5,.61c1.52-.44,1.73-1.47.62-2.62a2.92,2.92,0,0,0-1.88-.9,1.56,1.56,0,0,1-1.31-1.51c-0.1-.79.76-0.67,1.22-0.82a4.21,4.21,0,0,0,2.42-1.81,3.38,3.38,0,0,1,1.78-1.51,1.44,1.44,0,0,0,.18.66c2.93,0.83,5.89.5,8.84,0.08a0.69,0.69,0,0,0,.5-0.73,0.71,0.71,0,0,0-.68-0.8c-0.86-.1-1.74-0.12-2.59-0.31-1.62-.36-1.7-0.57-1.45-2.51,1.17-1.65,3-2.27,4.74-3,2.24-1,4.71-1.57,6.11-3.9a0.86,0.86,0,0,1,.85-0.34,3.87,3.87,0,0,0,3.54.66,35.26,35.26,0,0,1,3.75-.46,3.83,3.83,0,0,0,2.9-1.35,17.05,17.05,0,0,0-3.4-.74c-0.81-.17-1.57-0.48-1.2-1.58a2.31,2.31,0,0,1,1.82.25,41.68,41.68,0,0,0,7.18,1.6c1.15,0.15,2.57-.48,2.85-1.39a2.08,2.08,0,0,0-.91-2.45c-2.24-1.81-2-3,.59-4.17a1.12,1.12,0,0,1,1.13.06,3,3,0,0,0-.12,3.35c0.46,0.83.78,1.74,1.18,2.61,0.85,1.88.49,2.75-1.45,3.4a4.71,4.71,0,0,1-.94.14c-2.77.32-5.55,0.6-8.31,1a38.87,38.87,0,0,0-6.73,1.45c-1.64.53-1.83,1.08-1.06,2.69,0.52,1.08,1.09,2.13,1.69,3.17,1.07,1.87.91,2.44-1.09,3.19-2.28.85-4.71,0.76-7.08,0.95a82.16,82.16,0,0,0-8.54,1.1c-2.27.43-2.4,1-1.46,3.09s2.49,4.41.22,6.8c3.62,0.39,5.45-.66,6.52-3.61a2.82,2.82,0,0,1,1.11-1.77c1-.55.85-1.43,0.69-2.32-0.35-1.93-.08-2.54,1.72-2.81a23,23,0,0,1,5.23-.56,20.15,20.15,0,0,0,5-.54,4.07,4.07,0,0,0,3.47-4c0-.45-0.3-0.94.27-1.27,1.05-.6,1-1.39.62-2.45-0.51-1.37,0-2.25,1.45-2.71a11.78,11.78,0,0,1,3.27-.64,51.88,51.88,0,0,0,8.07-1c1.23-.23,2.34-0.81,2.48-2.22,0.11-1.06.13-2,1.17-2.7A0.72,0.72,0,0,0,380,243c-0.85-.79-0.07-1.39.09-2.1,0.28-1.26,1.72-1.28,2.43-2.33-2.44-.47-4.6.35-6.8,0.31a7.19,7.19,0,0,0-3.48.12,1.3,1.3,0,0,1-1.7-.29c-0.4-.67.16-1.18,0.53-1.66a2.61,2.61,0,0,1,.77-0.47,0.85,0.85,0,0,0,1.07.95,19.72,19.72,0,0,1,5.67.13,3,3,0,0,0,.71,0c0.47-.08,1-0.13,1-0.77s-0.49-.54-0.88-0.6-1-.06-1.42-0.18C376,235.56,375.81,234.69,377.23,233ZM654.72,50.88a0.51,0.51,0,0,1-.48.49,11.05,11.05,0,0,0-4.85,4.19c1.58-.42,3.56-0.08,4.13-2.24a1.18,1.18,0,0,1,.44-0.05c1.71,0.91,3.43.2,5.13,0a0.84,0.84,0,0,0,.76-0.81,0.9,0.9,0,0,0-.73-0.83,3.26,3.26,0,0,0-3.2.13,1.91,1.91,0,0,1-1.75.49,0.64,0.64,0,0,1,.06-0.87,0.53,0.53,0,0,1,.49-0.48l0.06-.06Zm14.42,1.89c-0.23,0-.66.09-0.66,0.1,0.16,1.51-.86,1.48-1.89,1.52s-2.23.28-3.34,0.26c-4,0-7.69,1.29-11.46,2.27-1.58.41-1.73,0.94-.88,2.41a3.93,3.93,0,0,1,.89,2.42A1.47,1.47,0,0,0,653,63.54a1.29,1.29,0,0,1,1.07.84c0.14,0.62-.79.68-0.69,1.25a13.7,13.7,0,0,0,4.8-.23c2.5-.43,1.88-2.62,2.28-4.19s-1-1.29-1.79-1.58a1.51,1.51,0,0,1-1.33-1.19,1.15,1.15,0,0,1,1.17-1.24,2.44,2.44,0,0,0,1.26-.62,5.49,5.49,0,0,1,3.78-1.21c1.76,0,3.51-.05,5.27-0.06s3.21-.53,3.9-2.37c0.35-.94,1.3-1.68,1.08-3-1.55,1.57-1.55,1.56-3.66,1.55-0.89,0-1,.61-1,1.31ZM70.7,468.76c0.21,1.05-1.39.92-1.35,2.13a55.86,55.86,0,0,0,21.3-7.64c-0.67-.77-1.25-0.45-1.86-0.33-1,.19-1.89.91-3,0.5,0.59-1.4,2.1-1.26,3.17-1.84a125,125,0,0,0,16.7-10.71c5.27-4,10.35-8.23,15.35-12.56,6.58-5.69,11.61-12.68,16.45-19.82a10.91,10.91,0,0,0,1.15-2.62c0.25-.73,0-1.17-0.9-1.21-2.17-.11-4.38,0-6.44-0.94a1,1,0,0,0-1.45.47c-0.26,1-1.22,1.41-1.68,2.25a71.62,71.62,0,0,1-6.47,10.48,128,128,0,0,1-14,15.53,148.34,148.34,0,0,1-12.88,9.85c-5.1,3.71-10.7,6.59-16.08,9.83a26,26,0,0,1-13,3.55A42.75,42.75,0,0,1,54,464.85a4.58,4.58,0,0,0-3.48.5c-1.25.74-2.42,1.61-3.74,2.5,0.6,0.32,1,.56,1.45.76a4.17,4.17,0,0,0,.9.31c6.4,1.31,12.8,1.69,19.22.13C69.14,468.87,69.87,468.33,70.7,468.76ZM121.33,385c-3.17.33-6.35,0.54-9.52,1a207.67,207.67,0,0,0-21.22,3.64,135.09,135.09,0,0,0-37.51,14.76,110,110,0,0,0-24.84,19.79,30.94,30.94,0,0,0-3.56,4.81c-0.56.9-1.19,1.78,0.25,2.56,0.53,0.28.41,1,.42,1.55,0,0.72,0,1.44,0,2.16,0.25,2.82.15,5.49-2,7.76-1.06,1.14-.69,2.37.72,3.1a17.18,17.18,0,0,0,2.44,1c1.55,0.51,2.27.06,2.28-1.57a4.91,4.91,0,0,1,1.17-3,44.69,44.69,0,0,1,5.11-5.38A139.93,139.93,0,0,1,48.81,424.8a120.06,120.06,0,0,1,10-7.13c3.86-2.31,7.65-4.74,11.67-6.79,2.7-1.38,5.47-2.6,8.15-4a24.14,24.14,0,0,1,5.32-2,92.67,92.67,0,0,1,11.73-2.13c2.83-.34,5.68-0.42,8.51-0.81a45.08,45.08,0,0,1,6.38-.87c5.94,0.06,11.84-1,17.8-.66a10,10,0,0,0,2.57-.5,0.53,0.53,0,0,0,.44-0.48,0.52,0.52,0,0,0-.58-0.6c-2.62,0-4.14-2.2-6.29-3.13-1.09-.48-1.12-1.22-0.58-2.34,0.77-1.58,1.82-3,2.6-4.51,1-2.07.36-3.27-1.9-3.57A19.2,19.2,0,0,0,121.33,385Zm390.1-227.6c1.52,0,2.72.09,3.91,0,2.59-.22,3.39-1,4.07-3.47,0.36-1.31.11-2.95,1.84-3.58a0.8,0.8,0,0,0,.25-0.85c0-1.93,0-1.91,1.81-2.12,3.24-.4,6.5-0.71,9.72-1.28,2.67-.47,3.62-1.75,3.64-4.44,0-1.18.15-2.22,1.32-2.86a1.25,1.25,0,0,0,.65-0.66c0.35-2.09,1.94-2.25,3.58-2.43,1-.11,1.94-0.4,3-0.62a25.32,25.32,0,0,0-7.48.46,29.21,29.21,0,0,0-6.71,1.67c-1.14.47-1.34,1.24-.9,2a11.57,11.57,0,0,1,1,3.4c0.47,2.23-.07,3-2.37,3.33-3.79.5-7.59,1-11.38,1.5a23.83,23.83,0,0,0-4,.9c-1.28.42-1.52,1.23-.89,2.42,0.19,0.35.49,0.64,0.65,1C514.68,155,514.5,155.73,511.43,157.38ZM174.61,378.94a38.06,38.06,0,0,0-14.25,1.53,7.69,7.69,0,0,0-1.82.45c-1,.55-1.1,1.46-0.11,2,2,1,2.58,3,3.61,4.61a1.3,1.3,0,0,1-.83,2.07,17.08,17.08,0,0,1-2.49.83c-2,.42-4,0.76-6.07,1.13a18.64,18.64,0,0,0,3.59.09c2.45-.26,4.91-0.29,7.35-0.79,2.67-.54,4.22-2.32,5.61-4.39a1.15,1.15,0,0,0,.09-1.15c-0.64-1.18,0-2.34,0-3.51a2.22,2.22,0,0,1,1.85-2.17C172.26,379.22,173.46,379.22,174.61,378.94Zm3.5-.35a18.33,18.33,0,0,0,6.19-.37c0.57-.17,1.24-0.35,1.27-0.93,0.07-1.38,1.33-2,1.79-3s-0.43-2.28-.09-3.47a1.64,1.64,0,0,0,0-.48,2.15,2.15,0,0,1,1.62-2.35c0.52-.16,1-0.38,1.92-0.72-4.56.24-8.74,0.21-12.79,1.41-1.59.47-1.84,1.15-.64,2.2a13.28,13.28,0,0,1,2.65,3.66C181.18,376.6,180.49,378,178.11,378.59Zm16.13-20.44a8.57,8.57,0,0,1,3.73,4.21c0.81,1.89.9,3.4-1,4.83,3.42,0.41,6-.26,7.26-3.56a1.59,1.59,0,0,1,.5-0.8c1.12-.67,1-1.46.74-2.64-0.72-2.75-.24-3.46,2.34-4.39C203.69,355.64,196.85,356.75,194.24,358.15Zm136.61-84.93a23.33,23.33,0,0,0-9.47.85c-1.29.37-1.58,0.82-1.14,2,0.37,1.05.94,2,1.39,3.05,0.62,1.42,1.23,2.85.37,4.53,0.6,0,1.07,0,1.54,0a4.73,4.73,0,0,0,3.46-1.45c0.9-1.12.65-2.86,1.5-4.15,0.2-.3-0.23-0.71-0.65-0.85s-0.64-.31-0.22-0.61C328.84,275.8,329.16,274.21,330.86,273.22Zm313.38-207a24,24,0,0,0-8.13,1.21c-1.6.46-2,1.26-1.47,2.91,0.63,1.92.89,4,3,5.25,0.67,0.4,1,1.41,2.06,1.18,0.85-.18,1.72-0.32,2.56-0.56a0.94,0.94,0,0,0,.65-0.92,0.76,0.76,0,0,0-.65-0.85,1.65,1.65,0,0,1-1.47-1c-0.5-1.28,0-2.5.13-3.75,0.15-1,.89-1.19,1.63-1.49A3.83,3.83,0,0,0,644.23,66.18ZM443.68,202a11.19,11.19,0,0,0,4.79-.45c1.26-.38,2.44-1.1,2.41-2.85a3,3,0,0,1,1-2.35,0.81,0.81,0,0,0,.2-1.25c-1.18-.93-0.53-1.57.19-2.3,0.32-.32.38-0.86-0.18-0.87a16.52,16.52,0,0,0-7.19,1.26,1.27,1.27,0,0,0-.48,2.16,6.62,6.62,0,0,1,1,2.15C446.39,200.47,446.41,200.46,443.68,202ZM626.86,77.79a17.43,17.43,0,0,0-8,1.18,1.88,1.88,0,0,0-1.12,2.74A22.6,22.6,0,0,1,619.1,86a1.53,1.53,0,0,0,1.61,1.39c2,0.22,3-.44,3.29-2.46a18.54,18.54,0,0,0,.08-3.09,1.83,1.83,0,0,1,1.2-2.07A2.1,2.1,0,0,0,626.86,77.79ZM146.45,407.55c0-.45,0-0.61,0-0.77a0.87,0.87,0,0,0-.44-1,0.84,0.84,0,0,0-1,.52,3.62,3.62,0,0,0-.33.64c-1.21,2.78-2.41,5.56-3.63,8.34-0.54,1.24-1.11,2.47-1.67,3.71a1,1,0,0,0,.08,1.3,0.85,0.85,0,0,0,1-.36,4.84,4.84,0,0,1,2.16-1.43,2.3,2.3,0,0,0,1.41-1.54A37.56,37.56,0,0,0,146.45,407.55Zm2.55-6.39c0.33-.68.54-1.19,0.81-1.67,0.5-.93,1.38-1.82.21-2.87,0.58-1.57-1.06-3.74,1.47-4.86a13.54,13.54,0,0,0-6,.86C147,395.37,147.58,398.34,149,401.16Zm5.92-12.8a4.9,4.9,0,0,0,.94-0.09,1.73,1.73,0,0,0,1.49-1c0.21-.7-0.45-1-0.84-1.3a6.47,6.47,0,0,0-2.78-1.61c-1.26-.23-3.2.67-3.3,1.81s1.14,1.3,1.95,1.66A5.12,5.12,0,0,0,154.91,388.36Zm36.27-27.9c-1-.26-2,0.25-3,0.43a0.93,0.93,0,0,0-.91.63,1.06,1.06,0,0,0,.57,1.2,7.81,7.81,0,0,0,5.51,1.09,1.17,1.17,0,0,0,.73-2A2.83,2.83,0,0,0,191.18,360.47ZM130,435.11a27.63,27.63,0,0,0,5.35-5c0.76-.88,1.83-1.53,2.12-2.79,0.12-.53.54-1.11-0.17-1.44a1,1,0,0,0-1.41.52C134,429.4,132,432.22,130,435.11ZM674.34,43.63c0-.65,0-1.53-0.73-1.55a6.08,6.08,0,0,0-3.55,1.13,1,1,0,0,0-.15,1.31,2.63,2.63,0,0,0,3,1.45C673.83,45.82,674.33,45,674.34,43.63ZM461.88,191.15c-2.84-.07-5.68-0.14-8.41.84C456.28,191.81,459.16,192.32,461.88,191.15Zm48.4-33.4v-0.19H505.9v0.19h4.38Zm-35.52,23.12a3.38,3.38,0,0,0-2.93,0h2.93ZM40.94,474.77l-0.35-.21a2,2,0,0,0,0,.38,0.24,0.24,0,0,0,.18.09C40.94,475,41,474.94,40.94,474.77Zm400.7-281.43,0.18-.11a0.41,0.41,0,0,0-.15-0.13c-0.19,0-.28.05-0.21,0.18A0.37,0.37,0,0,0,441.64,193.34ZM627.58,77.63l0.08-.09-0.13,0Zm47.2-28.87-0.13-.16a0.15,0.15,0,0,0,0,.3Z" fill="#302f43"/>
    <path d="M375.77,238.87c2.19,0,4.36-.78,6.8-0.31-0.71,1-2.15,1.07-2.43,2.33-0.16.71-.95,1.31-0.09,2.1a0.72,0.72,0,0,1-.06,1.08c-1,.66-1.06,1.64-1.17,2.7-0.14,1.42-1.25,2-2.48,2.22a51.88,51.88,0,0,1-8.07,1,11.78,11.78,0,0,0-3.27.64c-1.43.46-2,1.34-1.45,2.71,0.4,1.06.43,1.84-.62,2.45-0.57.33-.25,0.82-0.27,1.27a4.07,4.07,0,0,1-3.47,4,20.15,20.15,0,0,1-5,.54,23,23,0,0,0-5.23.56c-1.8.27-2.07,0.88-1.72,2.81,0.16,0.88.3,1.77-.69,2.32a2.82,2.82,0,0,0-1.11,1.77c-1.07,3-2.9,4-6.52,3.61,2.26-2.39.75-4.61-.22-6.8s-0.81-2.66,1.46-3.09a82.16,82.16,0,0,1,8.54-1.1c2.36-.19,4.8-0.1,7.08-0.95,2-.75,2.15-1.31,1.09-3.19-0.59-1-1.17-2.09-1.69-3.17-0.77-1.61-.58-2.16,1.06-2.69a38.87,38.87,0,0,1,6.73-1.45c2.76-.38,5.54-0.65,8.31-1a4.71,4.71,0,0,0,.94-0.14c1.93-.65,2.3-1.52,1.45-3.4-0.39-.87-0.72-1.78-1.18-2.61a3,3,0,0,1,.12-3.35Z" fill="#7675a6"/>
    <path d="M237.24,326.34c-0.18,2.06-.06,2.23,1.78,2.48,0.63,0.09,1.27.14,1.88,0.28a0.74,0.74,0,0,1,.76.75,3.2,3.2,0,0,1-1.09.85h6.28c-1.46.4-2.94,0.54-4.37,1-1.83.56-3.22,3.18-2.41,4.89a1.92,1.92,0,0,1,0,1.7c-1.41,4.26-4.88,4.8-8.59,4.88a32.26,32.26,0,0,0-6.82.87,3,3,0,0,0-1.66,4.7c0.55,0.72.42,1.12-.24,1.52a1.65,1.65,0,0,0-1,1.27c-0.27,2.59-2.13,3.33-4.33,3.64a3,3,0,0,1-1.63,0c1.26-2.42,1.26-2.42-.35-4.68a40.17,40.17,0,0,0-2.37-3.29c-0.78-.88-0.66-1.19.55-1.65a29.9,29.9,0,0,1,5.81-1.29c1.54-.26,3.09-0.49,4.64-0.73l5.31-.78c1.08,0.49,2-.2,3-0.44a1.76,1.76,0,0,0,1.2-2.88c-1-1.66-1.44-3.68-3.2-4.84-0.46-.3-0.23-0.88-0.36-1.32l1.16-.48c2.22-.47,4.45-0.93,6.67-1.43,0.59-.14,1.33.11,1.91-0.54a17.2,17.2,0,0,0-2.75-.26c-1.93-.35-4,0.13-5.83-0.83a18.86,18.86,0,0,1,5.93-4.74l0.81,0A2.41,2.41,0,0,0,237.24,326.34Z" fill="#7675a6"/>
    <path d="M47.78,477.16a0.87,0.87,0,0,1,1.22-.75,65.88,65.88,0,0,0,30.74-2.17,108.55,108.55,0,0,0,29.06-13.86c2.77-1.88,5.49-3.81,8.11-5.89A102.76,102.76,0,0,0,135,436.24c0.5-.66.8-1.6,1.77-1.83l0,0,0,1L133.26,440a1,1,0,0,0-.83,1.07,122.14,122.14,0,0,1-12.28,12.39c-8.78,7.37-18.12,13.84-28.79,18.25-11.58,4.78-23.52,7.61-36.13,6.71C52.73,478.24,50.17,478.16,47.78,477.16Z" fill="#7675a6"/>
    <path d="M415.15,212.55a35.28,35.28,0,0,1,7.43-.47c0.06,0.92-.58,1.14-0.85,1.59a4.42,4.42,0,0,0-.46.77c1.25,1.15.07,2-.26,3-0.85,2.63-2,3.6-4.69,3.69-1.44,0-2.88,0-4.31,0-2.16.14-2.6,0.64-2.42,2.81a1.15,1.15,0,0,1-.48,1.19,1.72,1.72,0,0,0-.72.91c-0.23,1.9-1.82,2.51-3.15,3.29a5.55,5.55,0,0,1-4.2.21,5.65,5.65,0,0,0-3.51.26c-1.55.61-1.87,1.26-1.39,3a1.06,1.06,0,0,1-.41,1.24,4,4,0,0,0-1.36,1.93c-0.59,1.9-2,2.56-3.82,2.55H387.9c2.44-1.33,2.51-1.5,1.66-3.89-0.32-.9-0.76-1.76-1.1-2.65-0.55-1.42-.1-2.25,1.4-2.59a34.34,34.34,0,0,1,8.34-.48c1.12,0,2.24.08,3.35,0a1.92,1.92,0,0,0,2.11-2.26,3.56,3.56,0,0,0-.42-1.84,5.81,5.81,0,0,1-.67-3.69l2-.48a52,52,0,0,1,12.48.2c-0.39-1-.19-1.78-0.44-2.36-0.32-.76,0-2-1.34-2.17a2.35,2.35,0,0,0-.19-0.32c0.2-1.16-.66-2.22-0.34-3.4A1.61,1.61,0,0,0,415.15,212.55Z" fill="#7675a6"/>
    <path d="M691.31,51.29c-2.08.84-2.08,0.84-1.89,4-0.54-1.32-1-2.67-1.64-4-0.91-1.91-1.92-2.23-3.79-1.2-1.25.69-2.41,1.54-3.67,2.23s-1.62.55-2.14-.93a7.45,7.45,0,0,1-.18-4.22,4.54,4.54,0,0,0,.14-2.1c-0.88-.22-1.06,1-1.86.86a10.43,10.43,0,0,1,5-6.76l-1.13-2.7h0c0.62,0.45,1,.41.95-0.47v0c1.12-.16,1.28-0.85,1-1.79a41.7,41.7,0,0,1,7,11.07A23.13,23.13,0,0,1,691.31,51.29Zm-9-10.38a0.3,0.3,0,0,0-.07.14c0.07,0.2.17,0.2,0.25,0a0.18,0.18,0,0,0-.06-0.14A0.24,0.24,0,0,0,682.28,40.91Zm-0.52-.61,0.18-.13a0.16,0.16,0,0,0-.32,0Z" fill="#7675a6"/>
    <path d="M591.29,100.19c3,0.11,6-.67,9-0.93a2.09,2.09,0,0,0,1.56-2.76c-0.25-1.08-.63-2.14-0.94-3.21-0.4-1.34,0-2.54,1.3-2.85,3.36-.79,6.7-1.87,10.29-1.42-1.68.42-2.63,2-4.27,2.48a1.31,1.31,0,0,0-.95,1.48c0,0.48,0,1,0,1.44,0,3.29-1.73,5.11-5.12,5.31-2.64.16-5.23,0.58-7.83,1-1,.16-1.91.27-2.13,1.51a1.51,1.51,0,0,1-1.17,1.09c-1,.34-1.15,1.14-1.16,2.09-0.06,4.62-2.22,5.5-5.77,5.51-0.32,0-.63,0-1.28-0.09,2.46-1.81,1.76-3.8.65-5.72a5.1,5.1,0,0,1-.81-2.92,17.73,17.73,0,0,1,4.51-1.29C588.53,100.6,589.92,100.43,591.29,100.19Z" fill="#7675a6"/>
    <path d="M249.57,320.61c1.69,0.15,3.28-.47,4.92-0.68a44.19,44.19,0,0,1,6.26-.27,8.77,8.77,0,0,0-2.72,4,0.56,0.56,0,0,0,.16.64c1.57,1,.78,1.74-0.18,2.53a1.67,1.67,0,0,0-.69,1.22c0,1.69-1.23,2-2.52,2.34a17.47,17.47,0,0,1-4.51.18c0.52-.48,1.69,0,1.74-1.21a3.43,3.43,0,0,0-1.9-3.51,1.42,1.42,0,0,0-.51-0.92,1.62,1.62,0,0,0-.55-2.08c-1.22-.79-0.72-1.52.08-2.24l0.22,0Z" fill="#7675a6"/>
    <path d="M550,119.84c0.63,0.56,1.1,1.32,2.17,1.22a1.35,1.35,0,0,1,1.57.81c0.23,0.8-.86.83-1,1.47,0.29,0.72.93,0.41,1.43,0.45,0.68,0.06,1.57-.19,1.7.83,0.1,0.8.52,1.73-.69,2.23-1.44.6-1.22,1.92-1.09,3.09a4.06,4.06,0,0,1-2.31,4.32,6.59,6.59,0,0,1-4,.45c1.31-.66,1.69-1.59,1.14-3.13-0.42-1.19-1-2.32-1.46-3.51-0.77-2.06-.33-2.8,1.78-3.51,0.86-.29,1.9,0,2.77-0.79a3,3,0,0,0-3-.63c-0.81.18-1.71,0.58-2.43-.29A22,22,0,0,1,550,119.84Z" fill="#7675a6"/>
    <path d="M495.36,159.36c3-.55,5.95-1.62,9.12-1.37-0.24.59-1.3,0.73-1,1.45,0.67,1.49.19,2.46-1,3.44a3.15,3.15,0,0,0-.77,2.45c0,2.1-1.26,2.94-3,3.4a12.7,12.7,0,0,1-4.33.19c2.8-1.79,2.81-1.79,1.42-5.05a28.78,28.78,0,0,1-1.13-4.1Z" fill="#7675a6"/>
    <path d="M431.45,202.4a44.6,44.6,0,0,1,6.15-.41,1,1,0,0,1,.37.24,2.26,2.26,0,0,1-1.05,1.17c-0.55.57-.91,1.13-0.29,1.86a1,1,0,0,1,.16,1.5,9.55,9.55,0,0,0-2.06,3.41A3.26,3.26,0,0,1,432.1,212a17.4,17.4,0,0,1-4.6.09c3.49-2.13,3.3-1.2,1.81-5.38-0.44-1.24-.95-2.32-0.59-3.62Z" fill="#7675a6"/>
    <path d="M568.23,112.22a26.33,26.33,0,0,1,5.36-.4l0,0c0.59,2,.62,2-0.91,3.07a1.73,1.73,0,0,0-.85,1.57c0,0.4,0,.79-0.05,1.19-0.08,3.11-1.53,4.7-4.66,5.05a21.53,21.53,0,0,1-2.28,0c0.62-.79,1.82-1,2-2.1a5.4,5.4,0,0,0-.75-3c-0.67-1.42-1.34-2.85-.78-4.48,0.32-.7,1.32-0.16,1.62-0.89l-0.07,0Z" fill="#7675a6"/>
    <path d="M462.66,181.83c1.54,0.05,3-.57,4.44-0.77,1-.13,2-0.17,3.29-0.27-0.66,1.11-1.79.95-2.27,1.69,1.77,1.22,1.81,1.26.31,2.82a3,3,0,0,0-.71,2.19,4.43,4.43,0,0,1-4,3.7,0.92,0.92,0,0,1-1.11-1.14,9.73,9.73,0,0,0-1.29-6,2.76,2.76,0,0,1,0-1.64A1.77,1.77,0,0,1,462.66,181.83Z" fill="#7675a6"/>
    <path d="M360,245.79c-0.37,1.11.39,1.41,1.2,1.58a17.05,17.05,0,0,1,3.4.74,3.83,3.83,0,0,1-2.9,1.35,35.26,35.26,0,0,0-3.75.46,3.87,3.87,0,0,1-3.54-.66c1.41-2.32,3.74-3.62,5.84-5.5C360.53,244.68,359.93,245.19,360,245.79Z" fill="#7675a6"/>
    <path d="M149.28,384l-0.16.18c-2.35,2.71-2,4,1.29,5.08a1.19,1.19,0,0,1,1,.71,6.4,6.4,0,0,1-5.11.94,16.12,16.12,0,0,0-3.05-.37c-0.83-.7-1.23-1.36-0.16-2.26C145,386.65,146.89,384.93,149.28,384Z" fill="#7675a6"/>
    <path d="M661.3,17.93l-0.82,1.94-0.93,0c-0.08-1.15-1-.77-1.62-0.84a48.7,48.7,0,0,0-10.47-.24A13.91,13.91,0,0,1,661.3,17.93Z" fill="#7675a6"/>
    <path d="M224.11,342.67c-2.76.68-5.52,0-8.28,0-0.78,0-1.67.16-1.84-1,2-1.95,3.61-4.33,6.78-5.32L220,337.73c-1.12,1.42-1.09,2,0,2.88a4,4,0,0,0,2.68.78c0.82,0,1.64.07,1.75,1.16A1.43,1.43,0,0,0,224.11,342.67Z" fill="#7675a6"/>
    <path d="M290.89,289.83a12.11,12.11,0,0,0-.55,1.31,1.71,1.71,0,0,0,1.21,2.4c1.17,0.48,2.48.25,3.93,0.71a4.22,4.22,0,0,1-4.21,1.26,10,10,0,0,0-4-.07,1.9,1.9,0,0,1-2.29-.78A21.32,21.32,0,0,1,290.89,289.83Z" fill="#7675a6"/>
    <path d="M200.17,355.2c-0.44-.66-1.12-0.41-1.72-0.48-0.76-.09-1.61.2-2.21-0.53,1.41-1.89,3.42-3,5.33-4.32,0.08,2.7.66,3.25,3.52,3.52,0.73,0.07,2-.27,2,0.75s-1.28.91-2.11,0.94c-1.6.06-3.19,0.07-4.79,0.09Z" fill="#7675a6"/>
    <path d="M183.85,361.18c-0.34,2.74.12,3.33,2.87,3.72,0.79,0.11,2.1-.07,2,1s-1.39.74-2.22,0.84a3.4,3.4,0,0,1-1.65,0c-1.53-.65-3.12-0.47-4.7-0.51-0.78,0-1.61.18-2.25-.48A23.76,23.76,0,0,1,183.85,361.18Z" fill="#7675a6"/>
    <path d="M342.69,256.54c-0.26,1.94-.17,2.15,1.45,2.51,0.84,0.19,1.72.2,2.59,0.31a0.71,0.71,0,0,1,.68.8,0.69,0.69,0,0,1-.5.73c-2.95.41-5.9,0.75-8.84-.08a1.44,1.44,0,0,1-.18-0.66A20.85,20.85,0,0,1,342.69,256.54Z" fill="#7675a6"/>
    <path d="M20.09,453.64c0.39-1.41-.08-2.83.08-4.25,0-.4.07-0.84,0.58-0.87a0.77,0.77,0,0,1,.69.57,33,33,0,0,0,3.46,6.17,3.19,3.19,0,0,1,.43.84c0.24,0.89-.21,1.45-1.12,1.24a9.49,9.49,0,0,0-3-.43C21.23,455.68,19.7,455,20.09,453.64Z" fill="#7675a6"/>
    <path d="M307.68,278.34c-0.72,2.66-.36,3.17,2.42,3.48,0.75,0.08,2-.18,2,0.79s-1.29.88-2.11,0.9c-2.7.05-5.38-.59-8.1-0.31C303.25,280.92,305.49,279.66,307.68,278.34Z" fill="#7675a6"/>
    <path d="M278.14,305.69A2,2,0,0,1,276,307.5a13.63,13.63,0,0,1-3.58,0,23.83,23.83,0,0,0-5.24-.27c0.54-1.54,2.1-2,3.17-3a21.52,21.52,0,0,1,2.29-1.62c-0.14,2.38.34,3,2.61,3.14a3.93,3.93,0,0,0,2.31-.2Z" fill="#7675a6"/>
    <path d="M254.81,313.52c-0.06,2.77.22,3.09,3,3.44,0.76,0.1,1.94,0,2,.8,0.1,1.12-1.23,1-2,1.25a1.53,1.53,0,0,1-1.16,0c-1.76-1-3.68-.71-5.56-0.76a0.87,0.87,0,0,1-1-1Z" fill="#7675a6"/>
    <path d="M165.6,372.93c-0.41,2.73,0,3.36,2.75,3.86a2.51,2.51,0,0,1,1.93.9,0.77,0.77,0,0,1-.86.53c-2.81.4-5.53-.61-8.33-0.47a0.92,0.92,0,0,1-.83-1C161.89,375.28,163.32,373.51,165.6,372.93Z" fill="#7675a6"/>
    <path d="M415.29,216.39c1.37,0.13,1,1.41,1.34,2.17,0.25,0.58.05,1.37,0.44,2.36a52,52,0,0,0-12.48-.2l0.1-.69a2.44,2.44,0,0,1,1.79-.28,2,2,0,0,0,2.12-1.41,22.34,22.34,0,0,1,4.19,0A2.22,2.22,0,0,0,415.29,216.39Z" fill="#302f43"/>
    <path d="M230,333.22c0.13,0.44-.11,1,0.36,1.32,1.77,1.15,2.22,3.18,3.2,4.84a1.76,1.76,0,0,1-1.2,2.88c-1,.24-1.88.93-3,0.44-0.35-1.26.7-1.68,1.45-2.13,1-.64.94-1.33,0.4-2.15a3.88,3.88,0,0,0-2.06-1.84,1.44,1.44,0,0,1-1.2-1.93C228.28,333.74,228.75,332.84,230,333.22Z" fill="#302f43"/>
    <path d="M481.44,165a1.63,1.63,0,0,0,1.68,2.05c0.24,0,.48,0,0.71.05,0.64,0.11,1.6-.24,1.72.75s-0.93.87-1.49,1.21a1,1,0,0,0-.21.39l0,0c-1.94.09-3.86-.66-5.81-0.15-0.6.15-.81-0.33-1-0.79A26,26,0,0,1,481.44,165Z" fill="#7675a6"/>
    <path d="M498.73,153.46c-0.37,1.08-.07,1.7,1.16,1.71a12.27,12.27,0,0,1,1.67.1,0.83,0.83,0,0,1,.79.75,0.76,0.76,0,0,1-.59.91c-1.1.11-2.13,1.08-3.32,0.22a1.89,1.89,0,0,0-1.63,0,9.81,9.81,0,0,1-3.08.29A15.67,15.67,0,0,1,498.73,153.46Z" fill="#7675a6"/>
    <path d="M464.13,176.59a2.31,2.31,0,0,0,2.67,1.66c0.82,0,2-.12,2,1.1s-1.31,1.12-2.09,1c-2.14-.38-4.33.17-6.45-0.38A21.64,21.64,0,0,1,464.13,176.59Z" fill="#7675a6"/>
    <path d="M377.23,233c-1.42,1.73-1.2,2.6.82,3.11,0.46,0.12.95,0.11,1.42,0.18s0.86,0.08.88,0.6-0.53.7-1,.77a3,3,0,0,1-.71,0,19.72,19.72,0,0,0-5.67-.13,0.85,0.85,0,0,1-1.07-.95C373.49,235.11,375,233.54,377.23,233Z" fill="#7675a6"/>
    <path d="M533.27,131.12c-0.27,1.28.1,2,1.55,1.85a10,10,0,0,1,1.66.06,0.77,0.77,0,0,1,.86.63,1,1,0,0,1-.47,1,3.29,3.29,0,0,1-1.32.49,33.63,33.63,0,0,0-5.63.12c-0.48.09-.48-0.5-0.5-0.89Z" fill="#7675a6"/>
    <path d="M408.59,218.34a2,2,0,0,1-2.12,1.41,2.44,2.44,0,0,0-1.79.28l-3.88.25a1,1,0,0,0-.41-0.88,12.89,12.89,0,0,1,4.25-3.53,0.24,0.24,0,0,0,.42,0l-0.3,1c-0.31.9-.05,1.25,0.9,0.95l1.37,0.09a0.62,0.62,0,0,0,1.09.25Z" fill="#7675a6"/>
    <path d="M447.34,187.17c0.54,1,1.11,1.9,2.48,1.61a1.61,1.61,0,0,1,.47,0c0.67,0.07,1.33.25,1.28,1.07a1.15,1.15,0,0,1-1.24.89,4,4,0,0,1-1.65.08c-1.8-.49-3.62-0.16-5.42-0.28C444.14,188.85,446,188.35,447.34,187.17Z" fill="#7675a6"/>
    <path d="M391.18,224.13a1.75,1.75,0,0,0,1.65,2.31c0.47,0.08.95,0.12,1.41,0.21a0.45,0.45,0,0,1,.47.43,0.88,0.88,0,0,1-.3.58,3.37,3.37,0,0,1-2.27.56c-0.59-.06-1.37.63-1.86-0.49-0.23-.53-1.15-0.1-1.76,0a0.87,0.87,0,0,1-1.22-.74A14.79,14.79,0,0,1,391.18,224.13Z" fill="#7675a6"/>
    <path d="M324.45,268.51a1.85,1.85,0,0,0,1.89,1.77c1,0.08,2,.3,3.06.47a1.21,1.21,0,0,1-1.63,1.43c-2.35-.62-4.73-0.37-7.09-0.53a1.34,1.34,0,0,1-.51-0.44,18.1,18.1,0,0,1,3.26-2.62A0.74,0.74,0,0,1,324.45,268.51Z" fill="#7675a6"/>
    <path d="M231.17,329.67c1.84,1,3.9.48,5.83,0.83a17.2,17.2,0,0,1,2.75.26c-0.58.66-1.32,0.41-1.91,0.54-2.22.51-4.45,1-6.67,1.43-0.1-.54-0.47-0.53-0.88-0.44s-1,.6-1.64.08A4.81,4.81,0,0,1,231.17,329.67Z" fill="#302f43"/>
    <path d="M637,62.8c0.61,1.47,2,.26,3,0.93,0,1.28-.75,2.3-1.86,2.11-1.79-.3-3.43.61-5.16,0.22A14.53,14.53,0,0,1,637,62.8Z" fill="#7675a6"/>
    <path d="M418.09,207.37c-1.12,1.31-1.05,1.87.33,2.23,0.6,0.16,1.25.16,1.87,0.27a0.42,0.42,0,0,1,.44.44,0.94,0.94,0,0,1-.36.53,3.37,3.37,0,0,1-1.61.27c-1.57.19-3.09-.48-4.67-0.22-0.31.05-.39-0.44-0.48-0.73,1-1.38,2.51-2.18,3.59-3.45a0.66,0.66,0,0,1,1.12,0A1.34,1.34,0,0,1,418.09,207.37Z" fill="#7675a6"/>
    <path d="M431,197.49a2.28,2.28,0,0,0,2.6,2.17,1.55,1.55,0,0,1,.9.21c0.5,0.35.48,0.92,0,1.11a5.57,5.57,0,0,1-2.55.43,30.89,30.89,0,0,0-4.23-.31,1.32,1.32,0,0,1-.51-0.44A21.8,21.8,0,0,1,431,197.49Z" fill="#7675a6"/>
    <path d="M602.84,85.85c1,1,2.41.44,3.68,0.77-0.13,1.43-.77,2.15-2.24,2.08a10.49,10.49,0,0,0-3.74.41,0.9,0.9,0,0,1-1-.33A17.35,17.35,0,0,1,602.84,85.85Z" fill="#7675a6"/>
    <path d="M620.64,73.83c-0.15,1.06.58,1.11,1.33,1.16a0.86,0.86,0,0,1,1,.49,1.2,1.2,0,0,1-.55,1.2,1.91,1.91,0,0,1-1.51.55,42,42,0,0,0-4.67.53A11.47,11.47,0,0,1,620.64,73.83Z" fill="#7675a6"/>
    <path d="M586.08,96.48c0.54,1,1.47,1,2.44,1.05a0.76,0.76,0,0,1,.56.32,0.61,0.61,0,0,1-.31.8,3.7,3.7,0,0,1-1.74.68l-4.91.51A16.05,16.05,0,0,1,586.08,96.48Z" fill="#7675a6"/>
    <path d="M516,142.48a1.11,1.11,0,0,0,1,1.51,3,3,0,0,1,2.12.84c-0.07.72-.62,0.65-1.07,0.69-1.5.15-3,.3-4.51,0.42a1.18,1.18,0,0,1-1.44-.52A24.5,24.5,0,0,1,516,142.48Z" fill="#7675a6"/>
    <path d="M568.3,108.2c0.49,1.1,1.49.58,2.27,0.72,0.37,0.07.84,0,.94,0.5a0.73,0.73,0,0,1-.61.88c-2.1.21-4.12,0.95-6.25,0.85a0.87,0.87,0,0,1-.31-0.33C565.6,109.85,566.46,108.29,568.3,108.2Z" fill="#7675a6"/>
    <path d="M224.49,342.55c-0.11-1.1-.93-1.15-1.75-1.16a4,4,0,0,1-2.68-.78c-1.11-.92-1.14-1.46,0-2.88a4.24,4.24,0,0,0,3.25,2.46l1.84,0.46c0.73,0.18,2,.1,1.71,1.14S225.51,343,224.49,342.55Z" fill="#302f43"/>
    <path d="M277.56,305.53a3.93,3.93,0,0,1-2.31.2c-2.27-.15-2.75-0.76-2.61-3.14,1-.76,1.13-0.76,1.15.17a1,1,0,0,0,.69,1C275.55,304.29,276.87,304.38,277.56,305.53Z" fill="#302f43"/>
    <path d="M414.76,212.68c-0.32,1.18.54,2.23,0.34,3.4a1.46,1.46,0,0,1-1.4-.71c-0.48-.5-1.25-1-0.9-1.78A1.55,1.55,0,0,1,414.76,212.68Z" fill="#302f43"/>
    <path d="M136.82,434.42a8.87,8.87,0,0,1,2.91-4.33c0,1.6-1.4,2.51-2,3.83l-1,.47Z" fill="#7675a6"/>
    <path d="M140.17,429.16a2.87,2.87,0,0,1,1.48-2.44A2.29,2.29,0,0,1,140.17,429.16Z" fill="#7675a6"/>
    <path d="M504.5,150.26a1.72,1.72,0,0,1,1.66-.86,1.62,1.62,0,0,1-1.69.83Z" fill="#302f43"/>
    <path d="M400.39,219.4a1,1,0,0,1,.41.88c-0.26.76-1,.78-1.23,0.31A1,1,0,0,1,400.39,219.4Z" fill="#302f43"/>
    <path d="M519.38,140.66a2,2,0,0,1,.25-0.59c0.2-.23.57-0.42,0.76-0.15s-0.17.48-.4,0.59a2.35,2.35,0,0,1-.65.11Z" fill="#302f43"/>
    <path d="M136.78,434.38l1-.47a1.22,1.22,0,0,1-.93,1.46Z" fill="#302f43"/>
    <path d="M237.91,325l-0.81,0a1,1,0,0,1,.62-0.65c0.28-.15.68-0.33,0.8,0S238.44,325,237.91,325Z" fill="#302f43"/>
    <path d="M132.43,441.08a1,1,0,0,1,.83-1.07A0.8,0.8,0,0,1,132.43,441.08Z" fill="#302f43"/>
    <path d="M408.13,218.16a0.62,0.62,0,0,1-1.09-.25C407.61,217.09,407.91,217.45,408.13,218.16Z" fill="#302f43"/>
    <path d="M405.67,217.83c-1,.31-1.21,0-0.9-0.95A0.74,0.74,0,0,1,405.67,217.83Z" fill="#302f43"/>
    <path d="M141.61,426.76c0.06-.35-0.05-0.94.62-0.47C142.08,426.53,142,426.91,141.61,426.76Z" fill="#7675a6"/>
    <path d="M139.69,430.12a0.86,0.86,0,0,1,.51-1C140.42,429.64,140.38,430,139.69,430.12Z" fill="#7675a6"/>
    <path d="M379.82,231.67a0.4,0.4,0,0,1-.18.06c-0.2,0-.22-0.14-0.05-0.24a0.23,0.23,0,0,1,.19,0A0.29,0.29,0,0,1,379.82,231.67Z" fill="#302f43"/>
    <path d="M502.56,151.21a1,1,0,0,1,1-.48l0,0a0.88,0.88,0,0,1-1,.48Z" fill="#302f43"/>
    <path d="M503.52,150.73a1,1,0,0,1,1-.47l0,0a1,1,0,0,1-1,.47Z" fill="#302f43"/>
    <path d="M507.54,149.07a0.49,0.49,0,0,1-.19.07,0.47,0.47,0,0,1-.17-0.11A0.22,0.22,0,0,1,507.54,149.07Z" fill="#302f43"/>
    <path d="M393.05,223.13a2,2,0,0,1,.29-0.25c0.34,0.27,0,.3-0.15.39Z" fill="#302f43"/>
    <path d="M166.08,372.47l-0.51.5A0.56,0.56,0,0,1,166.08,372.47Z" fill="#7675a6"/>
    <path d="M562.72,113c-0.15.17-.32,0.32-0.5,0.06a1.28,1.28,0,0,1,.24-0.31Z" fill="#302f43"/>
    <polygon points="405.68 215.3 405.87 215.23 405.86 215.38 405.68 215.3" fill="#302f43"/>
    <path d="M404.64,215.87a0.29,0.29,0,0,1,.44-0.29c0.2,0.08.18,0.21,0,.29A0.24,0.24,0,0,1,404.64,215.87Z" fill="#302f43"/>
    <polygon points="141.5 389.54 141.33 389.59 141.35 389.46 141.5 389.54" fill="#302f43"/>
    <path d="M425.92,202.72c-0.15.17-.32,0.34-0.5,0.06a1.15,1.15,0,0,1,.24-0.32Z" fill="#302f43"/>
    <path d="M121.33,385a19.2,19.2,0,0,1,3.34.3c2.26,0.3,2.94,1.5,1.9,3.57-0.78,1.55-1.83,2.94-2.6,4.51-0.54,1.11-.51,1.86.58,2.34,2.15,0.94,3.67,3.13,6.29,3.13a0.52,0.52,0,0,1,.58.6,0.53,0.53,0,0,1-.44.48,10,10,0,0,1-2.57.5c-6-.36-11.85.72-17.8,0.66a45.08,45.08,0,0,0-6.38.87c-2.83.38-5.68,0.47-8.51,0.81A92.67,92.67,0,0,0,84,404.87a24.14,24.14,0,0,0-5.32,2c-2.67,1.41-5.45,2.64-8.15,4-4,2.05-7.81,4.48-11.67,6.79a120.06,120.06,0,0,0-10,7.13,139.93,139.93,0,0,0-13.66,12.26A44.69,44.69,0,0,0,30,442.44a4.91,4.91,0,0,0-1.17,3c0,1.63-.73,2.08-2.28,1.57a17.18,17.18,0,0,1-2.44-1c-1.42-.73-1.79-2-0.72-3.1,2.11-2.27,2.21-4.94,2-7.76-0.06-.71,0-1.44,0-2.16,0-.56.12-1.26-0.42-1.55-1.44-.77-0.81-1.66-0.25-2.56a30.94,30.94,0,0,1,3.56-4.81,110,110,0,0,1,24.84-19.79,135.09,135.09,0,0,1,37.51-14.76,207.67,207.67,0,0,1,21.22-3.64C115,385.52,118.16,385.31,121.33,385Z" fill="#7675a6"/>
    <path d="M70.7,468.76c-0.83-.43-1.56.1-2.3,0.28-6.42,1.56-12.82,1.18-19.22-.13a4.17,4.17,0,0,1-.9-0.31c-0.43-.2-0.85-0.44-1.45-0.76,1.32-.89,2.49-1.77,3.74-2.5a4.58,4.58,0,0,1,3.48-.5,42.75,42.75,0,0,0,11.66.84,26,26,0,0,0,13-3.55c5.38-3.24,11-6.12,16.08-9.83a148.34,148.34,0,0,0,12.88-9.85,128,128,0,0,0,14-15.53,71.62,71.62,0,0,0,6.47-10.48c0.45-.83,1.41-1.22,1.68-2.25a1,1,0,0,1,1.45-.47c2.06,0.91,4.27.83,6.44,0.94,0.94,0,1.15.48,0.9,1.21a10.91,10.91,0,0,1-1.15,2.62c-4.84,7.14-9.87,14.13-16.45,19.82-5,4.33-10.08,8.56-15.35,12.56A125,125,0,0,1,89,461.58c-1.07.57-2.58,0.44-3.17,1.84l-0.81.31a10.48,10.48,0,0,0-5.06,2l-5.9,2a2.19,2.19,0,0,0-2.51.84Z" fill="#7675a6"/>
    <path d="M286.49,297.53a0.76,0.76,0,0,0,1.08-.34l1.3-.17c4.5-.58,9-1.14,13.5-1.75,1.9-.26,3.17-1.1,1.92-3.68a29.27,29.27,0,0,1-1.78-3.88c-0.42-1.32.05-1.82,1.09-2.12a29.9,29.9,0,0,1,5.09-1.23,41.91,41.91,0,0,1,8.41-.51c-1.22.28-2.15,0.45-3,.71-2.66.77-3.19,1.76-2.39,4.49a0.84,0.84,0,0,1,0,.89,7.1,7.1,0,0,0-1.9,3.46,3.09,3.09,0,0,1-2.5,1.67,22.22,22.22,0,0,1-6.13,1,22.43,22.43,0,0,0-5,.64c-2,.35-2.68,1.68-1.68,3.5,0.54,1,.64,1.59-0.38,2.14a2.11,2.11,0,0,0-1,1.75,3.77,3.77,0,0,1-3.11,3.23,21.75,21.75,0,0,1-6.15.76,23.5,23.5,0,0,0-5.22.57,2.67,2.67,0,0,0-2,3.73c0.19,0.46.55,1,.12,1.28-1.25.72-1.16,2-1.52,3.09a3.5,3.5,0,0,1-3,2.43,14.1,14.1,0,0,1-5.27.32c1.59-.35,2.54-0.87,3-2.09s-0.21-2.31-.77-3.36c-0.45-.85-0.91-1.68-1.35-2.53-0.75-1.44-.68-1.68,1-2.1a40.76,40.76,0,0,1,7.08-1.16c2.7-.18,5.41-0.34,8.12-0.51a6.16,6.16,0,0,0,.72-0.06c3.15-.57,3.49-1.46,2.11-4.35-0.8-1.67-2.24-3.19-1.72-5.31Z" fill="#7675a6"/>
    <path d="M511.43,157.38c3.07-1.65,3.26-2.36,1.72-5.62-0.17-.36-0.47-0.65-0.65-1-0.63-1.19-.39-2,0.89-2.42a23.83,23.83,0,0,1,4-.9c3.79-.54,7.59-1,11.38-1.5,2.3-.3,2.83-1.1,2.37-3.33a11.57,11.57,0,0,0-1-3.4c-0.44-.8-0.24-1.57.9-2a29.21,29.21,0,0,1,6.71-1.67,25.32,25.32,0,0,1,7.48-.46c-1,.23-2,0.51-3,0.62-1.65.18-3.23,0.34-3.58,2.43a1.25,1.25,0,0,1-.65.66c-1.17.63-1.3,1.67-1.32,2.86,0,2.69-1,4-3.64,4.44-3.22.57-6.48,0.88-9.72,1.28-1.78.22-1.79,0.19-1.81,2.12a0.8,0.8,0,0,1-.25.85c-1.73.63-1.49,2.27-1.84,3.58-0.68,2.48-1.48,3.25-4.07,3.47C514.15,157.46,512.94,157.38,511.43,157.38Z" fill="#7675a6"/>
    <path d="M174.61,378.94c-1.15.27-2.35,0.27-3.48,0.65a2.22,2.22,0,0,0-1.85,2.17c0,1.17-.61,2.33,0,3.51a1.15,1.15,0,0,1-.09,1.15c-1.4,2.06-2.94,3.84-5.61,4.39-2.44.49-4.9,0.53-7.35,0.79a18.64,18.64,0,0,1-3.59-.09c2-.37,4.06-0.7,6.07-1.13a17.08,17.08,0,0,0,2.49-.83,1.3,1.3,0,0,0,.83-2.07c-1-1.66-1.65-3.63-3.61-4.61-1-.49-0.88-1.4.11-2a7.69,7.69,0,0,1,1.82-.45A38.06,38.06,0,0,1,174.61,378.94Z" fill="#7675a6"/>
    <path d="M669.11,52.8c0-.7.1-1.31,1-1.31,2.12,0,2.12,0,3.66-1.55,0.23,1.33-.72,2.07-1.08,3-0.69,1.83-2.12,2.36-3.9,2.37s-3.51,0-5.27.06a5.49,5.49,0,0,0-3.78,1.21,2.44,2.44,0,0,1-1.26.62,1.15,1.15,0,0,0-1.17,1.24,1.51,1.51,0,0,0,1.33,1.19c0.8,0.29,2.19,0,1.79,1.58s0.22,3.76-2.28,4.19a13.7,13.7,0,0,1-4.8.23c-0.1-.57.84-0.64,0.69-1.25a1.29,1.29,0,0,0-1.07-.84,1.47,1.47,0,0,1-1.17-1.77,3.93,3.93,0,0,0-.89-2.42c-0.85-1.47-.7-2,0.88-2.41,3.77-1,7.47-2.32,11.46-2.27,1.11,0,2.22-.22,3.34-0.26s2.06,0,1.89-1.52c0,0,.43-0.07.66-0.1,0.13,0.14-.16.61,0.31,0.45A0.55,0.55,0,0,0,669.11,52.8Z" fill="#7675a6"/>
    <path d="M178.11,378.59c2.38-.61,3.07-2,1.93-4a13.28,13.28,0,0,0-2.65-3.66c-1.2-1.06-.95-1.73.64-2.2,4.06-1.21,8.23-1.18,12.79-1.41-0.9.34-1.4,0.56-1.92,0.72a2.15,2.15,0,0,0-1.62,2.35,1.64,1.64,0,0,1,0,.48c-0.34,1.18.55,2.43,0.09,3.47s-1.71,1.61-1.79,3c0,0.58-.7.75-1.27,0.93A18.33,18.33,0,0,1,178.11,378.59Z" fill="#7675a6"/>
    <path d="M194.24,358.15c2.61-1.4,9.45-2.51,13.6-2.34-2.59.93-3.06,1.64-2.34,4.39,0.31,1.18.38,2-.74,2.64a1.59,1.59,0,0,0-.5.8c-1.26,3.3-3.84,4-7.26,3.56,1.87-1.42,1.79-2.94,1-4.83A8.57,8.57,0,0,0,194.24,358.15Z" fill="#7675a6"/>
    <path d="M483.85,169.44h3.54c-1.09.84-2.16,1.41-1,2.6a0.91,0.91,0,0,1-.32,1.57c-1.53.45-1.25,1.6-1.26,2.7a3.93,3.93,0,0,1-4,4.12c-0.95.08-1-.41-0.94-1,0.09-2.14-1.11-3.83-1.89-5.68-0.67-1.61-.32-2.54,1.34-3.13a25.32,25.32,0,0,1,3.24-.76,1.61,1.61,0,0,0,1.28-.48Z" fill="#7675a6"/>
    <path d="M330.86,273.22c-1.7,1-2,2.58-3.23,3.42-0.43.3-.1,0.5,0.22,0.61s0.85,0.56.65,0.85c-0.85,1.29-.6,3-1.5,4.15a4.73,4.73,0,0,1-3.46,1.45c-0.47,0-.94,0-1.54,0,0.86-1.68.26-3.11-.37-4.53-0.45-1-1-2-1.39-3.05-0.43-1.23-.14-1.67,1.14-2A23.33,23.33,0,0,1,330.86,273.22Z" fill="#7675a6"/>
    <path d="M644.23,66.18a3.83,3.83,0,0,1-1.74,2c-0.74.3-1.48,0.48-1.63,1.49-0.18,1.25-.64,2.47-0.13,3.75a1.65,1.65,0,0,0,1.47,1,0.76,0.76,0,0,1,.65.85,0.94,0.94,0,0,1-.65.92c-0.84.24-1.7,0.38-2.56,0.56-1.07.23-1.39-.78-2.06-1.18-2.07-1.23-2.33-3.33-3-5.25-0.54-1.65-.13-2.45,1.47-2.91A24,24,0,0,1,644.23,66.18Z" fill="#7675a6"/>
    <path d="M443.68,202c2.73-1.53,2.71-1.52,1.76-4.5a6.62,6.62,0,0,0-1-2.15,1.27,1.27,0,0,1,.48-2.16,16.52,16.52,0,0,1,7.19-1.26c0.56,0,.5.55,0.18,0.87-0.73.73-1.37,1.37-.19,2.3a0.81,0.81,0,0,1-.2,1.25,3,3,0,0,0-1,2.35c0,1.75-1.15,2.46-2.41,2.85A11.19,11.19,0,0,1,443.68,202Z" fill="#7675a6"/>
    <path d="M626.86,77.79a2.1,2.1,0,0,1-1.57,2,1.83,1.83,0,0,0-1.2,2.07A18.54,18.54,0,0,1,624,85c-0.29,2-1.29,2.69-3.29,2.46A1.53,1.53,0,0,1,619.1,86a22.6,22.6,0,0,0-1.33-4.31A1.88,1.88,0,0,1,618.9,79,17.43,17.43,0,0,1,626.86,77.79Z" fill="#7675a6"/>
    <path d="M70.7,468.76l0.83-.19a1.89,1.89,0,0,0,2.51-.84l5.9-2c1.82,0.57,3.28-.56,4.86-1.09a1.88,1.88,0,0,0,.2-0.87l0.81-.31c1.09,0.41,2-.31,3-0.5,0.61-.12,1.19-0.44,1.86.33a55.86,55.86,0,0,1-21.3,7.64C69.31,469.68,70.91,469.82,70.7,468.76Z" fill="#fff"/>
    <path d="M146.45,407.55a37.56,37.56,0,0,1-2.33,9.42,2.3,2.3,0,0,1-1.41,1.54,4.84,4.84,0,0,0-2.16,1.43,0.85,0.85,0,0,1-1,.36,1,1,0,0,1-.08-1.3c0.55-1.24,1.12-2.47,1.67-3.71,1.21-2.78,2.42-5.56,3.63-8.34a3.62,3.62,0,0,1,.33-0.64,0.84,0.84,0,0,1,1-.52,0.87,0.87,0,0,1,.44,1C146.46,406.95,146.45,407.11,146.45,407.55Z" fill="#fff"/>
    <path d="M149,401.16c-1.41-2.83-2-5.8-3.5-8.53a13.54,13.54,0,0,1,6-.86c-2.53,1.12-.9,3.28-1.47,4.86,1.18,1,.3,1.94-0.21,2.87C149.54,400,149.32,400.49,149,401.16Z" fill="#7675a6"/>
    <path d="M641.74,59.54c1.82-.09,3.21-1.28,4.82-1.9,0.71-.27,1.32-0.87,2.17-0.67,0.21,0.58-.26.7-0.57,0.85a1.06,1.06,0,0,0-.59,1.67c0.77,1.83-.08,3-2.15,2.94a15.44,15.44,0,0,1-3.26-.55c-1.22-.3-1.28-0.64-0.52-1.93a1.92,1.92,0,0,0,.13-0.45Z" fill="#fff"/>
    <path d="M154.91,388.36a5.12,5.12,0,0,1-2.53-.52c-0.81-.35-2.06-0.39-1.95-1.66s2-2,3.3-1.81a6.47,6.47,0,0,1,2.78,1.61c0.39,0.3,1,.59.84,1.3a1.73,1.73,0,0,1-1.49,1A4.9,4.9,0,0,1,154.91,388.36Z" fill="#fff"/>
    <path d="M191.18,360.47a2.83,2.83,0,0,1,2.89,1.35,1.17,1.17,0,0,1-.73,2,7.81,7.81,0,0,1-5.51-1.09,1.06,1.06,0,0,1-.57-1.2,0.93,0.93,0,0,1,.91-0.63C189.18,360.71,190.14,360.2,191.18,360.47Z" fill="#fff"/>
    <path d="M130,435.11c2-2.9,4.07-5.71,5.89-8.68a1,1,0,0,1,1.41-.52c0.71,0.33.29,0.91,0.17,1.44-0.3,1.26-1.36,1.91-2.12,2.79A27.63,27.63,0,0,1,130,435.11Z" fill="#7675a6"/>
    <path d="M674.34,43.63c0,1.4-.5,2.19-1.48,2.34a2.63,2.63,0,0,1-3-1.45,1,1,0,0,1,.15-1.31,6.08,6.08,0,0,1,3.55-1.13C674.33,42.09,674.35,43,674.34,43.63Z" fill="#fff"/>
    <path d="M654,53.26a1.18,1.18,0,0,0-.44.05c-0.57,2.16-2.55,1.82-4.13,2.24a11.05,11.05,0,0,1,4.85-4.19h0a0.64,0.64,0,0,0-.06.87Z" fill="#7675a6"/>
    <path d="M654,53.26l0.21-1a1.91,1.91,0,0,0,1.75-.5,3.26,3.26,0,0,1,3.2-.13,0.9,0.9,0,0,1,.73.83,0.84,0.84,0,0,1-.76.81C657.38,53.46,655.67,54.18,654,53.26Z" fill="#fff"/>
    <path d="M461.88,191.15c-2.73,1.17-5.6.66-8.41,0.84C456.2,191,459,191.09,461.88,191.15Z" fill="#7675a6"/>
    <path d="M680.16,36.48a2.78,2.78,0,0,1-.86-1,1,1,0,0,1,.87-1c0.8-.16.53,0.53,0.59,0.93a0.62,0.62,0,0,0,.37.53v0c-0.63-.48-1-0.38-0.95.47h0Z" fill="#7675a6"/>
    <path d="M510.28,157.76H505.9v-0.19h4.38v0.19Z" fill="#7675a6"/>
    <path d="M286.49,297.53L285,298l-1.85.05,0,0C284.26,297.66,285.24,296.81,286.49,297.53Z" fill="#fff"/>
    <path d="M474.76,180.88h-2.93A3.38,3.38,0,0,1,474.76,180.88Z" fill="#7675a6"/>
    <path d="M662.9,21.58a1.59,1.59,0,0,1-1.74-.67,1.14,1.14,0,0,1,1.71.71Z" fill="#fff"/>
    <path d="M288.87,297l-1.3.17C287.8,296.63,287.86,296.62,288.87,297Z" fill="#fff"/>
    <path d="M573.59,111.82a1.17,1.17,0,0,1,1.66-.17,2.25,2.25,0,0,1-1.64.19Z" fill="#7675a6"/>
    <path d="M40.94,474.77c0.07,0.17,0,.27-0.19.27a0.24,0.24,0,0,1-.18-0.09,2,2,0,0,1,0-.38Z" fill="#fff"/>
    <path d="M659.56,19.85l0.93,0c-0.11.38-.23,0.8-0.75,0.7S659.51,20.12,659.56,19.85Z" fill="#fff"/>
    <path d="M568.23,112.22l-1.38.12A1.15,1.15,0,0,1,568.23,112.22Z" fill="#fff"/>
    <path d="M441.64,193.34a0.37,0.37,0,0,1-.18-0.07c-0.07-.12,0-0.2.21-0.18a0.41,0.41,0,0,1,.15.13Z" fill="#fff"/>
    <path d="M654.72,50.88a0.53,0.53,0,0,0-.49.48h0a0.51,0.51,0,0,0,.48-0.49h0Z" fill="#7675a6"/>
    <polygon points="627.58 77.63 627.52 77.52 627.65 77.54 627.58 77.63" fill="#7675a6"/>
    <path d="M200.15,355.18l-0.08.17,0.11-.14Z" fill="#7675a6"/>
    <path d="M249.57,320.61l-0.22,0-0.22,0Z" fill="#fff"/>
    <path d="M674.78,48.75l-0.15.14a0.15,0.15,0,0,1,0-.3Z" fill="#7675a6"/>
    <polygon points="654.72 50.88 654.78 50.82 654.72 50.88 654.72 50.88" fill="#7675a6"/>
    <path d="M680.16,36.48c0-.85.31-0.95,0.95-0.47C681.16,36.89,680.78,36.93,680.16,36.48Z" fill="#302f43"/>
    <path d="M682.28,40.91a0.24,0.24,0,0,1,.13,0,0.18,0.18,0,0,1,.06.14c-0.09.19-.18,0.19-0.25,0A0.3,0.3,0,0,1,682.28,40.91Z" fill="#302f43"/>
    <path d="M681.75,40.3l-0.14-.18a0.16,0.16,0,0,1,.32,0Z" fill="#302f43"/>
    <path d="M85,463.73a1.88,1.88,0,0,1-.2.87c-1.58.53-3,1.66-4.86,1.09A10.48,10.48,0,0,1,85,463.73Z" fill="#302f43"/>
    <path d="M74,467.74a1.89,1.89,0,0,1-2.51.84A2.19,2.19,0,0,1,74,467.74Z" fill="#302f43"/>
    <path d="M669.11,52.8a0.55,0.55,0,0,1,.34.42c-0.47.16-.18-0.31-0.31-0.45Z" fill="#302f43"/>
  </g>
</svg>
