<svg xmlns="http://www.w3.org/2000/svg" viewBox="0 0 242.53 678.03">
  <title>boston-shaker</title>
  <g>
    <path d="M236.25,25.92c4.57,1.64,6.89,4.84,6.15,9.23-0.59,3.53.36,7.25-1.4,10.61-2.81,2.13-1.37,5.34-2,8-0.32,1.46-.07,3.06-2.26,3-0.3-.24-0.47-1-1-0.22l1,0.17c0.82,0.87,1.66,1.49,1.49,3.08-0.79,7.28-1.29,14.58-2,21.87-0.08.81,0.51,2.1-1,2.43a12.84,12.84,0,0,0-.59,2.13c-1,9.39-2.2,18.77-2.79,28.19-0.53,8.49-2.33,16.91-1.54,25.49,2-12.59,2.24-25.36,4.21-37.95l1.38-.21c0.56,5.47-.64,10.84-1,16.25-0.9,12-2.25,24.06-3.44,36.09-1.41,14.26-2.87,28.51-4.27,42.77q-2,20.46-3.93,40.93c-0.36,3.84-1.23,7.65-.71,11.54-1.44,1.27.52,1.62,0.66,2.47l0-.05c-1.82.83-1.61,2.6-1.82,4.11-2.68,19.17-3.61,38.51-5.56,57.75q-3.55,35-7.09,70c-2.26,22.35-5,44.64-7.88,66.92s-5.61,44.33-9.49,66.34c-2.36,13.4-4.77,26.79-7.13,40.18-0.24,1.35-1.21,3.07,1.25,3.51,0.28,1.33.3,2.57-1.22,3.23l-0.79-2.8c-1.39,7.75-2.61,14.42-3.79,21.09q-5.16,29.29-10.24,58.59c-0.24,1.43-1.75,3.26-1.58,3.37,3,1.93.72,4.33,0.54,6.34C168,655.62,167,660.77,166.45,666c-0.49,4.78-1.32,9-7.42,9.16a2.72,2.72,0,0,0-1,1c-1.77,1.87-4.23,1.23-6.27,1.32-19.4.86-38.81,0.47-58.22,0.35a8.39,8.39,0,0,1-1.79-.41c0-1.74-1.36-1.1-2.18-1.12-4.58-.09-9.17-0.12-13.75-0.11-0.92,0-2-.37-2.57.88a5.08,5.08,0,0,1-5.24-.22c0.72-1.43-.32-1.33-1.2-1.4-7.45-.55-14.83-1.89-22.35-1.65a41.33,41.33,0,0,1-7.79-.75c-3.25-.52-5.14-2-5.44-5.86-1-12.61-2.38-25.19-3.69-37.77-1-9.44-2.25-18.84-3.09-28.29-2-22.75-4.82-45.42-7.29-68.13-1.55-14.26-3.42-28.49-4.62-42.78-1.14-13.53-1.64-27.11-2.36-40.68-2.36-44.27-3.75-88.58-5-132.9-0.66-24.19.3-48.43-2-72.56-0.14-1.44,1.09-1.4,1.08-2.3,0.29-.84.88-0.76,1.54-0.52,3.36,1.52,6.78.24,10.17,0.4-0.66-.43-1.53-0.1-2-0.94,4.58-1.69,9.35-.81,14-0.78,3.54,0,5-1.13,5.88-4.47,13-46.7,27.39-93,41.22-139.48q5.65-19,11.36-37.94c0.53-1.74.58-3.72,2.11-5.06,3.61-.93,1.46,2,2,3.08C91,56.74,89.57,59,92.06,57.55L92,57.49a58.32,58.32,0,0,1-2.26,14.64,22.33,22.33,0,0,0-.79,7.58c3-7.59,5.59-15.28,8.43-22.86,2.22-5.94,3.43-12.35,7.8-17.37,0.53-.61,1.42-1.77.71-2.68S104,36.5,103,36.52c-1.75,0-3.71,2.1-5.2-.51,2.17-1,6.45.3,5.06-4.61,4.68,0.7,4.68.7,8-1-4.38-1-8.14,1-12.08,1.62C99,30.72,97.54,30.81,97,29.93c2.77-.11,3.55-1.75,3.35-4.13,4.15-2.53,3.78-7.17,5.24-11,1.27-3.3.8-7.13,3.19-10.11-2.11-2-4.06-.84-4.7,1.06-2.2,6.55-4.85,13-5.87,19.91l-1.6.4c1.08-7.51,3.46-14.67,6.1-21.73,0.6-1.61,2.32-2.26,3.84-2.73,4.41-1.34,8.87-2.41,13.47-.84-0.19,1.89,3.53.29,2.63,3.38-1.86,6.43-3,13.06-5.31,19.38-0.58,1.61-.31,2.29,1.4,2.5,8,1,16.1,2,24.13,3,1.5,0.2,2.27-.6,3.05-1.57,4.27-.25,8.33,1.17,12.52,1.61a1,1,0,0,1,1.19,1c-0.13,2.3-.14,2.4,1.88,2.88,5.42,1.29,10.89,2.33,16.3,3.74,3.24,0.85,7,1,10.26-1l0,0c3,0.32,6.17.16,8.29,2.94-2,2.21-.11,3,1.5,3.39,3.76,0.83,7.79.62,11.36,2.14,3,1.28,6,1.27,9.07,1.06,1.4-.09,2.68-0.64,2.4-2.2-0.88-4.82,1.71-9.37.88-14.25-0.25-1.48-1.59-2.69-1.31-3.71,0.7-2.59,3.84-3.59,6.31-2,2.31,1.49,4.77,1.82,7.33,2.08l-0.07-.05c0.21,0.89.94,0.75,1.57,0.8L235.28,26l0.3,0.53ZM197,52.26a5.09,5.09,0,0,0,4.87.62c-1.54-.92-3.21-0.77-4.89-0.6-0.09-1.64-1.3-1.51-2.44-1.59-1.48-.11-3-0.25-4.43-0.46-7.14-1-14-3.18-21.06-4.69-11.46-2.46-23.28-3.17-34.43-7.18-4.74-1.7-10.3-1.28-13.88-5.89-0.85,1.62-1,2.31.62,3.53,2.15,1.6,4.52,2,6.83,2.67,11.2,3.07,22.34,6.53,33.73,8.61,5.54,1,10.95,2.87,16.67,3.09C184.79,50.62,190.74,53.2,197,52.26Zm4.51,9a1,1,0,0,0,.1.27,0.39,0.39,0,0,0,.19.06l-0.34-.28c1.38-2.87-.72-3.14-2.66-3.76-9.92-3.14-20.39-3.44-30.44-6.1-10.62-2.82-21.71-3.64-32.23-7-1-.33-2.72.21-2.48-1.84-6.42-2.43-13-4.31-19.23-7.43,1.52,4.66,6.26,3.92,9.22,6.09,0,4.15,2.5,6.22,6.54,7.4,3,0.88,6.68.57,9,2.9A8.41,8.41,0,0,0,144.36,54c7.06,0.87,14.12,1.67,21.12,3,5.94,1.11,12,.34,18.05,1.31,2.63,0.43,4.2,3.15,6.63,2.7C194,60.22,197.76,61.57,201.55,61.24Zm-147,567,0,0c-1.62,1.92-1.37,4.1-.57,6.17s1.94,4.17,2.93,6.24v-0.06c-0.53.59-.55,1,0.37,1.13,3.36,1.48.5,3.66,0.6,5.49,0.4,7.22,1,14.44,1,21.66,0,3.47,2.27,4.76,4.55,5.47a12.2,12.2,0,0,0,7.92-.1c-2.65-.3-4.78-1-4.89-4.1-0.45-12.2-1-24.41-.68-36.62a1.31,1.31,0,0,0,1.29-1.8c-1.06-5.07-.27-10.2-0.51-15.3-0.05-1.09.59-2.29,0.33-3.29-1.45-5.61.12-11.29-.68-17a54,54,0,0,1-.3-13.84c0.13-1.1.87-2.62,0.32-4.23-1.6-4.66-1.4-9.65-1.86-14.52-0.57-6,.73-12,0.19-18.16a67,67,0,0,1,.09-13.65c0.63-5.31,1.29-10.61,0-16.26-1.23-5.32-.07-11.29.64-16.9,0.33-2.59-2.18-4.67-.73-7.13,1.57-2.66,1.23-5.54,1.22-8.39,0-7.23-.49-14.46-0.54-21.66-0.09-12.93.91-25.87,1.24-38.81,0.11-4.54-.59-9.1-0.64-13.65-0.07-6.65.77-13.32,0.91-19.91,0.17-8.18-.1-16.45-0.15-24.67-0.11-16.76-.07-33.51.74-50.27C68,299.72,69.83,285.4,69.42,271c-0.23-8.19-1.76-16.32-1.41-24.57,0.19-4.46,1.27-5.76,5.8-5.8,6.37-.06,12.75,0,19.12,0,1,0,2-.14,2.84.63a11.15,11.15,0,0,1-1.8.4c-5.8.36-6.44,1.17-6,7,0.18,2.23.52,4.68-.17,6.7-1.28,3.73-1.07,7.5-1,11.23,0.08,4.3,2.07,8.69-1,12.74a1.22,1.22,0,0,0-.11,1.36c2.29,5.16,1.94,5-.84,9.46a6.45,6.45,0,0,0,.38,7.06c1.64,1.9,2.08,3.24,0,4.87-0.72.57-1.07,1.44-.32,1.82,2.81,1.41.8,2.78,0.13,4.18-0.3.62-1.14,0.88-.85,1.88,1.85,6.29,1.81,6.29-.94,11.92-0.45.93-.57,2.05,0.63,2.56s1.16,1.46,1.21,2.47a4.11,4.11,0,0,1-1.66,3.92c-1.67,1.55-1.54,6.21-.11,8.48,1.55,2.46,2.25,3.71-.2,5.59a2,2,0,0,0,.24,1.69c2.61,3.26,2.49,6.43.08,9.77a2.86,2.86,0,0,0,.28,4,2.59,2.59,0,0,1,1.25,1.7,45.92,45.92,0,0,1-1.34,17,32.57,32.57,0,0,0-1.35,9.37c0,3.62-1.5,7.57,1.81,10.86,0.73,0.73.87,3.35-.36,4.16-1.94,1.29-1.53,2.93-1.56,4.6-0.17,7.91,3.43,15.46,2.11,23.5-0.46,2.81-1.09,5.79-.62,8.51,1.05,6.08.31,12.15,0.45,18.21,0.17,7.66-.58,15.33-0.49,23,0.05,4.2-.12,8.39,0,12.58,0.09,5-1.31,10-.14,15,0.19,0.8.21,2.16-.25,2.51-2,1.45-1.14,3.31-1.12,5.08,0,3.64,1,7.27,1,10.79,0.14,9.56-1,19.13-.93,28.7,0,5.2,1.1,10.49.48,15.65a115.44,115.44,0,0,0-.23,19.91c0.32,6-.17,12,0.39,17.94,0.54,5.76-3.81,11.2-.88,17-2.48,3.87-.67,8.07-0.75,12.07a157.48,157.48,0,0,0,.54,19.59c0.54,5.17,1.25,10.55-.79,15.8,7.81,0,15.92-.08,24,0,2.85,0,3.61-1.06,3.49-3.76-0.16-3.6.29-7.21,0.49-10.81,0.8-14.47,1.48-29,1.61-43.46,0.11-11.83,1.05-23.61,1.71-35.4,0.59-10.57,1.41-21.12,1.36-31.72,0-1.74.29-3.47,0.45-5.19,0.51-5.57,1.26-11.23.71-16.73a44.17,44.17,0,0,1,0-11.72c2.14-12,.57-24.08,2.13-36.11,1.46-11.35.24-23,.51-34.55,0.32-13.52.65-27.06,1.6-40.54,0.55-7.82,1.44-15.59,1.38-23.45,0-4.67.87-9.3,0.76-14a148.93,148.93,0,0,1,.2-16.31c0.75-8.62,2.09-17.2,2-25.89,0-4.45-.61-9-0.37-13.33,0.61-11.06,0-22.12.49-33.15,0.52-11.69,1-23.36.64-35.05,1.43-.74,2.95-0.35,4.42-0.29,6,0.26,12.09.79,18.13,0.84,11,0.1,21.91,1.23,32.87,1.74,1.07,0.05,2.63-.14,2.09,1.67-1.64,5.5-2.17,11-.64,16.61a2,2,0,0,1-.5,1.69c-1.86,1.66-1.58,3.82-1.6,5.93,0,4.56.6,9.27-.27,13.66-1.78,8.93-.78,18-3,27.06-2,8.17-1.36,17.18-1.93,25.82-0.12,1.85-.89,3.77-0.55,5.51,1,4.89-.39,9.62-0.59,14.41-0.35,8.14-3.09,16.13-2.43,24.26,0.55,6.8-2.11,13-2,19.8a118.16,118.16,0,0,1-1,17.08c-1.28,9.47-1.27,19.1-3.14,28.52a17.43,17.43,0,0,0-.16,7c0.74,3.82-1.66,7.69-1.15,11.39,1,7.27-2.1,14-1.69,21.2,0.5,8.67-4,16.93-2.91,25.69,0.83,6.64-1.78,12.81-2,19.34-0.14,5.08-.12,10.31-1.8,15.35-1.87,5.61.07,11.72-1.63,17.39-1.88,6.27-1,12.85-2.32,19.12-1.11,5.08-.86,10.26-1.87,15.36-1.17,6-1,12.18-2,18.2-0.67,4.24.44,8.68-.88,12.61-1.46,4.35-1.27,8.65-1.67,13-0.14,1.51,2,1,1.58,2.51a99.4,99.4,0,0,0-3.42,21.07c-0.38,7.7.16,8.54,8,8.48a7.31,7.31,0,0,0,1.87-.06c3-.84,5.88-1.58,6.26-5.65,0.2-2.09.39-4.19,0.61-6.29,0.6-5.72,1.35-11.43,2-17.14-0.86-.77-2.43.4-3.35-1.29,3.87,0,4.55-2.75,4.82-5.48,0.63-6.32,2.24-12.48,3.62-18.6,2.46-10.92,3.42-22,5.32-33,1.41-8.15,2.6-16.39,3.9-24.56,1.2-7.6,2.87-15.23,4.2-22.82,1.7-9.7,3.28-19.46,4.83-29.2,1.49-9.3,3.22-18.58,4.36-27.93,1-8.61,2.55-17.17,3.22-25.84,0.54-7,1.77-14,2.65-21,1.1-8.74,2.43-17.45,3.19-26.22,1-11,2.93-21.88,3.32-33,0.41-11.75,2.47-23.44,3.42-35.19,0.89-11.1,2.05-22.16,3.11-33.23,1.14-11.91,3.47-23.74,3-35.79a22.27,22.27,0,0,1,0-3.75c0.72-5.54.77-11.26,2.1-16.57,0.93-3.73-.45-3.77-2.76-4.19-3.18-.58-6.37-1.12-9.57-1.54-1.65-.22-1.52-1-1.33-2.31A107.3,107.3,0,0,0,200.06,233q0.42-13.21.65-26.42c0.4-23.62.16-47.24,0.14-70.87,0-2.3-1.4-4.7.16-6.88,2-2.84,1.34-6.33,1.66-9.33,0.2-1.85,1.27-3.35,1.25-5.25-0.08-5.08.24-10.16,0.55-15.24,0.52-8.28,1.86-16.5,1.48-24.86a5.28,5.28,0,0,0-2.76-4.85c-2.16-1.14-4.93-2.79-6.94-2.28-5.82,1.48-10.28-2.87-15.9-2.81-3.74,0-7.88-1.66-11.86-1.21a41.35,41.35,0,0,1-20.73-2.77,2.52,2.52,0,0,0-.88-0.42c-7.76.9-15.66,0.44-23.33,2.5-1.15.31-2.5,2.47-3.88,0.61-2.32-3.13-3.74-.71-4.74.9-2.72,4.38-6.32,8-9.73,11.78a5.26,5.26,0,0,0-1.54,2.06c-0.67,3.79-2.91,6.87-4.75,10-4.34,7.48-6.85,15.75-9.22,23.82-4.23,14.43-8.51,28.82-13.59,43-3.65,10.17-6.95,20.46-10.6,30.63-4.55,12.66-9.2,25.41-11.92,38.69-1.15,5.59-4.18,10.7-4.24,16.57l-4.4.91c-2.87,0-5.75.12-8.62,0s-3.88,1.22-3.52,3.84a104.59,104.59,0,0,1,.77,10.77c0.35,10.94-1.46,21.8-.25,32.83,1.09,10,.53,20.08.77,30.14,0.66,27.27-.47,54.58,1.68,81.83,0.4,5.08.32,10.21,0.9,15.27,0.31,2.63.66,4.93-.71,7.47s1.34,4.85,1.31,7.44a408.31,408.31,0,0,0,1.63,41.42c0.49,5.48-.13,11,0.87,16.39,2.53,13.45,1.63,27.21,4.16,40.65a109.57,109.57,0,0,1,1.76,17.51c0.22,8.92,2.4,17.71,2.13,26.73a65.17,65.17,0,0,0,.76,11.53c2,13.37.89,27,3.63,40.33C52.54,626.93,52.25,628.52,54.54,628.29ZM215.16,171.8c0.29-3.81,2-7.44,1.14-11.35-0.49-2.29,0-5.49.92-6.64,3.5-4.24,2.49-9,3.1-13.67,0.57-4.33.34-8.72,1-13,1.65-11.29,2-22.72,4.18-34,1.6-8.33.55-16.88,1.56-25.29,0.69-5.75-1.55-10.33-6.59-13.77,0.91,2.72-.35,4.86-1.19,7.17a15.75,15.75,0,0,0-1.11,6.17A194,194,0,0,1,218,100c-0.66,6.41-1.1,12.87-2.25,19.21-1.08,6-1,12-1.77,18-0.65,5.11.27,10.56-.3,15.91A49.91,49.91,0,0,0,215.16,171.8Zm-164.48,29,1,0.32c1.3-3.14,2.8-6.22,3.87-9.44,2.83-8.5,5.53-17.06,8.2-25.61,4.7-15.09,10.33-29.9,14.05-45.28,0.73-3,.93-6.19,1.37-9.29l-1.24-.26C67.75,140.7,59.68,170.86,50.68,200.75ZM88.59,81.27c-2.07,1.09-1.89,2.3-1.48,4.2C88.46,84.06,88.9,83,88.59,81.27Z" fill="#403f5b"/>
    <path d="M4.29,241.82c0,0.9-1.22.86-1.08,2.3,2.33,24.13,1.37,48.37,2,72.56,1.21,44.32,2.6,88.63,5,132.9,0.72,13.56,1.22,27.15,2.36,40.68,1.21,14.29,3.07,28.52,4.62,42.78,2.47,22.7,5.27,45.37,7.29,68.13,0.84,9.45,2.11,18.86,3.09,28.29,1.31,12.58,2.69,25.16,3.69,37.77,0.3,3.83,2.19,5.34,5.44,5.86a41.33,41.33,0,0,0,7.79.75c7.52-.24,14.9,1.1,22.35,1.65,0.88,0.06,1.92,0,1.2,1.4-9.72-.62-19.48-0.62-29.14-2.05-1.6-.24-3.2-0.52-4.77-0.91a6,6,0,0,1-4.92-5.75c-0.8-7.82-2.13-15.6-2.78-23.43C23.14,605.32,18.63,566,13.89,526.8c-4.83-40-6.59-80.14-8.57-120.31C2.85,356.08,2.28,305.62.8,255.18a50.43,50.43,0,0,0-.59-8.59C-0.54,242.91.72,241.52,4.29,241.82Z" fill="#2d2b41"/>
    <path d="M185.6,560.6c-2.46-.44-1.49-2.16-1.25-3.51,2.36-13.4,4.77-26.79,7.13-40.18,3.88-22,6.63-44.18,9.49-66.34s5.62-44.57,7.88-66.92q3.55-35,7.09-70c1.95-19.24,2.88-38.58,5.56-57.75,0.21-1.5,0-3.28,1.82-4.11l0.09,2.34c0.35,3.07-.53,6.06-0.81,9.06-4.84,51.69-9.44,103.41-15.6,155-5.61,47-11.74,93.86-21.09,140.26C185.75,559.1,185.69,559.85,185.6,560.6Z" fill="#2d2b41"/>
    <path d="M145.92,27.51c-0.78,1-1.55,1.77-3.05,1.57-8-1.06-16.08-2.05-24.13-3-1.71-.21-2-0.88-1.4-2.5,2.28-6.32,3.46-13,5.31-19.38,0.89-3.09-2.82-1.49-2.63-3.38l5.77,0.48a0.9,0.9,0,0,0,1.51.14l4.5,0.47a3.44,3.44,0,0,0,3.75.3l2,0.09c1.93,2.38,5.82.65,7.66,3.43-1.25,1.38-3,.14-4.78,1.75,2.37,0.06,2.63,2,3.93,2.95,1.89,3.3,5.53,6,2.65,10.73C146,22.83,146.25,25.35,145.92,27.51Z" fill="#2d2b41"/>
    <path d="M233.84,25.26c-2.57-.26-5-0.59-7.33-2.08-2.47-1.6-5.61-.59-6.31,2-0.28,1,1.06,2.23,1.31,3.71,0.83,4.87-1.76,9.43-.88,14.25,0.28,1.55-1,2.11-2.4,2.2-3.09.2-6.06,0.21-9.07-1.06-3.57-1.52-7.59-1.31-11.36-2.14-1.61-.35-3.47-1.18-1.5-3.39a9.6,9.6,0,0,0,5.94.88l0-.05c0,1.63,1.63,1,2.32,1.73,1.38,1.52,2,.22,2.31-0.8,1.52-4.48,1.87-9.17,2.5-13.82,0.24-1.74-2.75-2.88-.83-4.09,1.24-.78,3.37-0.16,5.1-0.21a2.51,2.51,0,0,0,.69-0.71c-1.89-1.57-4.35-1.69-6.4-2.66-1-.49-1.2-0.86-0.91-1,2.58-1.14.18-1.41-.34-1.62a4.84,4.84,0,0,0-3.28-.32l-4.73-1.39-0.05-1.22a267.92,267.92,0,0,1,31.25,9.43C231.29,23.42,232.88,23.82,233.84,25.26Zm-24.63-7.31a1,1,0,0,0,.37.4,1.58,1.58,0,0,0,.6-0.19,1,1,0,0,0-.36-0.4A1.6,1.6,0,0,0,209.21,17.95Z" fill="#2d2b41"/>
    <path d="M203.35,16.07a4.84,4.84,0,0,1,3.28.32c0.52,0.21,2.92.48,0.34,1.62-0.29.13-.13,0.5,0.91,1,2.05,1,4.51,1.1,6.4,2.66a2.51,2.51,0,0,1-.69.71c-1.73,0-3.85-.58-5.1.21-1.91,1.21,1.07,2.35.83,4.09-0.63,4.65-1,9.34-2.5,13.82-0.34,1-.93,2.31-2.31.8-0.06-1.53-.93-2-2.32-1.73l0,0.05c-1.09-2.4,2.29-2.86,2.11-5-0.22-2.55-.06-5,1.62-7.31,1-1.38.83-2.69-1.25-4-5-3.15-10.75-3.62-16.12-5.31a149.82,149.82,0,0,0-34.53-7c-3.23-.23-6.37-1.93-9.69-0.58-1.3-1-1.56-2.89-3.93-2.95,1.78-1.6,3.53-.36,4.78-1.75-1.84-2.79-5.73-1.05-7.66-3.43,6.31-.74,12.33,1.21,18.45,2.13,13.3,2,26.45,4.77,39.57,7.73,1,0.23,2.28.27,3,1.34l0.05,1.22a4.4,4.4,0,0,1-2.55-.17c-8-1.78-16-3.7-24-5.23C163.77,7.7,155.51,5.83,145.93,6c8,2.91,15.41,3.07,22.56,4.64,9.29,2,18.78,3.12,28,5.77C198.46,16.94,201.22,19,203.35,16.07Z" fill="#403f5b"/>
    <path d="M97.85,36c1.49,2.6,3.45.55,5.2,0.51,1,0,2.18-.57,2.84.27s-0.18,2.08-.71,2.68c-4.37,5-5.58,11.43-7.8,17.37-2.84,7.58-5.4,15.27-8.43,22.86a22.33,22.33,0,0,1,.79-7.58A58.33,58.33,0,0,0,92,57.49l0.39-.34a0.48,0.48,0,0,0-.25.06,1.12,1.12,0,0,0-.08.34C89.57,59,91,56.74,90.65,56.11c-0.59-1.08,1.56-4-2-3.08l8-26.95,1.6-.4,2.13,0.12c0.2,2.38-.58,4-3.35,4.13,0.58,0.88,2,.79,1.85,2.11S96.31,34.24,97.85,36Z" fill="#2d2b41"/>
    <path d="M158,676.17a2.72,2.72,0,0,1,1-1c6.1-.16,6.93-4.38,7.42-9.16,0.53-5.21,1.59-10.37,2.06-15.58,0.18-2,2.45-4.41-.54-6.34-0.17-.11,1.33-1.94,1.58-3.37q5-29.31,10.24-58.59c1.18-6.67,2.4-13.34,3.79-21.09l0.79,2.8c0.29,5.8-1.54,11.3-2.46,16.92-2.58,15.73-5.39,31.41-8.19,47.1-0.82,4.58-2.75,9.1-2.73,13.64,0,9-2.42,17.6-3.27,26.43C167.06,674.79,165.12,676.29,158,676.17Z" fill="#2d2b41"/>
    <path d="M236.79,56.77c2.19,0.07,1.94-1.52,2.26-3,0.58-2.69-.86-5.89,2-8l-5,56-1.38.21c0.24-6,1.63-11.87.71-17.87,1.49-.32.9-1.62,1-2.43,0.71-7.29,1.22-14.59,2-21.87,0.17-1.59-.67-2.21-1.49-3.08Z" fill="#2d2b41"/>
    <path d="M73.27,677.1c0.52-1.25,1.65-.88,2.57-0.88,4.58,0,9.17,0,13.75.11,0.82,0,2.17-.62,2.18,1.12Z" fill="#2d2b41"/>
    <path d="M14,240.76c0.44,0.84,1.31.51,2,.94-3.39-.16-6.81,1.12-10.17-0.4Z" fill="#2d2b41"/>
    <path d="M135.54,2.17a3.44,3.44,0,0,1-3.75-.3A2.88,2.88,0,0,1,135.54,2.17Z" fill="#403f5b"/>
    <path d="M223.4,254.08l-0.09-2.34,0,0.05,0.33-.1,0.34,0.06C225.31,252.89,224.6,253.54,223.4,254.08Z" fill="#403f5b"/>
    <path d="M223.94,251.76l-0.34-.06-0.33.1c-0.14-.84-2.1-1.2-0.66-2.47C223.58,249.85,224.34,250.49,223.94,251.76Z" fill="#2d2b41"/>
    <path d="M127.29,1.41a0.9,0.9,0,0,1-1.51-.14Q126.64,0.26,127.29,1.41Z" fill="#403f5b"/>
    <path d="M235.34,26c-0.63-.05-1.37.09-1.57-0.8A1.22,1.22,0,0,1,235.34,26Z" fill="#2d2b41"/>
    <path d="M236.25,25.92l-0.67.57-0.3-.53Z" fill="#2d2b41"/>
    <path d="M49.36,240.37c0.06-5.87,3.09-11,4.24-16.57,2.72-13.28,7.37-26,11.92-38.69,3.66-10.17,7-20.46,10.6-30.63,5.08-14.15,9.36-28.54,13.59-43,2.37-8.07,4.88-16.33,9.22-23.82,1.83-3.16,4.08-6.24,4.75-10a5.26,5.26,0,0,1,1.54-2.06c3.41-3.79,7-7.39,9.73-11.78,1-1.61,2.42-4,4.74-.9,1.38,1.86,2.73-.3,3.88-0.61,7.67-2.06,15.57-1.6,23.33-2.5a2.52,2.52,0,0,1,.88.42A41.35,41.35,0,0,0,168.5,63c4-.45,8.12,1.25,11.86,1.21,5.61-.07,10.07,4.29,15.9,2.81,2-.51,4.77,1.14,6.94,2.28A5.28,5.28,0,0,1,206,74.15c0.38,8.36-1,16.58-1.48,24.86-0.32,5.07-.63,10.16-0.55,15.24,0,1.9-1,3.4-1.25,5.25-0.32,3,.38,6.49-1.66,9.33-1.56,2.18-.16,4.58-0.16,6.88,0,23.62.25,47.25-.14,70.87q-0.22,13.2-.65,26.42A107.3,107.3,0,0,1,199,244.11c-0.18,1.34-.32,2.09,1.33,2.31,3.2,0.42,6.39,1,9.57,1.54,2.31,0.42,3.69.46,2.76,4.19-1.32,5.3-1.37,11-2.1,16.57a22.27,22.27,0,0,0,0,3.75c0.48,12.05-1.84,23.88-3,35.79-1.06,11.08-2.22,22.14-3.11,33.23-0.94,11.75-3,23.43-3.42,35.19-0.39,11.11-2.36,22-3.32,33-0.76,8.77-2.09,17.49-3.19,26.22-0.89,7-2.11,14-2.65,21-0.67,8.67-2.17,17.22-3.22,25.84-1.14,9.35-2.87,18.62-4.36,27.93-1.56,9.74-3.13,19.5-4.83,29.2-1.33,7.58-3,15.21-4.2,22.82-1.29,8.18-2.48,16.41-3.9,24.56-1.91,11-2.86,22.1-5.32,33-1.38,6.12-3,12.28-3.62,18.6-0.27,2.72-.95,5.52-4.82,5.48,0.92,1.7,2.49.52,3.35,1.29-0.69,5.72-1.45,11.42-2,17.14-0.22,2.1-.41,4.2-0.61,6.29-0.39,4.07-3.27,4.81-6.26,5.65a7.31,7.31,0,0,1-1.87.06c-7.83.06-8.37-.78-8-8.48a99.4,99.4,0,0,1,3.42-21.07c0.41-1.53-1.72-1-1.58-2.51,0.4-4.35.21-8.65,1.67-13,1.32-3.92.21-8.37,0.88-12.61,1-6,.81-12.24,2-18.2,1-5.1.76-10.28,1.87-15.36,1.36-6.27.43-12.85,2.32-19.12,1.7-5.67-.24-11.78,1.63-17.39,1.68-5,1.66-10.27,1.8-15.35,0.18-6.53,2.78-12.7,2-19.34-1.09-8.76,3.4-17,2.91-25.69-0.41-7.18,2.68-13.94,1.69-21.2-0.51-3.7,1.89-7.56,1.15-11.39a17.43,17.43,0,0,1,.16-7c1.87-9.42,1.86-19.05,3.14-28.52a118.16,118.16,0,0,0,1-17.08c-0.08-6.76,2.59-13,2-19.8-0.66-8.13,2.08-16.13,2.43-24.26,0.2-4.79,1.55-9.52.59-14.41-0.34-1.73.43-3.66,0.55-5.51,0.57-8.64-.09-17.65,1.93-25.82,2.24-9.05,1.24-18.13,3-27.06,0.88-4.4.23-9.1,0.27-13.66,0-2.11-.25-4.27,1.6-5.93a2,2,0,0,0,.5-1.69c-1.54-5.61-1-11.11.64-16.61,0.54-1.81-1-1.61-2.09-1.67-11-.52-21.88-1.65-32.87-1.74-6-.05-12.09-0.59-18.13-0.84-1.47-.06-3-0.45-4.42.29-9.46-1-19-1.24-28.45-1.51-0.82-.78-1.86-0.63-2.84-0.63-6.37,0-12.75-.09-19.12,0-4.54,0-5.62,1.34-5.8,5.8-0.35,8.25,1.18,16.38,1.41,24.57,0.4,14.39-1.43,28.71-2.12,43.07-0.81,16.76-.85,33.51-0.74,50.27,0.06,8.23.32,16.49,0.15,24.67-0.14,6.59-1,13.25-.91,19.91,0,4.55.75,9.11,0.64,13.65-0.32,12.94-1.33,25.88-1.24,38.81,0.05,7.2.53,14.43,0.54,21.66,0,2.85.35,5.74-1.22,8.39-1.45,2.46,1.06,4.54.73,7.13-0.71,5.61-1.87,11.58-.64,16.9,1.31,5.65.64,11,0,16.26a67,67,0,0,0-.09,13.65c0.54,6.13-.76,12.11-0.19,18.16,0.46,4.87.25,9.86,1.86,14.52,0.55,1.61-.18,3.13-0.32,4.23a54,54,0,0,0,.3,13.84c0.8,5.72-.77,11.4.68,17,0.26,1-.38,2.19-0.33,3.29,0.24,5.1-.56,10.24.51,15.3a1.31,1.31,0,0,1-1.29,1.8c-0.15-1.86-.36-3.73-0.46-5.59-1.19-21.82-1.94-43.65-2.74-65.49-1.33-36-3.52-72-4.12-108.09-0.37-22.24-.89-44.48-1.41-66.72-0.62-26.57.16-53.17,0.3-79.75,0.1-19.85.27-39.69,0.15-59.54C57.42,240.58,57.11,240.59,49.36,240.37Z" fill="#fefefe"/>
    <path d="M95.78,241.3c9.49,0.27,19,.55,28.45,1.51,0.32,11.69-.12,23.37-0.64,35.05-0.49,11,.13,22.09-0.49,33.15-0.24,4.38.33,8.88,0.37,13.33,0.08,8.69-1.25,17.26-2,25.89a148.93,148.93,0,0,0-.2,16.31c0.11,4.7-.8,9.34-0.76,14,0.06,7.86-.83,15.64-1.38,23.45-1,13.49-1.28,27-1.6,40.54-0.27,11.52,1,23.2-.51,34.55-1.55,12,0,24.13-2.13,36.11a44.17,44.17,0,0,0,0,11.72c0.55,5.5-.19,11.17-0.71,16.73-0.16,1.72-.46,3.45-0.45,5.19,0,10.6-.77,21.15-1.36,31.72-0.65,11.79-1.6,23.57-1.71,35.4-0.13,14.49-.81,29-1.61,43.46-0.2,3.6-.65,7.21-0.49,10.81,0.12,2.71-.65,3.81-3.49,3.76-8.1-.13-16.21,0-24,0,2-5.24,1.34-10.62.79-15.8a157.48,157.48,0,0,1-.54-19.59c0.08-4-1.73-8.21.75-12.07-2.93-5.83,1.42-11.27.88-17-0.56-5.95-.08-11.94-0.39-17.94a115.44,115.44,0,0,1,.23-19.91c0.62-5.17-.45-10.45-0.48-15.65-0.06-9.56,1.06-19.14.93-28.7,0-3.52-1-7.15-1-10.79,0-1.78-.83-3.63,1.12-5.08,0.46-.35.44-1.71,0.25-2.51-1.18-5,.23-10,0.14-15-0.08-4.19.1-8.38,0-12.58-0.09-7.66.66-15.33,0.49-23-0.13-6.06.6-12.12-.45-18.21-0.47-2.72.16-5.7,0.62-8.51,1.32-8-2.28-15.6-2.11-23.5,0-1.66-.38-3.3,1.56-4.6,1.23-.82,1.09-3.43.36-4.16-3.31-3.29-1.77-7.24-1.81-10.86a32.57,32.57,0,0,1,1.35-9.37,45.92,45.92,0,0,0,1.34-17,2.59,2.59,0,0,0-1.25-1.7,2.86,2.86,0,0,1-.28-4c2.42-3.34,2.54-6.5-.08-9.77a2,2,0,0,1-.24-1.69c2.45-1.89,1.75-3.13.2-5.59-1.43-2.27-1.56-6.92.11-8.48a4.11,4.11,0,0,0,1.66-3.92c0-1,0-2-1.21-2.47s-1.09-1.63-.63-2.56c2.75-5.63,2.79-5.62.94-11.92-0.29-1,.56-1.26.85-1.88,0.67-1.4,2.68-2.77-.13-4.18-0.75-.38-0.39-1.25.32-1.82,2-1.62,1.6-3,0-4.87a6.45,6.45,0,0,1-.38-7.06c2.78-4.51,3.14-4.3.84-9.46a1.22,1.22,0,0,1,.11-1.36c3-4.05,1.06-8.43,1-12.74-0.07-3.73-.29-7.5,1-11.23,0.69-2,.35-4.47.17-6.7-0.48-5.79.17-6.61,6-7A11.15,11.15,0,0,0,95.78,241.3Z" fill="#2d2b41"/>
    <path d="M49.36,240.37c7.75,0.21,8.07.21,8.11,8,0.12,19.85,0,39.69-.15,59.54-0.14,26.59-.91,53.18-0.3,79.75,0.52,22.24,1,44.48,1.41,66.72,0.6,36.06,2.8,72.06,4.12,108.09,0.8,21.83,1.56,43.67,2.74,65.49,0.1,1.87.3,3.73,0.46,5.59-0.34,12.22.23,24.42,0.68,36.62,0.12,3.11,2.24,3.8,4.89,4.1a12.2,12.2,0,0,1-7.92.1c-2.28-.71-4.53-2-4.55-5.47,0-7.22-.62-14.44-1-21.66-0.1-1.84,2.76-4-.6-5.49a0.74,0.74,0,0,0-.36-1.13v0.06c1.25-.83.58-2,0.51-3.06-0.47-7.23-1-14.45-1.54-21.67-1.75-21.62-2-43.32-4.07-64.93-0.7-7.2-.73-14.58-1.11-21.85-0.71-13.71-1.05-27.43-1.94-41.14-2.08-32.15-2-64.39-2.64-96.58-1-45.31-.93-90.65-0.66-136,0-2,.28-4.17-0.41-5.93a11.76,11.76,0,0,1-.05-8.25Z" fill="#2d2b41"/>
    <path d="M45,241.28a11.76,11.76,0,0,0,.05,8.25c0.69,1.76.42,3.94,0.41,5.93-0.27,45.33-.3,90.66.66,136,0.69,32.2.56,64.43,2.64,96.58,0.89,13.71,1.23,27.43,1.94,41.14,0.38,7.27.41,14.65,1.11,21.85,2.11,21.61,2.32,43.31,4.07,64.93,0.58,7.22,1.08,14.44,1.54,21.67,0.07,1,.74,2.23-0.51,3.06-1-2.08-2.11-4.1-2.93-6.24s-1.05-4.25.57-6.17l0.16-.25-0.13.28c-2.29.24-2-1.36-2.32-2.88-2.74-13.31-1.64-27-3.63-40.33a65.17,65.17,0,0,1-.76-11.53c0.27-9-1.91-17.81-2.13-26.73a109.57,109.57,0,0,0-1.76-17.51c-2.52-13.45-1.63-27.2-4.16-40.65-1-5.34-.38-10.91-0.87-16.39a408.31,408.31,0,0,1-1.63-41.42c0-2.6-2.68-4.89-1.31-7.44s1-4.83.71-7.47c-0.59-5.06-.5-10.19-0.9-15.27-2.15-27.25-1-54.56-1.68-81.83-0.24-10.05.32-20.18-.77-30.14-1.21-11,.6-21.89.25-32.83a104.59,104.59,0,0,0-.77-10.77c-0.36-2.62.63-4,3.52-3.84S42.08,241.28,45,241.28Z" fill="#fefefe"/>
    <path d="M144.38,10.39c3.32-1.36,6.46.35,9.69,0.58a149.82,149.82,0,0,1,34.53,7c5.37,1.69,11.13,2.16,16.12,5.31,2.08,1.31,2.26,2.62,1.25,4-1.68,2.29-1.84,4.76-1.62,7.31,0.18,2.13-3.2,2.59-2.11,5a9.6,9.6,0,0,1-5.94-.88C194.17,36,191,36.12,188,35.79l-0.27-.35a0.39,0.39,0,0,0,0,.2,1,1,0,0,0,.27.1c-3.24,2.06-7,1.89-10.26,1-5.41-1.41-10.88-2.45-16.3-3.74-2-.48-2-0.58-1.88-2.88a1,1,0,0,0-1.19-1c-4.18-.44-8.24-1.86-12.52-1.61,0.33-2.15.06-4.68,1.11-6.39C149.91,16.39,146.27,13.69,144.38,10.39Z" fill="#fefefe"/>
    <path d="M215.16,171.8a49.91,49.91,0,0,1-1.47-18.73c0.57-5.35-.36-10.8.3-15.91,0.76-6,.7-12,1.77-18,1.14-6.33,1.59-12.79,2.25-19.21a194,194,0,0,0,.14-32.53,15.75,15.75,0,0,1,1.11-6.17c0.84-2.31,2.1-4.45,1.19-7.17,5,3.44,7.28,8,6.59,13.77-1,8.41,0,17-1.56,25.29-2.16,11.23-2.53,22.67-4.18,34-0.63,4.28-.4,8.67-1,13-0.61,4.63.41,9.43-3.1,13.67-0.95,1.14-1.41,4.34-.92,6.64C217.14,164.36,215.45,168,215.16,171.8Z" fill="#fefefe"/>
    <path d="M133.69,42.56c-0.24,2,1.44,1.51,2.48,1.84,10.52,3.38,21.61,4.2,32.23,7,10,2.67,20.51,3,30.44,6.1,1.95,0.62,4,.89,2.66,3.76l0,0c-3.79.33-7.5-1-11.37-.3-2.44.45-4-2.28-6.63-2.7-6-1-12.11-.2-18.05-1.31-7-1.3-14.06-2.1-21.12-3a8.41,8.41,0,0,1-5.17-2.43c-2.29-2.32-6-2-9-2.9-4-1.18-6.54-3.25-6.54-7.4C127,41.58,130.17,43.49,133.69,42.56Z" fill="#2d2b41"/>
    <path d="M50.68,200.75c9-29.88,17.07-60,27.22-89.58l1.24,0.26c-0.44,3.1-.64,6.26-1.37,9.29C74,136.11,68.42,150.91,63.71,166c-2.67,8.56-5.36,17.11-8.2,25.61-1.07,3.22-2.57,6.3-3.87,9.44Z" fill="#2d2b41"/>
    <path d="M197,52.26c-6.3.95-12.24-1.64-18.4-1.87-5.72-.22-11.14-2.08-16.67-3.09-11.39-2.09-22.54-5.54-33.73-8.61-2.31-.63-4.68-1.07-6.83-2.67-1.64-1.22-1.47-1.91-.62-3.53,3.57,4.61,9.14,4.19,13.88,5.89,11.15,4,23,4.72,34.43,7.18,7,1.51,13.91,3.69,21.06,4.69,1.47,0.21,3,.35,4.43.46,1.14,0.08,2.34,0,2.44,1.59Z" fill="#fefefe"/>
    <path d="M100.32,25.8l-2.13-.12c1-6.91,3.66-13.36,5.87-19.91,0.64-1.9,2.58-3.08,4.7-1.06-2.39,3-1.92,6.81-3.19,10.11C104.09,18.63,104.47,23.27,100.32,25.8Z" fill="#fefefe"/>
    <path d="M235.33,84.1c0.92,6-.47,11.91-0.71,17.87-2,12.58-2.25,25.36-4.21,37.95-0.79-8.59,1-17,1.54-25.49,0.58-9.42,1.81-18.8,2.79-28.19A12.84,12.84,0,0,1,235.33,84.1Z" fill="#fefefe"/>
    <path d="M133.69,42.56c-3.52.93-6.66-1-10-1.34-3-2.17-7.69-1.43-9.22-6.09C120.65,38.25,127.27,40.13,133.69,42.56Z" fill="#fefefe"/>
    <path d="M97.85,36c-1.54-1.77.79-2.61,1-4,3.94-.61,7.7-2.63,12.08-1.62-3.31,1.68-3.31,1.68-8,1C104.3,36.32,100,35,97.85,36Z" fill="#fefefe"/>
    <path d="M88.59,81.27c0.31,1.76-.13,2.79-1.48,4.2C86.7,83.57,86.52,82.36,88.59,81.27Z" fill="#2d2b41"/>
    <path d="M197,52.28c1.68-.18,3.36-0.33,4.89.6a5.09,5.09,0,0,1-4.87-.62Z" fill="#fefefe"/>
    <path d="M236.82,56.72l-1-.17c0.52-.78.7,0,1,0.22Z" fill="#2d2b41"/>
    <path d="M201.5,61.29l0.34,0.28a0.39,0.39,0,0,1-.19-0.06,1,1,0,0,1-.1-0.27Z" fill="#2d2b41"/>
    <path d="M56.87,640.61a0.74,0.74,0,0,1,.36,1.13C56.32,641.62,56.33,641.2,56.87,640.61Z" fill="#fefefe"/>
    <path d="M203.35,16.07c-2.13,2.9-4.89.87-6.88,0.3-9.21-2.66-18.7-3.72-28-5.77C161.34,9,153.91,8.86,145.93,6c9.58-.12,17.85,1.75,26.12,3.32,8,1.53,16,3.45,24,5.23a4.4,4.4,0,0,0,2.55.17Z" fill="#fefefe"/>
    <path d="M202.2,39.56c1.39-.26,2.26.19,2.32,1.73C203.82,40.6,202.19,41.19,202.2,39.56Z" fill="#fefefe"/>
    <path d="M209.21,17.95a1.6,1.6,0,0,1,.62-0.2,1,1,0,0,1,.36.4,1.58,1.58,0,0,1-.6.19A1,1,0,0,1,209.21,17.95Z" fill="#403f5b"/>
    <path d="M92.06,57.55a1.12,1.12,0,0,1,.08-0.34,0.48,0.48,0,0,1,.25-0.06L92,57.49Z" fill="#403f5b"/>
    <path d="M54.54,628.29l0.13-.28-0.16.25Z" fill="#403f5b"/>
    <path d="M188.06,35.75a1,1,0,0,1-.27-0.1,0.39,0.39,0,0,1,0-.2L188,35.79Z" fill="#403f5b"/>
  </g>
</svg>
