<?xml version="1.0" encoding="utf-8"?>
<!-- Generator: Adobe Illustrator 19.2.1, SVG Export Plug-In . SVG Version: 6.00 Build 0)  -->
<svg version="1.1" id="Calque_1" xmlns="http://www.w3.org/2000/svg" xmlns:xlink="http://www.w3.org/1999/xlink" x="0px" y="0px"
	 viewBox="0 0 500 1000" style="enable-background:new 0 0 500 1000;" xml:space="preserve">
<style type="text/css">
	.st0{fill:#2D2B41;}
	.st1{fill:#7776A9;}
	.st2{fill:#FEFEFE;}
</style>
<title>bottler-wine-opener</title>
<g>
	<path class="st0" d="M242.7,501.9c1,0,1.6,0.6,1.5,1.5c-0.2,2.3-0.1,4.7-1.2,6.9c-2.7,5.3-2.5,5.6,2.8,8.4
		c10.9,5.7,21.9,11.2,33.4,15.6c8.6,3.3,17.3,6.2,25.9,9.4c8.4,3.2,17.1,5.6,25.8,8.1c7.7,2.2,15.4,4.4,23.2,6.2
		c6.7,1.5,13.4,3.4,20.2,4.8c10.3,2,20.6,4,31,5.6c6.5,1,13,2,19.5,2.8c5.7,0.7,11.5,1.1,17.2,1.9c10.3,1.5,20.8,1.5,31.2,2.6
		c6.4,0.7,12.8,1.2,18.6,3.9c4.8,2.2,9.4,9.4,7.6,14.9c-0.6,2-0.9,4.1-1.8,5.9c-0.4,0.7-0.4,1.6,0,2.3c1,2.5,1,5.3-0.2,7.8
		c-0.9,2.1-1,4.5-1.6,6.7c-1.6,6.2-5.6,8.9-11.9,9.1c-9.8,0.4-19.6,0.8-29.5,1.2c-9.7,0.5-19.4,2.3-29.1,1.3
		c-6.1-0.6-12.3-0.4-18.3-2.2c-0.7-0.2-1.4-0.3-2.1-0.3c-9.6,0-19-1.4-28.4-2.6c-6.5-0.8-13.1-0.7-19.5-2.3c-2-0.5-4.1-0.6-6-1.3
		c-4-1.5-8.2-1.7-12.2-3.1c-3.4-1.1-6.6-2.6-9.9-4c-6.4-2.8-12.5-6.2-18.5-9.8c-4.4-2.6-9-4.6-13.6-6.9c-1.8-0.9-3.8-0.7-5.7-1.3
		c-5.5-1.7-10.6-4.3-16.1-5.8c-6-1.6-12-3.4-17.9-5.6c-7-2.6-13.9-5.1-20.6-8.4c-11.2-5.5-22.4-11.2-33.6-16.9
		c-2.9-1.4-5.5-3.4-8.6-4.4c-0.2-0.1-0.3-0.2-0.4-0.3c-7.4-6-16.3-9.5-24-15c-4.7-3.3-9.2-7-14-10.1c-5.6-3.6-10.7-7.9-15.9-12
		c-3.9-3-7.7-6.3-11.4-9.5c-6.3-5.4-11.4-12.1-17.7-17.4c-7-5.8-12.8-12.8-20.3-18.1c-4.8-3.4-8.9-7.9-13.7-11.4
		c-5.7-4.2-11.4-8.4-17.1-12.5c-7.2-5.1-14.9-9.5-22.3-14.4c-4-2.6-8.5-4.5-12.5-7.2c-1.9-1.3-5.3-1.8-4.1-5.7
		c0.2-0.7-0.9-1.1-1.5-1.4c-4.1-2.3-8-4.9-12.3-6.7c-4.2-1.7-5.7-4.7-6-8.7c-0.6-6.5-1.4-12.9-1.1-19.4c0.1-2.6,0.2-5.2,0.5-7.8
		c0.3-3,2.6-4.3,6.2-3.9c0,1.1-1.1,1-1.7,1.5c-0.9,0.7-1.1,2-0.4,2.9c0,0,0,0,0,0c0.9,1.2,1.6,0.1,2.2-0.5c0.6-0.7,1.5-1.1,2.4-1.1
		c1.1,0,2.1,0,1.9-1.8c-0.1-1.5,1.2-0.9,2-0.8c9.2,1.3,18.2,3.2,27.1,5.6c1.4,0.4,2.9,0.5,4.2,1.1c4.7,2,8.4-0.1,11.9-2.8
		c3.9-3,7.4-3,11.1,0.3c2.4,2.1,5.6,3.1,7.8,5.7c6.2,7.3,12.4,14.5,18.9,21.5c4,4.4,7.7,9.1,11.8,13.4c3.1,3.4,7.2,5,11.9,5.1
		c4.2,0.1,8.5,0.2,12.3-2.2c1.7-1.1,3.2-2.7,4.2-4.5c0.6-1,0.3-1.9-0.5-2.7c-0.8-0.8-1.4-1.6-2.1-2.5c-1.1-1.3-2.4-2.7-0.8-4.2
		s3.4-2.9,6-2.1c2.9,0.9,4.8,3,6.7,4.9c6.3,6.1,11.3,13.4,14.7,21.5c1.6,3.9,2.5,7.8,1.3,12c-0.6,2,1.7,2.2,2.7,2.7
		c6.5,4,13.2,7.7,19.9,11.4c9.3,5.2,18.8,10.1,28.2,14.9c4.7,2.4,9.8,4.1,14.3,6.9c1.9,1.2,3.9,1,5.6-0.7c2.7-2.7,5.8-4.9,8.7-7.2
		c1-0.8,2.3-1.2,3.5-0.9c2.9,0.7,5.8,0.2,8.6,0.5c2.5,0.3,4.3-0.9,6.2-2.2c1.3-0.9,1.9-1.9,1.3-4c-1.5-6-1.9-12.1,0.7-18.1
		c0.6-1.2,1.5-2.2,2.5-3c0.2,0.7,0.1,1.4-0.2,2.1c-0.2,0.5-0.5,1.1,0.1,1.5c0.5,0.3,1-0.2,1.3-0.7c1.4-2.1,3.4-3.7,5.7-4.7
		c0.7-0.3,1.4-0.7,1.1-1.6c-0.3-0.7-1.1-0.4-1.7-0.2c-2.1,0.4-3.7,1.8-5.5,2.6c-0.1-1.3,0.5-2.1,1.7-2.7c2.6-1.3,5.1-2.6,7.9-3
		c1.3-0.2,2-0.9,2.4-2.4c0.5-2.2,1.3-4.4,3.7-5.5c-0.2,0.6-0.4,1.2-0.5,1.7c-0.1,0.8-0.5,1.8,0.2,2.2c1,0.5,1.2-0.7,1.7-1.2
		c1.2-1.5,2.6-2.8,4.6-3.4c0.1,0.7-0.1,1.8,0.9,1.6c1.6-0.3,3.6,0.1,4.8-1.3c1.7-1.9,3.7-2.3,6-2c0.5,0.1,0.9,0.1,1.1-0.4
		c0.2-0.5,0-1.1-0.5-1.4c-1-0.8-2.3-1-3.6-0.7c-2.1,0.5-4.1,1.5-5.7,3c-0.6,0.5-1.1,1.5-2.3,1c-0.3-1,1.8-1.5,0.6-2.5
		c-0.9-0.8-1.8,0.2-2.7,0.5c-1.5,0.6-2.5,1.9-4.2,2.3c0.2-2.1,2.1-2.8,3.4-3.4c2.7-1.3,5.3-3.5,8.7-3.1c1.2,0.2,1.2-0.8,1.6-1.7
		c0.9-2.3,1-5.2,3.8-6.4c0.3,1-0.8,2.5,0.5,2.8c0.9,0.2,1.7-1.1,2.2-2.1c0.5-0.9,1-2.2,2.5-2c0.5,0.5,1.1,1.1,1.9,0.7
		c1.5-0.8,3.1-0.6,4.8-0.7c1,0,2.1,0.1,2.5-1.1c0.3-0.6,0.1-1.3-0.4-1.7c-0.9-0.7-1.8-0.5-2.8-0.1c-1.5,0.5-2.7,1.7-4.4,1.7
		c-0.3-3-2.1-0.1-3-0.8c0.2-1.5,1.5-2,2.6-2.2c2-0.3,3.5-1.9,5.6-1.7c0.9,0,0.8-1,1-1.6c0.9-3.4,1.6-7,4-9.8c3.2-3.8,7-6.5,12-6.8
		c2.3-0.2,3.3-0.9,3.5-3.4c0.3-5.1,7.1-11.9,12-13.2c8.9-2.2,16.1,1.1,22.8,6.3c2.1,1.6,3.4,4.1,3.5,6.7c0.1,1.2,0.1,2.4-1.4,2.9
		c-1.6,0.6-2-0.8-2.7-1.6c-3.8-4.3-8.8-6.2-14.2-7.3c-3.2-0.6-7.2,4.1-8.4,6.6c-1.9,3.8-1,6.3,2.7,7.9c0.5,0.2,0.6,0.9,0.6,1.4
		c-1.8-0.9-3.4-2-5.3-2.6c-1.1-0.4-2.8-1.4-3.5-0.3c-1,1.6,2,0.6,2,2.1c-0.5,0.5-1.4-0.4-1.6,0.4c-0.3,0.8,0.4,1.2,0.9,1.5
		c1.6,1.3,3.3,2.4,4.8,3.8c1.5,1.4,1.6,0.2,2-0.9c0.4,0.3,0.9,0.5,1.3,0.8c0.5,0.4,1.2,1.2,1.8,0.6c0.7-0.6,0.4-1.5,0-2.2
		c-0.6-1-1.3-1.9-2-2.8c0.5-0.4,1.2-0.4,1.6,0.1c0,0,0.1,0.1,0.1,0.1c1.9,2.5,3.7,5.2,3.9,8.5c0.3,4.2-4.5,7.4-8.7,6.2
		c-4.6-1.4-7.4-4.6-9.7-8.4c-1.9-3.1-4.5-1.4-6.8-1.4c-1.9,0-2.5,1.9-2.6,3.8c-0.2,3.4,0.3,5.9,3.7,7.8s5.2,5.2,5.9,9.2
		c0.4,2.2-0.2,3.9-1.8,5.3c-2,1.8-4.4,3-6.9,1.7c-3.3-1.7-6.4-3.9-8.4-7.3c-1.5-2.6-5.3-3.6-8-1.9c-2.4,1.5-2.5,4-0.5,7
		c0.2,0.3,0.3,0.7,0.3,1c-2,0.1-3.8-2-6.3-0.6c2.4,0,3.9,0.8,4.7,2.8c-1.4-0.4-2.7-0.8-4.1-1.1c-0.5-0.1-1.4-0.3-1.6,0.5
		c-0.2,0.6,0.4,1,0.8,1.2c1.5,0.8,3.1,1.4,4.6,2.2c1.1,0.5,1.4-0.1,1.7-0.9c2.2,0.8,2.9,3.3,4.7,4.6c0.4,0.3,0.8,0.9,1.4,0.7
		c0.8-0.2,0.5-1,0.6-1.6c0.3-2.1-1.8-3.2-2.1-5c3.1,1,5.2,5.5,4.2,9.1c-1.2,4.4-4.3,6.2-8.6,5.3c-4-0.9-6.5-3.7-8.7-6.8
		c-2.4-3.3-9.8-3.1-11.9,0.4c-0.6,1-0.5,1.9,0.5,2.6c0.7,0.5,1.4,0.8,1.3,1.9c-1.9-0.3-2,0.5-1.5,2c-2.4,0.2-2.6,1.3-1.1,2.9
		c1.4,1.4,2.9,2.7,4.3,4c0.5,0.5,0.9,1.4,1.7,0.9c0.4-0.2,0.3-1.2,0.4-1.8c1-0.4,2,1.8,3,0c3,1.1,2.2,3.8,1.6,5.4
		c-1.9,4.6-4.8,7-9.9,4.6c-4.1-2-7.2-5.3-9.4-9.4c-0.7-1.3-0.7-3.5-3-3.3c-2.2,0.2-3.9,2-3.9,4.2c-0.2,3-0.6,6.1,0.3,9.2
		c1.3,4.6,1.2,9.2-1.1,13.7c-1.3,2.5-3.7,3.7-5.6,5.4c-6.7,5.9-13.7,11.7-20.5,17.5c-1.2,1-2.6,2.2-1.3,4.1c-1.1,0.1-2.1,0.1-3,1
		c-2,2-4.2,3.9-6.3,5.9c-1,1-1.2,2.3-0.1,3.1c1.2,0.9,2.6,3.1,4,1.6C239.3,509.8,242.8,506.8,242.7,501.9z M326.1,416.5
		c1.6,0.2,2.1,2.1,3.6,2.5c-0.6-3.4-2.7-5.4-5.5-7c-0.9-0.5-1.6-0.7-2.2,0.3c-1.1-0.3-2.3-0.9-3.7-0.2c1.6,2.3,4,3.4,5.8,5.2
		C325,418.3,325.7,417.4,326.1,416.5z M325.1,585.7c1.4-0.5,1.4-1.2,0.1-1.6c-2.8-1.1-5.6-2-8.6-2.7c-1.2-0.3-3.1-1-3.9,1
		c-4.6-1.3-9.3-2.6-13.9-4c-4.6-1.4-9.1-2.9-13.7-4.4c-2.2-0.8-3.3-0.3-3,2.2c0.1,1,0.2,2.2-0.6,2.8c-2.8,2.3-0.5,2.4,1.1,3
		c4.5,1.7,9.4,2.4,13.7,5c0.9,0.6,2,0.6,2.9,0.1c1-0.7-1.1-1.4-0.2-2.3c2.4,0.3,3.5,2.7,5.5,3.6c3.2,1.4,6.4,2.8,9.6,4.3
		c7.1,3.4,14.9,4.4,22.5,6c4.7,1,9.5,2.1,14.2,3.2c0.6,0.1,1.5,0.4,1.5,1c0,3.2,2.6,2.4,4.3,2.8c9,2.5,18.2,3.6,27.4,4.5
		c5.9,0.5,11.9,1,17.7,1.8c9.5,1.3,19,2.3,28.6,2c2.4-0.2,4.9,0,7.3,0.5c3.9,1,7.9,0.5,11.9,0.6c0.9,0,2.1,0,1.3-1.4
		c-0.4-0.7-0.7-1,0.3-1.3c1-0.3,1.9-0.9,2.8-0.3c0.8,0.5,0.1,1.3-0.1,1.9s-1.3,1.7-0.6,1.8c2.2,0.4,3.5,2.6,5.8,2.5
		c10.9-0.2,21.9,0.8,32.4-3.1c3.7-1.3,5.6-4.2,5-8.2c-0.2-1.3-1-1.6-1.9-0.9c-3.9,3.5-9.6,1.8-13.6,4.8c-0.4,0.2-0.9,0.2-1.3,0.1
		c-6.2-2.2-12.6-1.9-19-2c-1.4,0-2.7-0.2-4-0.8c-3.6-1.6-7.5-1.9-11.3-2c-5.3-0.2-10.6-0.1-15.8-0.6c-11.6-1.1-23.1-2.6-34.5-4.7
		c-10-1.8-20-3.8-30-5.5c-13-2.3-25.7-5.3-38.5-8.5C325.9,586.8,325.3,586.3,325.1,585.7L325.1,585.7z M113.7,453.6
		c-1.3,0.1-2.4,0.8-3.2,1.8c-0.8,1.1,0.1,2.1,0.7,2.9c1.2,1.7,2.5,3.3,3.9,4.8c4.1,3.9,8.1,7.9,12.3,11.6
		c4.9,4.3,10.3,8.1,15.1,12.6c0.6,0.5,1.7,0.6,2,1.2c2.8,4.9,7.6,7.9,11.6,11.5c3.2,2.9,7.1,4.8,10.5,7.3c3.6,2.6,7.4,4.7,11.1,7.1
		c4.1,2.6,8.5,4.7,12.5,7.4c5.6,3.5,11.4,6.8,17.3,9.6c6.9,3.4,14,6.4,20.9,9.7c7.4,3.5,14.8,7.1,22.5,9.8c2.9,1,5.8,2.4,8.8,3.3
		c3.8,1.2,7.3,3.2,11.2,4.2c4.7,1.2,9.2,3.2,13.8,4.9c4.8,1.8,9.6,3.7,14.4,5.4c6.6,2.4,13.2,5,20.1,6.6c4.7,1.1,9.2,3.1,13.9,3.6
		c6.3,0.7,12.3,2.4,18.5,3.7c8.3,1.8,16.5,4.3,24.9,5.9c8.5,1.6,17,3,25.5,4.1c6.5,0.8,13,1.8,19.5,2.6c5.5,0.7,11,1.7,16.6,2.1
		c6.9,0.5,13.7,1.7,20.6,2c5.8,0.3,11.6,0.9,17.4,0.8c0.7,0,1.8,0.4,1.9-0.9c0.1-1-0.8-1.2-1.7-1.4c-3.3-0.6-6.7-0.5-9.9-1.2
		c-6.4-1.4-12.9-2.3-19.3-3.5c-4.5-0.9-9.1-0.9-13.7-1.7c-4.2-0.9-8.6-1.5-12.9-1.7c-1.3,0-2.5,0.2-3.8-0.3
		c-7.2-3-14.9-3.5-22.3-5.6c-0.5-0.1-1.1,0.1-1.5,0.5c-0.7,0.5-1.2,0.3-2,0c-3.3-1.1-6.5-2.5-10.1-2.3c-0.9,0.1-1.9,0.1-2.5-0.6
		c-0.9-1-2.1-1.1-3.3-1c-5.9,0.8-10.7-3-16.2-4c-2.6-0.5-5.3-1.4-8-2c-3.4-0.9-7.1-1-10.1-2.1c-6.1-2.3-12.5-3.3-18.6-5.7
		c-6.2-2.5-13-3.7-19.3-6.2c-6.4-2.5-13.3-3.3-19.6-6.1c-3.5-1.5-7.3-1.9-10.7-3.5c-9.2-4.4-18.9-7.3-28.1-11.4
		c-6-2.7-11.9-5.7-18-8.5c-7.7-3.5-15.3-7.5-22.6-11.8c-4.3-2.6-9.1-4.1-13.3-6.9c-1.3-0.9-2.5-2.3-4.1-2.6
		c-5.2-0.9-8.8-4.7-13.1-7.2c-4.9-2.8-9.2-6.6-14.3-9.1c-1.9-0.9-4.1-1.6-4.8-3.9c-0.3-0.8-1.1-1.3-1.9-1.3c-1.2,0-2.5,0-3-1.4
		c-0.4-1.4,0.8-2.1,1.5-3c0.4-0.4,0.8-0.8,1.2-1c1.5-1.1,1.5-1.9-0.4-2.8c-2.9-1.3-5.9-2.6-8.4-4.7c-1.1-0.9-2.4-1.6-2.4-3.3
		c0.1-1.7-1-2.5-2.3-3.3c-1.9-1.2-3.9-1.2-6-1.1c-1.6,0.1-2.4-0.6-2.5-2.1c0-1.7-1-3.2-2.5-3.9c-4.2-2.1-8.3-4.3-11.9-7.3
		C115.3,453.8,114.5,453.5,113.7,453.6z M103.2,441.1c0.2-1.4-0.7-2.6-1.8-3.8c-5.3-5.2-11-10.2-16.9-14.8
		c-8.1-6.4-16.5-12.5-25.1-18.2c-7.9-5.3-15.7-10.9-24.1-15.3c-3.9-2.1-8-4-11.9-6c-1.2-0.6-2.4-2-3.5-0.7c-1.2,1.5,0.4,2.6,1.4,3.5
		c3.5,3.3,8.1,4.4,12,6.9c5,3.2,10.1,6.3,15.1,9.4c5.4,3.4,10.3,7.5,15.6,11.1c12.9,8.8,24.4,19.1,35.5,29.9c0.7,0.6,1.2,2,2.3,1.4
		C103,444.2,103.3,442.8,103.2,441.1L103.2,441.1z M157.8,442.2c-2.1,1.3-3.5,2.9-4.8,4.6c-2.8,3.4-5.9,6.2-10.8,5.1
		c-2.8-0.6-5.5-0.3-8.3-0.1c-4.2,0.2-8.4,1.4-12.3-1.6c-2.2-1.7-3.7-3.9-5.6-5.8c-1.8-1.7-3.7-2.1-5.9-0.9c-0.5,0.3-1.3,1.1-0.2,1.3
		c2.4,0.5,1.4,1.9,0.9,3.1c-0.9,2.1-0.7,3.3,2,3.1c1.1-0.1,2,0.7,2.9,1.3c3.1,1.9,5.8,4.7,9.4,5.9c5.1,1.7,10.1,4.2,15.7,2.6
		c3.7-1,7.3-2.3,10.9-3.8c1.9-0.9,4.7-2.3,3.4-5c-1.1-2.4-0.1-3.7,1-5.3C156.8,445.3,157.8,444.2,157.8,442.2L157.8,442.2z
		 M198.8,530.2c5.7,7.8,92.9,43.8,98.9,41.1c-1.7-1.5-4.1-1.6-6.1-2.6c-3.2-1.5-6.4-3.1-9.8-4.2c-5-1.6-9.9-3.4-14.8-5.1
		c-5.8-2.1-11.4-4.8-17.2-6.6c-5.7-1.8-10.7-4.8-16.2-6.8s-10.8-5-16.2-7.6c-3.8-1.8-7.5-3.9-11.4-5.2
		C203.6,532.4,201.7,530.5,198.8,530.2L198.8,530.2z M133.4,434.4c-1.3,0.3-2.1-0.1-3-0.9c-1.1-1-2.2-0.5-3,0.5
		c-1.6,2.3-1,7.2,1.1,9.1c4,3.6,12.6,3.1,16.2-1c1.3-1.5,1.6-3.2,1.7-5c0-1.4-0.9-2.1-2.3-2.1c-1.2,0-2.6,0.6-2.3,1.7
		c0.4,1.5-0.8,2.3-0.9,3.5c-0.1,1.2-1.3,2.5-2.3,2.2c-2.1-0.5-4.6,1.1-6.4-0.9c-0.2-0.2-0.3-0.4-0.3-0.7
		C132.9,438.9,131.2,436.4,133.4,434.4z M104.7,466.5L104.7,466.5c0.1,3.6,0.1,7.2,0.1,10.8c0,1.2,0.5,2.3,1.4,3.1
		c0.5,0.5,1.1,1.2,1.9,0.7c0.9-0.5,0.3-1.3,0-1.9c-0.4-0.7-0.6-1.5-0.6-2.3c0.3-6.6-0.7-13.3,0.5-19.9c0.1-0.7,0-1.4-0.2-2.1
		c-0.3-1-0.7-2.2-1.8-2.1c-1.2,0.1-1.2,1.4-1.2,2.4C104.7,459,104.7,462.7,104.7,466.5z M243.3,490c1.9,0.1,2,0.1,2.5-0.4
		c5.1-5.4,11.4-9.3,17.2-13.8c1.9-1.5,2.9-3.6,4.7-5.2c0.5-0.4,0.5-1-0.2-1.2c-1.4-0.4-1.2-1.2-1-2.3c0.2-1-0.5-1.6-1.4-1.5
		c-1.6,0.1-2.9,1.1-3.6,2.5c-0.5,1,0.5,1.1,1.2,1.4c2.8,1.2,2.9,1.6,0.5,3.7c-4,3.5-8.1,6.8-12.2,10.3
		C248.4,485.6,246,487.7,243.3,490L243.3,490z M330,393.5c-2.5,0.8-5.5,1.7-8.5,2.7c-1.3,0.4-2.5,0.9-3.4,2.1c-0.4,0.6-1.5,1-0.8,2
		c0.7,1,1.5,0.3,2.1,0c4-1.9,8-3.7,12.6-2.2c1.1,0.3,1.9-0.7,2.4-1.5c0.7-1.1-0.5-1.6-1.1-2.1C332.6,393.6,331.6,393.4,330,393.5z
		 M281.6,434.9c-0.7-0.3-1.7-0.4-1.8,0.7c-0.2,1.1,0.8,1.5,1.7,1.8c1,0.2,2,0,2.8-0.7c3.1-2.4,6.3-4.4,10.5-4.2
		c1.8,0.1,2.1-1.7,2.1-2.9c0.1-1.5-1.4-1-2.3-1c-1-0.1-1.9,0.4-2.9,0.7c-2.9,1.1-5.3,3-7.7,4.9C283.3,434.7,282.7,435.2,281.6,434.9
		L281.6,434.9z M332.2,388.4c0.2-0.1,0.3-0.3,0.4-0.4c0.2-0.4,0.4-0.8,0.5-1.2c2.4-6.4,6.6-10.9,13.5-12.4c1.1-0.2,2.3-0.6,2.7-1.9
		C340.5,371.5,331.7,380.2,332.2,388.4L332.2,388.4z M314.9,417.3c1.2-0.5,3.3-0.8,3.9-1.9c0.7-1.1-1.4-2-2.3-2.9
		c-0.1-0.1-0.1-0.1-0.2-0.2c-1.1-0.8-2.4-1.7-3.6-0.5c-1.1,1-3.2,1.4-3,3.1c0.1,1.9,2.3,1.6,3.7,2.1
		C313.7,417.1,314.1,417.2,314.9,417.3z M493.2,592.6c1.4,0.9,1.6,2.3,2.1,3.6c0.4,1.2,1.1,1.4,1.9,0.2c1.4-2.2,1.5-4.6,0.9-7
		c-0.1-0.4-0.3-0.9-0.9-0.8c-0.3,0.1-0.6,0.4-0.7,0.7C496.2,591.1,494.5,591.5,493.2,592.6z M136.6,429.2c-0.7,0.2-2.3-0.5-2.2,1.1
		c0,1.2,1,2.4,2.6,1.9s2,0.7,2.9,1.4c0.9,0.6,1.7,0.7,2.4-0.1c0.8-0.9,0.5-1.9-0.5-2.5C140.4,429.7,138.5,429.1,136.6,429.2z
		 M269.8,443.1c1.9,0.1,3.3,0.4,4.8-0.3c1.1-0.5,1.3-1.4,1.2-2.5c0-0.7-0.1-1.3-1-1.4c-1-0.1-1.9,0-2.3,1
		C272.1,441.3,270.6,441.5,269.8,443.1z M321.2,393.8c2.2,1.1,3.9,0.3,5.4-0.7c0.4-0.3,1.4-0.4,1-1.3c-0.3-0.7-1-0.6-1.6-0.7
		C323.8,390.8,323.1,392.9,321.2,393.8z"/>
	<path class="st1" d="M242.7,501.9c0,4.9-3.4,7.9-6.4,11c-1.4,1.5-2.9-0.7-4-1.6c-1-0.8-0.9-2.1,0.1-3.1c2.1-2,4.2-3.9,6.3-5.9
		c0.9-0.9,1.9-0.9,3-1L242.7,501.9z"/>
	<path class="st1" d="M311,429.3c0.4,1.8,2.4,3,2.1,5c-0.1,0.6,0.2,1.4-0.6,1.6c-0.6,0.2-0.9-0.4-1.4-0.7c-1.8-1.3-2.4-3.8-4.7-4.6
		l-1.4-2c-0.8-1.9-2.2-2.8-4.7-2.8c2.6-1.4,4.3,0.7,6.3,0.6c0.9,0,1.1,1.2,2.1,1.2C309.4,428.4,309.8,429.3,311,429.3L311,429.3
		L311,429.3z"/>
	<path class="st1" d="M286.2,443.7c-0.6-1.5-0.4-2.3,1.5-2c3.6,1.6,5.7,4.4,6.9,8.1c-1,1.8-2-0.4-3,0
		C289.7,447.8,288.3,445.5,286.2,443.7z"/>
	<path class="st1" d="M344.5,394.9c0.7,0.9,1.4,1.8,2,2.8c0.4,0.7,0.7,1.6,0,2.2c-0.7,0.6-1.3-0.2-1.8-0.6c-0.4-0.3-0.9-0.5-1.3-0.8
		c-1.3-2.3-3.5-4.1-6-4.9c0-1.4-2.9-0.5-2-2.1c0.7-1.1,2.4-0.1,3.5,0.3c1.8,0.6,3.5,1.7,5.3,2.6L344.5,394.9z"/>
	<path class="st1" d="M279.1,428.2c1.6-0.4,2.7-1.7,4.2-2.3c0.9-0.3,1.8-1.3,2.7-0.5c1.2,1-0.8,1.5-0.6,2.5l-0.9,0.3
		c-1.9,0.6-3.3,1.9-4.6,3.4c-0.5,0.5-0.7,1.8-1.7,1.2c-0.8-0.4-0.3-1.5-0.2-2.2c0.1-0.6,0.3-1.2,0.5-1.7L279.1,428.2z"/>
	<path class="st1" d="M262.9,442.3c1.8-0.9,3.4-2.3,5.5-2.6c0.6-0.1,1.4-0.4,1.7,0.2c0.4,0.8-0.4,1.3-1.1,1.6
		c-2.3,1-4.3,2.6-5.7,4.7c-0.3,0.4-0.7,1-1.3,0.7c-0.6-0.4-0.3-1-0.1-1.5c0.3-0.7,0.4-1.4,0.2-2.1L262.9,442.3z"/>
	<path class="st1" d="M300.4,410.3c0.9,0.7,2.8-2.2,3,0.8l-1.6,1.2c-1.5-0.2-1.9,1-2.5,2c-0.6,1-1.3,2.3-2.2,2.1
		c-1.3-0.3-0.2-1.9-0.5-2.8C297.3,411.8,299.4,411.7,300.4,410.3z"/>
	<path class="st0" d="M311,429.3c-1.1,0-1.6-0.9-2.2-1.6C310.1,427.5,311.1,427.6,311,429.3z"/>
	<path class="st2" d="M113.7,453.6c0.8,0,1.6,0.2,2.3,0.8c3.6,3,7.7,5.2,11.9,7.3c1.5,0.7,2.4,2.3,2.5,3.9c0.1,1.5,0.9,2.2,2.5,2.1
		c2.1-0.1,4.1-0.1,6,1.1c1.3,0.8,2.4,1.6,2.3,3.3s1.2,2.4,2.4,3.3c2.5,2,5.5,3.3,8.4,4.7c1.9,0.9,1.8,1.7,0.4,2.8
		c-0.5,0.3-0.9,0.6-1.2,1c-0.6,1-1.9,1.8-1.5,3s1.7,1.4,3,1.4c0.9-0.1,1.6,0.5,1.9,1.3c0.8,2.4,3,3.1,4.8,3.9
		c5.2,2.4,9.4,6.2,14.3,9.1c4.3,2.5,7.9,6.3,13.1,7.2c1.6,0.3,2.8,1.6,4.1,2.6c4.2,2.8,9,4.3,13.3,6.9c7.3,4.4,14.8,8.3,22.6,11.8
		c6,2.7,11.9,5.8,18,8.5c9.2,4.2,19,7.1,28.1,11.4c3.4,1.6,7.2,2,10.7,3.5c6.3,2.8,13.2,3.6,19.6,6.1c6.3,2.5,13.1,3.6,19.3,6.2
		c6.1,2.4,12.5,3.4,18.6,5.7c3.1,1.2,6.8,1.3,10.1,2.1c2.7,0.7,5.3,1.6,8,2c5.5,1,10.3,4.8,16.2,4c1.2-0.2,2.3,0,3.3,1
		c0.7,0.8,1.6,0.7,2.5,0.6c3.6-0.2,6.8,1.2,10.1,2.3c0.7,0.3,1.3,0.5,2,0c0.4-0.4,0.9-0.6,1.5-0.5c7.4,2.1,15.1,2.6,22.3,5.6
		c1.2,0.5,2.5,0.2,3.8,0.3c4.3,0.2,8.7,0.8,12.9,1.7c4.5,0.9,9.2,0.9,13.7,1.7c6.4,1.2,12.9,2.1,19.3,3.5c3.2,0.7,6.6,0.6,9.9,1.2
		c0.8,0.2,1.8,0.3,1.7,1.4c-0.1,1.2-1.2,0.8-1.9,0.9c-5.8,0.2-11.6-0.5-17.4-0.8c-6.9-0.3-13.7-1.5-20.6-2c-5.5-0.4-11-1.4-16.6-2.1
		c-6.5-0.9-13-1.8-19.5-2.6c-8.6-1.1-17.1-2.6-25.5-4.1c-8.4-1.6-16.6-4.1-24.9-5.9c-6.1-1.3-12.2-3-18.5-3.7
		c-4.7-0.5-9.3-2.5-13.9-3.6c-6.9-1.6-13.5-4.2-20.1-6.6c-4.8-1.7-9.6-3.6-14.4-5.4c-4.5-1.7-9.1-3.7-13.8-4.9
		c-3.9-1-7.4-3.1-11.2-4.2c-3-0.9-5.8-2.3-8.8-3.3c-7.8-2.7-15.1-6.3-22.5-9.8c-7-3.3-14-6.3-20.9-9.7c-6-2.9-11.8-6.1-17.3-9.6
		c-4.1-2.6-8.4-4.8-12.5-7.4c-3.7-2.4-7.5-4.5-11.1-7.1c-3.5-2.5-7.3-4.5-10.5-7.3c-4.1-3.6-8.8-6.6-11.6-11.5
		c-0.3-0.6-1.4-0.7-2-1.2c-4.8-4.4-10.2-8.3-15.1-12.6c-4.3-3.7-8.3-7.7-12.3-11.6c-1.4-1.5-2.7-3.1-3.9-4.8
		c-0.7-0.8-1.5-1.8-0.7-2.9C111.2,454.4,112.4,453.7,113.7,453.6z"/>
	<path class="st1" d="M325.1,585.7c0.2,0.6,0.8,1,1.4,1.1c12.7,3.3,25.5,6.2,38.5,8.5c10,1.7,20,3.7,30,5.5
		c11.4,2,22.9,3.6,34.5,4.7c5.3,0.5,10.6,0.5,15.8,0.6c3.9,0.1,7.7,0.4,11.3,2c1.3,0.5,2.6,0.8,4,0.8c6.4,0.1,12.8-0.3,19,2
		c0.4,0.2,0.9,0.1,1.3-0.1c4-3,9.7-1.3,13.6-4.8c0.8-0.7,1.6-0.4,1.9,0.9c0.7,4-1.3,6.9-5,8.2c-10.6,3.8-21.5,2.9-32.4,3.1
		c-2.3,0-3.6-2.1-5.8-2.5c-0.6-0.1,0.4-1.1,0.6-1.8c0.2-0.6,1-1.4,0.1-1.9c-0.9-0.6-1.9,0-2.8,0.3s-0.7,0.6-0.3,1.3
		c0.8,1.4-0.5,1.5-1.3,1.4c-4-0.1-8,0.4-11.9-0.6c-2.4-0.5-4.8-0.7-7.3-0.5c-9.6,0.3-19.1-0.7-28.6-2c-5.9-0.8-11.8-1.2-17.7-1.8
		c-9.2-0.8-18.5-1.9-27.4-4.5c-1.6-0.5-4.3,0.4-4.3-2.8c0-0.5-0.9-0.8-1.5-1c-4.7-1.1-9.5-2.2-14.2-3.2c-7.6-1.6-15.4-2.6-22.5-6
		c-3.2-1.5-6.3-3-9.6-4.3c-2.1-0.9-3.1-3.3-5.5-3.6c-0.9,0.9,1.2,1.6,0.2,2.3c-0.9,0.5-2,0.5-2.9-0.1c-4.2-2.6-9.1-3.3-13.7-5
		c-1.6-0.6-3.9-0.7-1.1-3c0.8-0.6,0.7-1.8,0.6-2.8c-0.3-2.6,0.8-3,3-2.2c4.5,1.5,9.1,3,13.7,4.4c4.6,1.4,9.2,2.7,13.9,4
		C316.7,583.8,320.8,585.2,325.1,585.7z"/>
	<path class="st1" d="M103.2,441.1c0.1,1.6-0.2,3-1.4,3.6c-1.2,0.6-1.7-0.8-2.3-1.4c-11.1-10.9-22.7-21.2-35.5-29.9
		c-5.3-3.6-10.2-7.8-15.6-11.1c-5-3.1-10.1-6.2-15.1-9.4c-3.9-2.5-8.6-3.7-12-6.9c-1-1-2.6-2-1.4-3.5c1.1-1.3,2.3,0.1,3.5,0.7
		c4,2,8.1,3.9,11.9,6c8.4,4.5,16.2,10,24.1,15.3c8.6,5.8,17,11.8,25.1,18.2c5.9,4.6,11.5,9.5,16.9,14.8
		C102.5,438.5,103.4,439.7,103.2,441.1z"/>
	<path class="st1" d="M157.8,442.2c0,2-0.9,3.1-1.8,4.4c-1.1,1.6-2.1,2.9-1,5.3c1.2,2.7-1.5,4.1-3.4,5c-3.5,1.5-7.2,2.8-10.9,3.8
		c-5.6,1.6-10.6-1-15.7-2.6c-3.6-1.2-6.2-3.9-9.4-5.9c-0.9-0.6-1.8-1.4-2.9-1.3c-2.7,0.2-2.9-1-2-3.1c0.5-1.2,1.5-2.5-0.9-3.1
		c-1.1-0.2-0.3-1,0.2-1.3c2.2-1.2,4.1-0.8,5.9,0.9c1.9,1.9,3.4,4.1,5.6,5.8c3.9,3.1,8.2,1.8,12.3,1.6c2.8-0.1,5.5-0.5,8.3,0.1
		c4.8,1.1,8-1.7,10.8-5.1C154.3,445.1,155.6,443.5,157.8,442.2z"/>
	<path class="st2" d="M198.9,530.3c2.8,0.2,4.8,2.1,7.2,3c3.9,1.3,7.6,3.4,11.4,5.2c5.4,2.6,10.6,5.6,16.2,7.6
		c5.6,2,10.6,5,16.2,6.8c5.8,1.8,11.4,4.5,17.2,6.6c4.9,1.8,9.8,3.6,14.8,5.1c3.4,1.1,6.5,2.7,9.8,4.2c2,0.9,4.4,1,6.1,2.6
		C291.8,574.1,204.6,538,198.9,530.3z"/>
	<path class="st1" d="M133.4,434.4c-2.2,1.9-0.5,4.5-1.5,6.4c0,0.3,0.1,0.5,0.3,0.7c1.9,2,4.3,0.4,6.4,0.9c1,0.3,2.2-1,2.3-2.2
		s1.3-2,0.9-3.5c-0.3-1.1,1.1-1.7,2.3-1.7c1.4,0,2.4,0.7,2.3,2.1c-0.1,1.8-0.4,3.6-1.7,5c-3.6,4.1-12.2,4.6-16.2,1
		c-2.1-1.9-2.7-6.8-1.1-9.1c0.8-1.1,1.9-1.6,3-0.5C131.3,434.3,132.1,434.7,133.4,434.4z"/>
	<path class="st1" d="M104.7,466.5c0-3.8,0-7.6,0-11.3c0-0.9,0-2.3,1.2-2.4c1.1-0.1,1.5,1.1,1.8,2.1c0.2,0.7,0.3,1.4,0.2,2.1
		c-1.2,6.6-0.2,13.3-0.5,19.9c0,0.8,0.2,1.6,0.6,2.3c0.3,0.6,0.9,1.4,0,1.9c-0.8,0.4-1.3-0.3-1.9-0.7c-0.9-0.7-1.5-1.9-1.4-3.1
		C104.8,473.7,104.7,470.1,104.7,466.5L104.7,466.5L104.7,466.5z"/>
	<path class="st1" d="M243.3,490c2.7-2.3,5.2-4.5,7.7-6.6c4.1-3.4,8.1-6.8,12.2-10.3c2.3-2,2.2-2.4-0.5-3.7
		c-0.6-0.3-1.7-0.4-1.2-1.4c0.7-1.4,2-2.4,3.6-2.5c0.9-0.1,1.6,0.5,1.4,1.5c-0.2,1.1-0.4,1.9,1,2.3c0.8,0.2,0.7,0.8,0.2,1.2
		c-1.7,1.6-2.7,3.7-4.7,5.2c-5.8,4.5-12.1,8.4-17.2,13.8C245.3,490.2,245.2,490.1,243.3,490z"/>
	<path class="st1" d="M330,393.5c1.6-0.1,2.7,0.1,3.5,1c0.5,0.6,1.8,1,1.1,2.1c-0.5,0.8-1.3,1.8-2.4,1.5c-4.6-1.4-8.6,0.3-12.6,2.2
		c-0.7,0.3-1.5,1-2.1,0c-0.7-1,0.4-1.3,0.8-2c0.8-1.2,2.1-1.7,3.4-2.1C324.4,395.2,327.4,394.3,330,393.5z"/>
	<path class="st1" d="M281.6,434.9c1.1,0.3,1.8-0.2,2.5-0.8c2.4-1.9,4.8-3.8,7.7-4.9c0.9-0.3,1.8-0.8,2.9-0.7c0.9,0.1,2.4-0.5,2.3,1
		c0,1.2-0.3,3-2.1,2.9c-4.2-0.2-7.4,1.8-10.5,4.2c-0.8,0.7-1.8,0.9-2.8,0.7c-0.9-0.2-1.9-0.7-1.7-1.8
		C279.9,434.6,280.8,434.6,281.6,434.9z"/>
	<path class="st2" d="M332.2,388.4c-0.5-8.1,8.3-16.8,17.1-16c-0.4,1.3-1.6,1.7-2.7,1.9c-6.9,1.5-11,6-13.5,12.4
		c-0.2,0.4-0.3,0.8-0.5,1.2C332.5,388.1,332.3,388.2,332.2,388.4z"/>
	<path class="st1" d="M314.9,417.3c-0.7-0.2-1.2-0.3-1.6-0.4c-1.4-0.5-3.5-0.2-3.7-2.1c-0.1-1.7,2-2.1,3-3.1
		c1.2-1.2,2.5-0.2,3.6,0.5c0.1,0.1,0.1,0.1,0.2,0.2c0.9,0.9,2.9,1.9,2.3,2.9S316.1,416.8,314.9,417.3z"/>
	<path class="st2" d="M284.5,428.1l0.9-0.3c1.1,0.5,1.6-0.5,2.3-1c1.6-1.5,3.5-2.5,5.7-3c1.2-0.3,2.6,0,3.6,0.7
		c0.5,0.3,0.7,0.9,0.5,1.4c-0.2,0.5-0.7,0.5-1.1,0.4c-2.3-0.3-4.3,0.1-6,2c-1.2,1.3-3.2,0.9-4.8,1.3
		C284.4,429.9,284.6,428.7,284.5,428.1z"/>
	<path class="st1" d="M493.2,592.6c1.3-1.1,3-1.5,3.3-3.3c0.1-0.3,0.4-0.6,0.7-0.7c0.5-0.1,0.8,0.4,0.9,0.8c0.6,2.4,0.5,4.8-0.9,7
		c-0.8,1.2-1.4,1-1.9-0.2C494.8,594.9,494.6,593.5,493.2,592.6z"/>
	<path class="st2" d="M325.1,585.7c-4.3-0.5-8.4-1.9-12.4-3.3c0.8-2.1,2.7-1.3,3.9-1c2.9,0.7,5.8,1.6,8.6,2.7
		C326.5,584.5,326.5,585.2,325.1,585.7z"/>
	<path class="st2" d="M136.6,429.2c1.9-0.1,3.8,0.5,5.3,1.7c1,0.7,1.2,1.6,0.5,2.5c-0.7,0.8-1.6,0.7-2.4,0.1
		c-0.8-0.6-1.4-1.9-2.9-1.4c-1.5,0.5-2.6-0.7-2.6-1.9C134.3,428.7,136,429.4,136.6,429.2z"/>
	<path class="st2" d="M286.2,443.7c2.1,1.7,3.5,4.1,5.3,6.1c-0.1,0.6,0,1.5-0.4,1.8c-0.8,0.5-1.2-0.5-1.7-0.9c-1.5-1.3-3-2.6-4.3-4
		C283.6,445,283.8,443.9,286.2,443.7z"/>
	<path class="st2" d="M337.3,393.7c2.5,0.9,4.7,2.6,6,4.9c-0.3,1-0.4,2.3-2,0.9c-1.6-1.4-3.3-2.5-4.8-3.8c-0.5-0.4-1.1-0.8-0.9-1.5
		C335.9,393.4,336.9,394.2,337.3,393.7z"/>
	<path class="st1" d="M322,412.3c0.6-1.1,1.4-0.8,2.2-0.3c2.7,1.5,4.9,3.6,5.5,7c-1.6-0.4-2.1-2.3-3.6-2.5
		C325.1,414.7,323.6,413.5,322,412.3z"/>
	<path class="st2" d="M301.8,412.3l1.6-1.2c1.7,0,2.9-1.2,4.4-1.7c1-0.3,1.9-0.5,2.8,0.1c0.5,0.4,0.7,1.1,0.4,1.7
		c-0.5,1.2-1.6,1.1-2.5,1.1c-1.6,0.1-3.2-0.2-4.8,0.7C302.9,413.4,302.3,412.8,301.8,412.3z"/>
	<path class="st2" d="M322,412.3c1.6,1.2,3.1,2.4,4.1,4.2c-0.4,0.9-1,1.8-2,0.8c-1.7-1.8-4.1-2.9-5.8-5.2
		C319.7,411.5,320.8,412,322,412.3z"/>
	<path class="st2" d="M269.8,443.1c0.8-1.6,2.3-1.8,2.8-3.1c0.4-1,1.3-1.1,2.3-1c0.8,0.1,0.9,0.7,1,1.4c0,1-0.1,2-1.2,2.5
		C273.1,443.5,271.7,443.2,269.8,443.1z"/>
	<path class="st2" d="M305.1,428.7l1.4,2c-0.3,0.8-0.6,1.5-1.7,0.9c-1.5-0.8-3.1-1.4-4.6-2.2c-0.5-0.2-1-0.7-0.8-1.2
		c0.2-0.9,1-0.6,1.6-0.5C302.4,427.9,303.7,428.3,305.1,428.7z"/>
	<path class="st2" d="M321.2,393.8c1.8-0.9,2.6-3,4.8-2.7c0.6,0.1,1.3,0,1.6,0.7c0.4,0.9-0.5,1.1-1,1.3
		C325.1,394.1,323.5,394.9,321.2,393.8z"/>
</g>
</svg>
