<?xml version="1.0" encoding="utf-8"?>
<!-- Generator: Adobe Illustrator 19.2.1, SVG Export Plug-In . SVG Version: 6.00 Build 0)  -->
<svg version="1.1" id="Calque_1" xmlns="http://www.w3.org/2000/svg" xmlns:xlink="http://www.w3.org/1999/xlink" x="0px" y="0px"
	 viewBox="0 0 500 1000" style="enable-background:new 0 0 500 1000;" xml:space="preserve">
<style type="text/css">
	.st0{fill:#7776A9;}
	.st1{fill:#5E5D85;}
	.st2{fill:#2D2B41;}
</style>
<title>cobbler-shaker</title>
<g>
	<path class="st0" d="M124.3,195c3.1-2.3,5.5-5,4.4-9.3c0.3-0.4,0.2-1-0.2-1.3c-0.1-0.1-0.3-0.1-0.4-0.2c-0.8-4.2-0.1-8,2.9-11.2
		c0.6,0,1-0.5,1-1c0,0,0,0,0-0.1l0.1-0.1c1.2-0.5,2.4-0.9,2.2-2.6l0.2-0.2c0.9-0.1,0.8-0.7,0.7-1.4c0.9-1.1,1-2.6,1.4-3.9
		c1-0.8,0.9-1.8,0.6-2.9l0.4-3.8c1.4-3.3,1-6.7,0.8-10.1l0.3-6.6c0.9-0.9,0.7-1.5-0.5-1.8v-0.2c1,0.4,3.1-2.1,3,1.2
		c-0.3,8.6-1.1,17.1-2.2,25.6c-0.6,4.2-0.2,5.9,5.2,4.6l13,0.2c-2.9,1.3-6,0.9-9,1.4c-4.3,0.8-8.8,0.6-12.7,3
		c-0.9,0.2-1.7,0.6-2.3,1.3c-1.8,0.8-2.8,2.1-2.3,4.3v1.6c-0.5,1.2-0.7,2.3,0.8,3l0.1,0.1c-0.2,0.4,0,0.9,0.5,1.1
		c0.1,0.1,0.3,0.1,0.4,0.1c-0.5,3.5,0.1,4.5,3.4,5.5c1.4,0.4,2.9,0.6,4.3,0.9c0.1,0.5,0.5,0.8,1,0.8c5.2,0.2,10.1,2.2,15.2,2.7
		c1.2,0.1,2.4-0.2,3.5,0.6l-10.6,0.2c-4.2,0-8.3,0.3-12.5,0.9c-1.3,0.1-2.2,1.2-2.1,2.4c-0.2,1.1,0.6,2.2,1.8,2.4c0,0,0,0,0.1,0
		c1.2,0.3,2.4,0.5,3.6,0.6c5.7,0.4,11.5,0.2,17.2,1.1c19.3,3.1,38.7,3.7,58.2,3.3c1.1,0.1,2.2-0.1,3.2-0.6c1.3,0.2,2.7,0.5,3.9-0.4
		l1.1-0.2c4.8,0.7,9.5,0,14.3-0.3c-2.6-0.9-5.3-0.7-8-0.8c-0.9,0-2.4,0.6-2.4-1.3l12.3-0.3c1,0.7,2.1,0.3,3.1,0.2
		c0.8-0.1,1.8-0.5,1.5-1.5c-0.3-1-1.2-0.9-2.1-0.4l-7.7-0.3c-2.1-2-5.1-1.7-7.1-2.6c4.6-1.3,10-0.3,15.1-1.7
		c-2.4-1.5-5.2-0.7-7.7-2.2c-1.3-0.8-4.1-0.8-6.3-0.9c-3.9-0.1-7.8-0.4-11.6-0.5c-7.2-0.2-14.5-0.4-21.7-0.3
		c-3.5,0-6.9-1.1-10.4-0.6l10.1-0.5c0.4,0.6,0.8,0.5,1.2-0.1l5-0.2c2.6,0.4,5.3,0.3,7.9-0.4l6.1-0.4c0.4,0.4,1.2,0.4,1.6,0
		c0,0,0.1-0.1,0.1-0.1l4.9-0.3c0.5,0.5,1.3,0.4,1.7-0.1c0,0,0,0,0,0l6.1-0.5c0.3,0.3,0.7,0.4,1,0.1c0.1-0.1,0.1-0.1,0.2-0.2l6.1-0.4
		c0.5,0.4,1.3,0.4,1.8-0.1c1.7-0.1,3.4-0.2,5-1.1c0.6,0,1.4-0.5,1.2-0.9c-0.7-1.6,0-2.5,1.1-3.5c0.6-0.6,0.3-1.6,0.1-2.4
		c-0.2-0.8-1.1-1.3-1.1-2.2c0-3.1-1.9-3.9-4.7-3.5l-2.2-0.2c-1.6-0.9-3.4-1.2-5.1-0.9l-3.7-0.3c-2.2-0.9-4.7-1.1-7-0.5l-1-0.1
		c-3.7-1.1-7.7-0.2-11.5-1.1c0.6-0.9,1.4-0.6,2.1-0.6c6.6,0,13.2,0,19.8-0.1c3.7,0,7.4-0.2,11.1-0.3c0.6,0,1.4-0.1,1.5-0.9
		c0.1-0.9-0.8-0.9-1.4-1.1c-2.7-0.7-5.4-0.2-8-0.3c-0.8,0-1.8,0.6-2.4-0.7l1.8-1.2l2.1-0.2c5.6,0.6,8.6-1.5,8.2-6.4
		c-0.7-9.6,1.3-19.2-0.5-28.8c-0.8-4.3-0.4-8.9-0.2-13.3c0.2-2.8-1.2-6,1.2-8.5c0.1-0.2,0-0.4-0.1-0.6c-2.3-0.2-1.1-2-1.3-3
		c-0.4-2.9,0.7-5.9-0.6-8.7c-0.1-0.4,0-0.9,0.2-1.3c2.5-2.1,1.1-4.9,1.2-7.3l0.3-7.6c0.4-0.2,0.5-0.8,0.3-1.2
		c-0.1-0.2-0.3-0.3-0.4-0.4l0.1-2.9c0.4-0.2,0.5-0.6,0.4-1c-0.1-0.1-0.2-0.3-0.3-0.3l-0.1-2.9c0.8-1.1,0.8-2.5,0-3.5
		c0-0.2-0.1-0.3-0.3-0.3c-1.3-2.1-0.9-4.6-1-6.9c-0.3-10.3-0.3-20.7-0.4-31c0-1.7,0-3.5-1.9-4.5l0,0c0-0.9-0.7-1.7-1.6-1.8
		c-0.6-0.8-1.3-1.3-2.2-1.6c-0.7-1-1.8-1.7-3-1.8c-0.5-0.6-1.2-0.9-1.9-1.1c-0.6-0.8-1.2-1.5-2.4-1l-6.7-1.8
		c-0.3-0.6-0.9-0.8-1.5-0.5c-0.1,0-0.1,0.1-0.2,0.1l-2.8-0.8c-0.3-0.5-1-0.7-1.5-0.5c0,0,0,0-0.1,0l-3.4-0.6c-1.2-0.8-2.6-1.1-4-0.8
		l-2.2-0.3c-1.6-0.8-3.4-1.1-5.1-0.7l-3.2-0.3c-2.7-1-5.6-1.2-8.5-0.8c-6.3-0.4-12.5-0.4-18.8,0.1c-1.3-0.7-2.6-0.2-3.8-0.1
		c-13.9,1.1-23.4,6.8-26.6,21.9c-2.4,10.9-3.9,21.9-3.6,33.1c0,1.2,0.4,2.4-0.3,3.5c-0.2,0.4-0.6,0.6-1.1,0.7
		c-0.6,0-0.6-0.6-0.5-1.1c0.9-6.3,0.2-12.6,1-18.9c0.3-2.6,1.2-5.1,0.7-7.7l0.3-2.2c1-0.8,0.4-1.8,0.3-2.8c0.7-1,0.4-2.3,0.8-3.3
		c0.7-0.8,0.4-1.9,0.8-2.9l0.3-2.2c0.6-0.1,0.6-0.6,0.5-1.1c0.7-0.6,0.3-1.5,0.6-2.3c0.8-0.3,1.4-0.8,0.9-1.7c0-1.2,1.4-1.9,1.3-3.2
		c1,0.1,1.3-0.4,0.9-1.3l0.7-1c0.4,0,0.6-0.2,0.5-0.6c1.9-2.6,4.2-4.8,6.7-6.8c0.7,0.1,1.3,0.1,1.4-0.8l1.5-0.8
		c0.8,0.3,1.1-0.2,1.4-0.8l1.4-0.4c0.4,0.3,1,0.1,1.3-0.3c0.1-0.1,0.1-0.3,0.1-0.5l1.4-0.4c1.1,0.5,1.7-0.1,2.3-0.9l1.1-0.2
		c1.2,0.5,2.6,0.1,3.4-1l1.1-0.2c1.5,0.4,2.9,0.4,4-1l1.1-0.1c1.8,0.3,3.7,0.7,5.1-1l2.2-0.2c2,0.2,4.1,1.2,5.7-0.9l3.3-0.3
		c3.3,0.8,6.7,0.2,10,0.2c0.7,0,1.2-0.5,1.5-1.1l7.5-0.2c0.3,0.3,0.8,0.5,1.3,0.4c8.4-0.1,16.9,0,25.3-0.2c1.6,0,3.5,0.2,5-1.2
		l13.1-0.1c0.6,0.8,1.5,0.4,2.3,0.5c5.1,0,10.1,0,15.2,0c0.9,0,1.8,0.4,2.6-0.5l4.7,0.1c0.2,0.8,0.9,1.3,1.6,1.3
		c4.6-0.1,9.2,0.6,13.7-0.2l2.5,0.1c0.3,0.7,1,1.2,1.8,1.2c4.7-0.6,9.3,1.2,13.9,1.2c1.7,0,3.8-0.8,4.8,1.6c0.4,0.5,1,0.6,1.5,0.3
		c3.7-1.7,6.4,1.1,9.6,1.7s5.3,2.7,8.2,3.8c2.3,0.8,4.5,2.1,6.4,3.7c6.2,5.1,8.7,12.5,10.8,19.9c1.4,4.8,1,10,2.2,15
		c1.3,5.5,0.5,11.5,0.6,17.2c0,0.9,0.2,2.2-1.2,2.1c-1.3-0.1-1-1.3-1-2.2c-0.1-12.3-1.6-24.6-4.7-36.6c-1.9-7.2-5.6-12.8-12.7-15.9
		c-5.3-2.3-10.9-3-16.5-3.2c-13.7-0.4-27.5,0.6-41,3c-6.6,1.1-13,2.9-19.2,5.4c-6.5,2.7-6.9,3.4-6.7,10.2c0.4,12.4,0.7,24.8,1,37.3
		c0,0.7-0.5,0.7-0.9,0.8c-1.3-0.6-1.2,0.3-1.2,1.1c0.1,5.7,0.1,11.5,0.2,17.2c-0.5,1.8-0.2,3.7-0.2,5.5c0,0.7-0.4,1.7,0.6,1.9
		c1,0.2,0.7-1.1,1.3-1.4c-0.1,2.1,0.2,4.2,0.1,6.3c-0.2,10.9-0.1,21.7,0.3,32.6c0.4,10.7,0.7,21.4,0.2,32c-0.1,2.5,0.8,3.1,2.9,3.2
		c5.9,0.4,11.9,0.7,17.8,1.4c12.2,1.3,24.5,0.7,36.8,1c13.5,0.4,26.9-0.3,40.4-0.5c2,0,3.7-1.6,3.7-3.6c0-0.2,0-0.4,0-0.5
		c-1.4-8.8-1.8-17.7-2.6-26.6c-0.1-0.9-1-2.2,0.7-2.4s1.6,1.2,1.6,2.3c0.4,8.7,1.2,17.4,2.6,26c0.5,3-0.2,5.3-3.7,6.1
		c2.1,0.2,4.1,0.7,6,1.4c6.2,2,7.8,6.7,4.2,11.9c-0.5,0.7-0.7,1.5-0.5,2.3c0.6,1.6,0,3.4-1.4,4.4c-2.2,1.9-2.1,3.8-0.2,5.9
		s1.9,3.4-0.4,5.2c-0.4,0.3-0.9,0.4-0.7,1c0.2,0.5,0.9,0.6,1.4,0.6c7.1,0,14.3,0.6,21.3,1.7c3.8,0.4,7.7,1.1,11.5,1.9
		c4,1,6.6,4.2,10.2,5.6c10.3,4.2,15.3,13,19,22.6c3.2,8.3,4.3,17.2,6,25.9c2,10.1,3.1,20.3,4.9,30.4c2.3,13,4.2,26.2,8.2,38.8
		c2.7,8.7,4.5,17.8,10.7,25.1c3.4,4.1,6.2,8.7,10.2,12.4c0.6,0.6,1.1,1.3,1.4,2c1.1,3.4,1.9,6.9,2.3,10.4c0.9,8.6,0.4,17.3,0.5,25.9
		c0.1,11.3-0.2,22.7,0.9,34c0.2,1.1-0.4,2.3-1.4,2.7c-3.3,0.9-3,3.1-2.6,5.6c0.1,0.7,0,1.5,0,2.2c0.2,2.5,0.4,5,0.7,7.8
		c1.4-1.1,1.3-2.1,1.2-3.3c-0.1-2-0.7-4.2,1.3-5.7l0.1,6.1c-0.3,0.5-0.5,1.2-0.4,1.8c0,10.3,0,20.7,0,31c-0.1,0.6,0,1.3,0.4,1.8
		l-0.1,5.5l-0.9,1c-0.9-1.1,0.7-3.5-1.3-3.4c-1.3,0.1-0.3,2.2-0.2,3.4c0,0.2,0,0.4,0,0.6c-0.1,1.8,1.9,2.7,1.3,5.1
		c-0.8,3.5-0.8,7.2,0,10.7l-0.1,6.6c-2,4-1.5,8.2-1,12.3l-0.1,3.3c-1.1,4.1-1.6,8.3-1.6,12.5c0,3.5-0.8,7,0.3,10.4l-0.2,1.4
		c-0.7,0.1-1.1,0.7-1.1,1.4c-0.3,4.3-0.7,8.6,0.1,12.8l-0.1,0.8c-2.2,3.3-1.5,6.8-1,10.3l-0.3,2.7c-2.1,2.6-1.3,5.5-0.8,8.4
		l-0.2,2.5c-2,2.5-1.4,5.3-0.9,8.1l-0.3,3.9c-1.8,2-1.2,4.4-0.8,6.7l-0.3,3.9c-1.5,2.1-1.4,4.4-0.8,6.7l-0.3,3.3
		c-1.3,2-1.6,4.5-0.9,6.8l-0.3,3.8c-1.2,1.8-1.5,4.1-0.9,6.2l-0.2,3.8c-0.4,0.3-0.9,0.6-0.2,1.1l-0.1,0.9c-1.5,1.2-1.1,2.7-0.7,4.2
		l-0.2,2.7c-0.4,0.3-0.7,0.7-0.1,1.1l-0.1,1.4c-1.3,1-1.1,2.3-0.7,3.7l-0.2,2.7c-0.7,0.5-0.8,1.4-0.3,2.1c0,0.1,0.1,0.1,0.1,0.1
		l-0.2,1.4c-1.2,2.3-1.5,5-0.9,7.6l-0.2,1.4c-1.6,2-1.6,4.2-0.9,6.4l-0.3,1.9c-1.3,1.5-1.6,3.5-0.9,5.4l-0.2,1.9
		c-1.3,1.3-1.6,3.2-0.9,4.8l-0.3,2.2c-1.2,1.2-1.5,2.9-0.9,4.5l-0.3,2.2c-1.1,1.2-1.5,3-0.9,4.6l-0.3,2.7c-1.1,1-1.5,2.6-0.9,4
		l-0.5,4.1c-1.2,0.6-1,1.6-0.6,2.6l-0.5,4.1c-1.1,0.6-1.1,1.5-0.7,2.6l-0.2,2.2c-0.5,0.3-0.7,0.7-0.1,1.1l-0.1,0.8
		c-1.2,0.6-1.1,1.5-0.7,2.6l-0.2,1.6c-0.5,0.3-0.7,0.7-0.1,1.1l-0.2,1.4c-0.9,0.5-1.2,1.6-0.7,2.5c0,0,0,0.1,0,0.1l-0.1,1.1
		c-0.5,0.3-0.6,0.7-0.1,1.1l-0.3,2.2c-1.3,1.1-1.2,2.5-0.8,3.9l-0.4,2.7c-1.1,1-1.4,2.6-0.8,3.9l-0.4,2.7c-1.3,0.9-1.2,2.2-0.8,3.5
		l-0.4,3.2c-1.2,0.9-1.2,2.1-0.8,3.5l-0.3,2.7c-1,0.8-1.3,2.3-0.8,3.5l-0.3,2.7c-1,0.8-1.3,2.2-0.8,3.5l-0.6,4.1
		c-0.7,0.3-1,1-0.8,1.7c0,0.1,0.1,0.2,0.2,0.3l-0.6,4.1c-0.7,0.3-1,1-0.8,1.7c0,0.1,0.1,0.2,0.2,0.3l-0.6,4.1
		c-1.5,1.4-1.3,3.1-0.9,4.9l-0.3,1.6c-1,0.8-1.3,2.2-0.7,3.4l-0.5,2.7c-0.9,0.5-1.3,1.7-0.7,2.7c0,0.1,0.1,0.1,0.1,0.2l-0.4,2.7
		c-0.9,0.5-1.3,1.6-0.9,2.6c0,0.1,0.1,0.2,0.1,0.2l-0.4,2.2c-0.9,0.8-1.4,1.7-0.8,2.9l-0.3,2.1c-1,0.6-1.4,1.8-0.9,2.9l-0.4,2.5
		c-1.1,0.4-1,1.1-0.7,2l-0.2,1.6c-0.7,0.8-1.4,1.7-0.9,2.9l-0.6,3c-0.5,0.1-0.8,0.6-0.7,1.1c0,0.2,0.1,0.3,0.2,0.4l-0.6,3
		c-1,0.7-1.3,2-0.8,3.1l-0.1,0.8c-1.3,0.9-1.3,2.3-1.1,3.7l-0.2,1c-1,0.6-1.3,1.8-0.8,2.8l-0.3,1.4c-1,0.7-1.4,2-0.9,3.2l-0.3,1.6
		c-0.9,0.4-1.3,1.4-0.9,2.3c0,0,0,0,0,0.1l-0.5,2.5c-1,0.4-1,1.1-0.7,2l-0.2,1.6c-0.7,0.6-1.3,1.3-0.9,2.3c-2.6,9.2-5,18.3-7.8,27.5
		c-2.4,8-5,16-7.7,24c-5.3,15.3-12.3,30-21.1,43.7c-2.9,4.6-7.5,7.2-12.3,9.6c-0.9,0.2-1.8-0.7-2.3-0.5c-4,1.2-8.1,1.2-12.1,2
		c-7.1,1.4-14.1,2.7-21.2,4.4c-3.2,0.7-6.7,0.3-9.8,2.3c0.8,0.5,1.7,0.4,1.9,1.3c-2.8,0-5.5-0.9-8.2-0.6c-5.2,0.6-10.3,2.5-15.7,1.8
		c-3.1-0.4-6.3,0.2-9.4-0.2c-3.6-0.4-7.5,0.6-10.7-0.9c-5.1-2.4-10.3-2.9-15.8-2.8c-7.7,0.2-15.4,0-23.1,0c-0.7,0-1.6,0.3-1.9-0.7
		c-0.2-0.8,0.6-1,0.9-1.5c4.4-5.6,5.9-12.1,5.6-19.2c0.2-20,0.3-40,0-60c0.7-1.2,0.3-2.6,0.3-3.8c0-81-0.1-161.9-0.2-242.9
		c0-35.8,0.1-71.6,0.2-107.3c0-47.4,0-94.8,0-142.2c0-11.1,0-22.3-0.1-33.4c0-2.5-0.4-4.7-3.8-5.3c-5-0.9-9.9-2.4-14.9-3.5
		c-1.6-0.3-3.1-1.5-4.8-0.8l-1-0.1c-3.7-1.2-7.6-1.3-11.5-1.5c-5.9-0.5-11.7-1.8-17.3-4c-0.6-0.2-1.7-0.3-1.7-1.2
		c0-0.9,1.1-1.2,1.8-1.4c4.8-1.3,9.6-2.6,14.4-4c8.5-2.6,16.7-5.8,24-11.1c4.6-3.3,8.6-7.3,13.5-10.1c1.3-0.7,1.2-1.9,1.2-3.2
		c0-13.3,0-26.6,0-39.8c0-0.9,0.2-1.8-0.3-2.7c0.2-17,0.3-34,0-51.1c0.5-3,1.1-5.8-2.1-8.1c-1.9-1.4-3.8-2.9-5.7-4.3
		c-4.3-3.3-9-6.2-14.4-7.6c-7.8-2.1-15.6-3.9-23.6-5.3c-5.8-1.1-11.6-2.6-17.5-2.5l-2.1-0.3c-1.7-0.9-3.8-1.2-5.7-0.8l-2.1-0.3
		c-2.1-1.2-4.4-1.2-6.8-0.9l-3.3-0.2c-0.6-0.9-1.4-0.8-2.3-0.4l-2.2-0.1c-0.2-0.4-0.6-0.5-1-0.4c-0.1,0-0.2,0.1-0.2,0.2l-8.8-0.5
		c-1-1-2.3-0.7-3.4-0.8c-4.1-0.2-8.2-0.2-12.2-0.4c-6.7-0.4-13.4-0.2-20,0.5c-6.8,0.8-13.4,2.7-19.6,5.7c-4.3,2.1-8.7,4.9-11.1,9.7
		c-2.2,4.4-4.8,8.6-6.2,13.5c-1.2,4-2.3,8-3.2,12c-0.8,3.8-1,7.9-1.7,11.8c-0.9,5.3-1.9,10.7-2.6,16c-0.6,4.2-1.5,8.5-1.6,12.8
		c-0.1,2.3-0.9,4.5-1.3,6.8c-0.8,4.4-0.9,8.9-2,13.2c-0.3,1.2-1.6,3.3,0.3,4.7l-0.2,0.6c-1.2,0.3-1.5,0.8-0.4,1.7l-0.3,1
		c-0.4,0.1-0.8,0.3-1.2,0.5c-0.5,2.8-1.1,5.7-1.7,8.5c-0.9,4.2-2,8.3-3.4,12.3c-1.8,4.9-4,9.8-5.6,14.8c-1.3,4-2.3,7.9-6.7,9.8
		c-1.3,0.6-2.4,1.4-3.4,2.4c-1.6,1.5-3.6,2.9-3.5,5.5c-0.1,0.1-0.2,0.2-0.2,0.4c-1.4,0.3-1.3,1.5-1.5,2.6
		c-1.3,6.7-1.2,13.4-1.1,20.1c0.1,14.1,0,28.2,0,42.2c0,2.1-0.4,4.2-1.2,6.1l-0.9-0.3c-0.3-1-1-1-1.8-1c-0.1-0.1-0.2-0.3-0.3-0.4
		c0.5-1.3,0.5-2.8,0.1-4.1l0.2-5.5c1-2.8,0.8-5.8,0.8-8.8c0.1-11.5,0-23,0-34.4c0-1.7,0.5-3.5-0.2-5.2l0.1-2.9
		c0.5-0.9,0.6-2,0.1-2.9l0.4-3.8c1.1-0.9,0.9-2.2,0.7-3.4l0.3-1.6c0.6-0.1,0.8-0.4,0.5-0.9c2-5.3,5.9-9.3,9.3-13.7
		c7.3-9.3,11.9-19.9,14.6-31.5c2.7-11.9,4.6-23.9,6.7-35.8c1.9-11.1,3.1-22.4,5-33.6c2.1-12.3,4.9-24.5,11.7-35.3
		c1.5-2.1,3.1-4.1,4.9-6c0.9,0.1,1.2-0.2,1.1-1.1l0,0c0.9,0.2,1.2-0.2,1.2-1.1l1.6-1.2c0.9,0.2,1.3,0,1.2-1c0.2,0,0.3-0.1,0.4-0.3
		c0.8,0.5,1.3,0.2,1.4-0.7l0.8-0.4c1,0.5,1.6,0.4,1.7-0.9l0.5-0.2c1,0.4,1.8-0.1,2.8-0.4c4.1-1.2,8-3.2,12.5-2.7
		c1.8,0.2,1.1-0.9,1-1.7l1.1-0.1c0.5,1.5,1.4,1.7,3,1.6c4.1-0.2,7.9-2.4,12.2-1.5c0.5,0.2,1.2,0,1.5-0.5c0.4-0.7-0.2-1.2-0.6-1.6
		C124.2,198.3,123.8,196.6,124.3,195z M249.7,82.4c0.6-0.6,0.6-1.6,0-2.2l-0.2-1.6c0.4-1,0.3-2.1-0.1-3v-1.4c0.3-1.6,0.4-3.3,0.3-5
		c-0.1-0.8-0.7-1.4-1.5-1.4c-1.1,0-1,0.9-1,1.6c0,1,0,2,0,3.1c0,6.8-0.1,13.5-0.1,20.3c0,0.8-0.2,1.9,1,1.9c1.2,0.1,0.9-1.1,0.9-1.7
		c0.6-3.1,0.8-6.4,0.5-9.5L249.7,82.4z M386.8,949c0.4-1.5-0.8-2.5-0.9-3.8c-0.1-2.4,1.7-4.1,2.1-6c1.1-5.8,5.5-10.8,4.3-17.1
		c0-0.4,0.1-0.7,0.3-1c1.3-2.7,1.6-5.9,2.3-8.8c1-4.9,1.8-10,3-14.8c1.7-7,2.7-14.1,4.7-21.1s4.1-14,6.2-21
		c1.6-5.6,3.4-11.3,5.1-16.8c1.8-6,4-12.1,4-18.6c0-0.7,0.2-1.5,0.6-2.1c3.2-4.8,2.5-10.8,4.8-15.9c2.1-4.6,0.3-10.1,4.2-14.6
		c2-2.3,2.1-6.6,2.4-10.1c0.4-4.4,0.4-9.1,1.7-13c1.9-5.6,1.9-11.4,3.3-17c0.8-3.2,0.7-6.8,1.4-10c1.3-5.5,2.1-11.1,2.9-16.7
		c0.9-6,2.1-12,3.1-18c1.2-7.3,1.6-14.6,3.2-21.9c1.1-5,1.1-10.3,2.2-15.4c1.1-5.4,1.5-11,2.3-16.5c1.4-9.5,2.2-19.1,3.2-28.6
		c0.9-9.2,1.8-18.4,2.5-27.7c0.5-6.9,0.9-13.8,1.3-20.7c0.4-6.9,1.2-13.7,1.6-20.7c0.7-10.4,0.9-20.9,2-31.3c0.4-3.4,0-6.9,0.3-10.3
		c1-10.5,1.2-21.1,1.4-31.7c0.2-10.8-0.1-21.6-0.3-32.3c0-1.2-0.1-2.4,1.4-2.6c2.5-0.4,2.4-2.1,2.4-3.9c-0.1-9.4-0.1-18.8-0.3-28.2
		c-0.2-11.1,0.3-22.2-0.7-33.4c-1-10.5-10.7-14.6-18.4-14.3c-2.6,0.1-5.1-0.6-7.7-0.3c-0.8,0.1-1.5-0.5-1.6-1.3c0,0,0,0,0,0
		c-0.2-0.8,0.2-1.7,1-2.1c2.1-0.9,4.1-2.4,6.3-2.7s2.2-1.6,2.2-3.1c-0.1-3.9-1.8-7.5-2.8-11.3c-2.3-8.4-4.5-16.8-6.3-25.4
		c-2.2-10.6-3.8-21.4-5.6-32c-1.6-9.8-3.4-19.6-5-29.4c-1.4-8.8-3.3-17.5-7.1-25.6c-3-6.4-7.2-11.7-14.1-14.6
		c-4.3-1.7-8.7-3-13.3-4.1c-6.3-1.7-12.7-2.5-19.2-2.4c-8,0.3-16,0.4-23.9,1.4c-9.4,1.1-18.8,1.8-28.2,3.1
		c-13.2,1.7-26.3,4-39.2,6.9c-6.7,1.6-13.1,3.8-18.9,7.8c-1.6,0.9-2.5,2.7-2.4,4.6c0.2,17.9,0.3,35.9,0.5,53.8
		c0.1,18.2,0.3,36.4,0.4,54.7c-0.1,1.5,0.6,2.9,1.9,3.7c4.2,2.7,8.5,5.1,13,7.4c5.5,2.8,11.3,5,17.2,6.7c5.6,1.7,11.4,3,17.1,4.5
		c0.9,0.2,1.7,0.4,1.8,1.4c0.2,1.2-0.9,1.2-1.6,1.5c-6.6,2.6-13.5,4-20.5,4.3c-8.4,0.5-16.8,1.9-25,4c-2.6,0.7-5.8,0.8-3.4,4.9
		c0,0.2,0,0.4,0,0.5c-0.4,4.6,0,9.3,0.1,13.9c0.4,23-0.4,45.9,0,68.9c0.2,11.4-0.1,22.9-0.1,34.3c0,23.3,0.1,46.6,0.2,70
		c0.1,45.6,0.1,91.1,0.2,136.6c0,35.2,0.1,70.5,0.2,105.7c0.1,29.5,0,58.9,0.2,88.4c0.2,29.5-1.4,58.7,1.2,88.1
		c1.2,0,1.2-1.2,2.1-0.7c2.7,1.4,5.8,2.1,8.1,4.2c2.3,2.1,4.9,2.5,7.7,2.7c1.5,0.1,3,0,4.5,0c1.1,0,2.7-0.3,1.6,1.8
		c-0.6,1.1,0.6,0.8,1.1,0.8c3.6,0.2,7.2,0.2,10.9,0c2.4-0.2,5.6,0.2,6.4-3.2c0.9-4,3.7-4.7,7.2-5.2c3-0.4,6.3-0.3,8.9-2.5
		c1.2-0.8,2.5-1.2,3.9-1.3c5.6-0.9,11.4-1.1,16.9-2.6c4.2-1.3,8.6-2.3,13-2.8c5.8-0.5,10.1-4.3,15.1-6.4c1.1-0.5,1.8-2.5,3.2-0.3
		c0.4,0.7,1-0.1,1.2-0.5c3.1-5.9,6.5-11.6,9.3-17.7c0.3-0.4,0.4-1.1,0.2-1.6c-0.4-0.6-1.8-0.6-1-1.8C385,947.8,386,948.8,386.8,949
		L386.8,949z M271.6,205.4c4.6-0.1,9,1.7,13.7,1.3c5-0.4,10-0.4,15-0.6c12.5-0.5,24.9-2.5,37.4-3.4c6.4-0.5,12.8-0.1,19.1-1.3
		c1.1-0.2,2.1-0.6,3-1.3c0.9-0.7,0.9-1.4-0.2-1.8c-2.7-1-5.2-2.3-8.2-2.3c-10.1-0.1-20.2-0.4-30.4-0.6c-1,0-2.1,0.3-2.9-1.1h27.9
		v-0.7c-5-0.8-10-0.5-15.6-1c0.8-0.6,1.8-0.8,2.7-0.7c5.4,0,10.8-0.2,16.1-0.7c3.4-0.3,6.9-0.6,10.1-1.8c1.7-0.6,3.9-1.2,2.2-3.9
		c-0.7-1.2,0-2,0.9-2.9c2.7-2.7,2.3-6.2-1.1-8.2c-2.5-1.5-5.2-1.8-8-2.2c-11.4-1.4-22.8-1-34.2-0.7c-12.9,0.3-25.8,0.6-38.7,1.5
		c-3.6,0.2-7.2,0.1-10.7,1.2c-2.7,0.7-5.5,1-8.3,0.7c-2.1-0.2-4,0.6-6,0.6c-0.4-0.1-0.7,0.2-0.8,0.6c0,0.2,0,0.4,0.2,0.6
		c1.8,3,0.9,6.2,0.5,9.2c-0.4,3,0.8,3.4,3.2,3.5c17.2,1.1,34.3,1.4,51.5,1.9c2.4,0.1,4.8,0.4,7.2,0.6c-7.9,1.3-15.9,0.7-23.9,1
		c-9.4,0.3-18.7,0.3-28.1,1c-0.6,0-1.7-0.3-1.9,0.7c-0.5,2.1-2.1,1.6-3.4,1.3c-1.8-0.5-3.8,0-5.1,1.4c4.6,0.7,8.8,0,12.9,1.1
		c-0.2,1.1-0.9,1.1-1.5,1.3c-2.9,1.2-5.9,1.4-8.9,1.7c-0.9,0.1-2.1,0-2,1.3c0.1,1.2,1.3,0.8,2.1,0.8c6.8,0.1,13.6,0.2,20.3,0.3
		c0.6,0,1.4-0.4,1.8,0.5C277,205.1,274.3,204.9,271.6,205.4z M467.4,479.9h-0.6v8.8h0.6V479.9z M465.5,510.5c-0.2,2.3,0,4-0.6,5.6
		c-0.2,0.5,0,1,0.4,1.2c0.1,0,0.1,0.1,0.2,0.1c0.7,0.1,0.8-0.6,0.9-1.1C466.8,514.5,467.2,512.7,465.5,510.5L465.5,510.5z
		 M467.1,466.4c0.2-1.3,1-2.5,0.5-3.9c-0.2-0.1-0.5-0.1-0.7,0C466.2,463.8,466.5,465.1,467.1,466.4L467.1,466.4z M129.1,197.8
		c-0.3,0.1-0.7,0.2-0.6,0.7c0,0.3,0.3,0.5,0.6,0.5c0.1,0,0.1,0,0.2,0c0.2-0.1,0.4-0.3,0.5-0.5C129.9,198,129.5,197.9,129.1,197.8z
		 M31.5,372.2c0.5-0.6,0.9-1,0.5-1.6c-0.1-0.1-0.3-0.1-0.5-0.1C31.1,371,31.1,371.7,31.5,372.2z M464.8,531.6
		c-0.1,0-0.3,0.1-0.4,0.2c0,0.2,0.1,0.3,0.1,0.4l0.5-0.3L464.8,531.6z M467,476.4c-0.1,0.1-0.3,0.2-0.3,0.3c0,0.2,0,0.3,0.2,0.4
		c0.2,0.1,0.4,0,0.4-0.2c0-0.1,0-0.1,0-0.2C467.3,476.6,467.1,476.5,467,476.4L467,476.4z M261.7,199.7v0.2l-0.2-0.1L261.7,199.7z"
		/>
	<path class="st1" d="M253.3,68.5c0.4-0.2,0.9-0.2,0.9-0.8c-0.3-12.4-0.6-24.8-1-37.3c-0.2-6.9,0.2-7.5,6.7-10.2
		c6.2-2.5,12.6-4.3,19.2-5.4c13.5-2.5,27.3-3.5,41-3c5.7,0.2,11.3,0.9,16.5,3.2c7,3.1,10.8,8.8,12.7,15.9c3,12,4.6,24.3,4.7,36.6
		c0,0.9-0.2,2.1,1,2.2c1.3,0.1,1.2-1.3,1.2-2.1c-0.1-5.8,0.7-11.7-0.6-17.2c-1.2-5-0.8-10.2-2.2-15c-2.1-7.3-4.6-14.7-10.8-19.9
		c-1.9-1.6-4.1-2.8-6.4-3.7c-2.8-1-5.1-3.2-8.2-3.8c-3.1-0.6-5.9-3.5-9.6-1.7C318,6.6,317.4,6.4,317,6c-1-2.4-3.1-1.5-4.8-1.6
		c-4.7-0.1-9.2-1.8-13.9-1.2c-0.8,0-1.5-0.5-1.8-1.2c3.2-1.2,6.4,0.1,9.6,0.4c7.3,0.7,14.6,1.5,21.8,2.7c12.3,2,22.2,11.1,25.4,23.1
		c2.1,8.6,3.1,17.3,4.4,26c1,6.5,0.9,13.1,1.5,19.6c1.1,12.5,0.9,25,1.8,37.5c0.5,7.1-0.1,14.3,0.9,21.4c0.2,1.8-0.4,2.9-2.4,3
		c-2.4,0.2-2.5,1.4-2,3.6c0.6,3.6,1,7.3,1.2,11c0.4,5.4,0.7,10.7,2.5,15.9c0.2,1,0.8,1.9,1.6,2.5c5.8,3.4,6.7,8.7,5.3,14.5
		c-1.2,5,1.4,7.7,4.7,10.3c4.2,3.2,9.2,4.3,14.1,5.6c7.2,1.9,14.8,2.6,21.3,6.7c9,5.4,15.7,13.9,19,23.9c4.1,12,6.2,24.4,8.4,36.8
		c2.9,16.5,5.5,33.1,8.9,49.6c3.1,15.1,8.9,29.2,19,41c6.9,8,9.4,17.2,9.5,27.5c0.1,12,0.2,24,0.5,35.9c0.2,5.7,0.3,11.3,0.5,17
		c0.1,1.8-0.5,3.1-2,3.5c-2.4,0.7-2.7,2.3-2.6,4.5c0.1,1.1,0.6,2.4-0.4,3.5c-2,1.5-1.3,3.7-1.3,5.7c0,1.2,0.1,2.2-1.2,3.3
		c-0.2-2.7-0.5-5.2-0.7-7.8c-0.1-0.7,0.1-1.5,0-2.2c-0.4-2.5-0.7-4.7,2.6-5.6c1-0.5,1.6-1.6,1.4-2.7c-1.2-11.3-0.9-22.6-0.9-34
		c0-8.6,0.4-17.3-0.5-25.9c-0.4-3.5-1.1-7-2.2-10.3c-0.3-0.8-0.8-1.5-1.4-2c-3.9-3.7-6.7-8.2-10.2-12.4c-6.2-7.3-8-16.4-10.7-25.1
		c-3.9-12.7-5.8-25.8-8.2-38.8c-1.8-10.1-2.9-20.3-4.9-30.4c-1.7-8.7-2.8-17.6-6-25.9c-3.7-9.6-8.7-18.4-19-22.6
		c-3.6-1.5-6.2-4.6-10.2-5.6c-3.8-0.8-7.6-1.5-11.5-1.9c-7-1.1-14.2-1.7-21.3-1.7c-0.5,0-1.2,0.1-1.4-0.6s0.3-0.7,0.7-1
		c2.3-1.7,2.4-3,0.4-5.2s-2-4,0.2-5.9c1.4-1,2-2.8,1.4-4.4c-0.2-0.8-0.1-1.7,0.5-2.3c3.6-5.3,2-9.9-4.2-11.9c-1.9-0.8-4-1.2-6-1.4
		c3.5-0.8,4.2-3.1,3.7-6.1c-1.3-8.6-2.2-17.3-2.6-26c-0.1-1.1,0-2.5-1.6-2.3c-1.6,0.2-0.8,1.5-0.7,2.4c0.8,8.9,1.2,17.8,2.6,26.6
		c0.3,2-1.1,3.8-3.1,4.1c-0.2,0-0.4,0-0.5,0c-13.5,0.2-27,0.9-40.4,0.5c-12.2-0.4-24.5,0.3-36.8-1c-5.9-0.6-11.8-1-17.8-1.4
		c-2.1-0.1-3-0.8-2.9-3.2c0.5-10.7,0.2-21.3-0.2-32c-0.4-10.8-0.4-21.7-0.3-32.6c0-2.1-0.3-4.2-0.1-6.3c-0.6,0.3-0.4,1.6-1.3,1.4
		c-0.9-0.2-0.7-1.2-0.7-1.9c0-1.8-0.3-3.7,0.2-5.5c1.6-1.6,1.3-3.9,1.2-5.6C253.1,76.9,253.1,72.7,253.3,68.5z M358.3,106h0.3
		c-0.2-3.3-0.4-6.7-0.6-10c-0.1-0.9-0.3-1.8-1.4-1.7s-0.7,1-0.9,1.7c-0.5,2.2,0.7,4.1,0.6,6.3c-0.4,10.3,0.9,20.6,1.2,30.9
		c0,0.9,0,2,1.4,1.8c1.1-0.2,1.1-0.8,1.1-1.8C359.4,124.2,358.8,115.1,358.3,106z M468.4,445.6l-0.1-0.2c0,0-0.1,0.1-0.1,0.2
		c0,0.1,0,0.1,0.1,0.2L468.4,445.6z"/>
	<path class="st1" d="M242.3,971.5c0.3,7-1.2,13.5-5.6,19.2c-0.4,0.5-1.2,0.8-0.9,1.5c0.3,1,1.2,0.7,1.9,0.7c7.7,0,15.4,0.1,23.1,0
		c5.5-0.1,10.7,0.4,15.8,2.8c3.2,1.5,7.1,0.5,10.7,0.9c3.1,0.4,6.3-0.2,9.4,0.2c5.4,0.6,10.5-1.3,15.7-1.8c2.8-0.3,5.5,0.6,8.2,0.6
		c-0.3-1-1.2-0.8-1.9-1.3c3.1-2,6.7-1.6,9.8-2.3c7-1.6,14.1-3,21.2-4.4c4-0.8,8.1-0.8,12.1-2c0.5-0.1,1.4,0.8,2.3,0.5
		c-1.8,2.4-4.9,2.5-7.4,3.3c-8.1,2.4-16.3,3.9-24.6,5.5c-7.5,1.4-15,2.3-22.6,2.9c-26,1.8-52.1,2.7-78.2,2.2
		c-9.6-0.2-19.2-0.8-28.9-1.5c-7.7-0.5-15.5-1.2-23.2-2.3c-11.8-1.7-23.7-2.7-35.4-5.3c-2.1-0.5-4.3-0.9-6.5-1.3
		c-1-0.2-1.8-0.4-2-1.6c0.9-0.9,2.2-0.8,3.5-1.3c-1.8-0.8-3.3-1.6-5-2.2c-6.3-2.4-12-6.3-16.3-11.6c-4.6-5.9-8.5-12.4-11.5-19.3
		c-7-15.1-12-31-16.6-46.9c-4.9-17-9-34.3-13.2-51.5c-4.6-19.1-9-38.3-12.4-57.7c-3.6-20.1-7-40.4-9.8-60.7
		c-1.8-12.8-3.6-25.7-5.3-38.5c-2.5-18.1-4.8-36.2-6.7-54.4c-1.8-16.8-3.2-33.6-4.3-50.5c-1.1-16-1.7-32-2.4-48.1
		c-0.8-16.8-1.6-33.5-2.1-50.3c-0.4-16.2,0.2-32.4,1.1-48.6c1.6-0.4,3.2-0.1,3.1,1.6c0,1.6,0.3,3.4,0.1,4.9
		c-1.3,8.9-0.8,17.7-0.9,26.6c-0.1,8.6,0.9,17.1,0.5,25.6c-0.1,3.6,0,7.1,0.4,10.6c1.2,11.1,0.8,22.3,1.8,33.5
		c0.7,7.6,0.8,15.3,1.2,23c0.5,10.1,1.2,20,2.2,30.1c1,10,1.8,19.9,2.7,29.9c0.8,9.1,1.4,18.2,2.6,27.3c1,7.9,1,16,3,23.8
		c0.4,1.8,0.1,3.5,0.4,5.3c2.3,10.8,3.7,21.8,5.4,32.8c1.4,9.1,2.4,18.3,4,27.3c1.3,7.3,2.2,14.6,3.4,21.9
		c0.9,5.4,3.2,10.5,3.1,16.2c-0.1,1.9,0.3,3.8,1.1,5.6c1.7,3.7,3.1,7.6,2.6,11.8c-0.1,1.1-0.3,2.4,0.2,3.3c2,3.3,2.2,7.2,3,10.7
		c1.1,5.4,2.5,10.8,3.5,16.2c0.5,2.9,2.5,5.5,2.7,8.4c0.7,8.7,4.8,16.5,6.1,25c0.7,4.4,2.5,8.6,3.8,12.9c0.4,1.1,0.2,2.3,0.7,3.5
		c3.5,7.3,5.1,15.4,7.8,23c1.2,3.2,1.7,6.7,3.4,9.6c1.8,3.1,2.9,6.5,4.4,9.7c2.2,4.9,4.8,9.8,6.4,14.9c1.3,4.3,5.1,7,6.3,11.3
		c1.3,4.4,4.8,7.1,8.1,9.9c3,2.5,7,3.9,7.8,8.5c0.4,2.5,2.2,4.1,4.1,5.7c2.9,2.4,6.6,4,8.4,7.5c0.4,0.7,1.2,1.4,0.1,2.1
		c-1.5,0.9-0.7,1.4,0.4,1.7c6,1.2,11.9,2.6,17.9,3.4c9.2,1.2,18.3,2.2,27.6,3.1c10.8,1,21.6,1.4,32.4,0.9c5.6-0.2,9.3-3.2,11.7-7.7
		c0.6-1.2,1.9-2.9,1.7-4.1c-0.3-2.6,1.2-4.9,0.8-7.5C239.9,974.1,240.7,972.3,242.3,971.5z"/>
	<path class="st0" d="M34.5,446.3c-0.9,16.2-1.5,32.4-1.1,48.6c0.5,16.8,1.3,33.5,2.1,50.3c0.7,16,1.3,32,2.4,48.1
		c1.1,16.8,2.6,33.7,4.3,50.5c1.9,18.2,4.3,36.3,6.7,54.4c1.7,12.8,3.6,25.7,5.3,38.5c2.8,20.3,6.2,40.5,9.8,60.7
		c3.4,19.4,7.8,38.6,12.4,57.7c4.2,17.2,8.2,34.5,13.2,51.5c4.6,16,9.6,31.9,16.6,46.9c3,6.9,6.9,13.3,11.5,19.3
		c4.3,5.2,9.9,9.2,16.3,11.6c1.6,0.6,3.2,1.4,5,2.2c-1.3,0.5-2.6,0.3-3.5,1.3l-1.6-0.2c0.2-0.3,0.2-0.7,0-1.1
		c0.3,0.2,0.7,0.1,0.9-0.2c0,0,0,0,0,0c0-0.1-0.1-0.2-0.2-0.2c-0.4-0.1-0.7-0.1-0.7,0.5c-0.5-0.4-1.2-0.4-1.7,0
		c-8.7-2.9-15.4-8.5-20.6-15.9c-8.5-12.2-13.5-26.1-18.3-40.1c-2.7-8-5.1-16.2-7.6-24.3c0.2-0.5,0.4-1-0.3-1.2l-0.4-2.1
		c0.2-0.5,0-1.1-0.4-1.3c-0.1,0-0.1-0.1-0.2-0.1l-0.5-2.5c0.2-0.9-0.1-1.8-0.8-2.4l-0.2-1.6c0.3-1.1-0.1-2.2-0.9-2.9l-0.2-1.6
		c0.3-0.9,0-1.8-0.8-2.4l-0.3-1.6c0.3-1.1,0-2.2-0.9-2.9l-0.3-1.6c0.4-1.1,0-2.4-0.9-3.2l-0.6-3c0.3-0.5,0.1-1.1-0.3-1.3
		c-0.1-0.1-0.2-0.1-0.3-0.1l-0.2-0.9c0.3-0.3,0.2-0.8-0.1-1.1c0,0-0.1,0-0.1-0.1l-0.2-1c0.3-1.2-0.5-2-0.9-2.9l-0.2-1.6
		c0.4-1-0.2-1.7-0.8-2.3l-0.3-2.1c0.3-1.2-0.3-2-0.9-2.9l-0.2-1.6c0.2-1.2-0.1-2.5-1-3.4l-0.2-1.6c0.3-1.2-0.1-2.5-1-3.4l-0.2-1.6
		c0.4-1.2,0-2.6-0.9-3.5l-0.3-2.1c0.4-1.2,0-2.6-0.9-3.5l-0.2-1.6c0.3-1.5,0-3.1-1-4.2l-0.1-0.9c0.4-1.5,0.1-3-0.9-4.2l-0.5-3.6
		c0.3-0.7,0.1-1.6-0.6-2l-0.2-0.9c0.3-0.3,0.3-0.7,0-1c0,0-0.1,0-0.1-0.1l-0.2-1.6c0.4-1.3-0.4-2.4-0.9-3.5l-0.3-2.1
		c0.4-1.3-0.2-2.4-0.9-3.5l-0.2-2.1c0.4-1.3-0.2-2.4-0.9-3.4l-0.2-2.1c0.4-1.2,0-2.6-0.9-3.5l-0.3-2.7c0.4-1.2,0.1-2.5-0.8-3.5
		l-0.2-1.6c0.4-1.4,0.1-2.9-0.9-4l-0.3-2.1c0.3-1.7,0.3-3.4-1-4.8l-0.1-1.4c0.4-1.6,0.1-3.4-1-4.7l-0.2-1.4c0.3-1.8,0.3-3.7-0.9-5.3
		l-0.2-1.4c0.4-0.5,0.3-1.2-0.1-1.7l-0.1-1.1c0.4-2.2-0.5-4.2-1.1-6.2l-0.5-2.7c0.1-0.8,0.6-1.6-0.3-2.3l-0.4-3.8
		c0.4-1.8,0.1-3.6-0.9-5.1l-0.2-2.7c0.4-1.8,0.1-3.6-0.9-5.1l-0.2-2.7c0.3-1.8,0.4-3.6-0.9-5.1l-0.3-2.7c0.6-1.9,0.2-4-0.9-5.6
		l-0.2-2.7c0.3-2,0.5-4-0.9-5.7l-0.3-2.2c0.5-2.2,0.2-4.5-0.9-6.4l-0.1-1.4c0.3-2.5,0.4-5-1-7.3l-0.1-1.6c0.4-0.5,0.4-1.2-0.1-1.7
		l-0.1-1.6c0.5-2.4-0.4-4.6-1-6.8l-0.2-2.7c0.5-2-0.1-3.9-0.9-5.7l-0.3-3.8c0.4-1.9,0.1-4-0.9-5.7l-0.2-3.8c0.3-2.2,0.3-4.3-0.9-6.2
		l-0.3-3.8c0.4-2.2,0.4-4.3-0.8-6.2l-0.3-4.4c0.6-2.1,0.3-4.3-0.8-6.1l-0.2-2.1c0.2-3.7,0.5-7.3-1.1-10.8v-1
		c0.3-0.7,0.3-1.4,0.2-2.2c-0.5-7.7-1-15.5-1.4-23.2c-0.2-4.6-0.6-9.2-1.3-13.7l-0.1-3.3c0.4-4.1,0.1-8.3-0.9-12.3l-0.3-8.3
		c0.4-4.7,0.1-9.4-0.8-14l-0.3-12.2c0.6-5.3-0.1-10.7-0.3-16c-0.1-0.3-0.4-0.6-0.6-0.8L30,496.9c0.4-5.6,0.4-11.2,0-16.9l0.2-20.6
		c1.3-3.9,0.9-7.9,1-11.9c-0.1-0.9,0.1-1.8,0.6-2.6c0.1,0.2,0.2,0.2,0.4,0.2c0.3,0.7,0.6,1.4,1.3,0.3L34.5,446.3z"/>
	<path class="st1" d="M144,169.8c-5.4,1.3-5.8-0.4-5.2-4.6c1.2-8.5,1.9-17.1,2.2-25.6c0.1-3.3-2-0.7-3-1.2c-0.2-0.3-0.5-0.5-0.8-0.6
		c-3.2,0-3.5-0.5-3.2-3.8c0.8-8.7,0.5-17.4,0.5-26.1c0-12.3,2-24.6,1.1-36.8c-0.5-7.5,1.2-14.8,1.1-22.3c-0.1-1.8,0.4-3.5,1.5-4.9
		c0.5,2.6-0.4,5.1-0.7,7.7c-0.7,6.3,0,12.6-1,18.9c-0.1,0.4-0.1,1.1,0.5,1.1c0.4-0.1,0.8-0.3,1.1-0.7c0.7-1.1,0.3-2.4,0.3-3.5
		c-0.3-11.2,1.2-22.2,3.6-33.1c3.3-15,12.7-20.7,26.6-21.9c1.3-0.1,2.6-0.5,3.8,0.1c-0.6,1.2-1.8,1.3-2.8,1.3
		c-4.1-0.1-7.8,1.6-11.5,2.9c-4.9,1.8-9.1,4.6-11.6,9.6c-2.1,4-2.9,8.2-3.5,12.7c-1.6,10.5-4,20.9-2.1,31.6
		c-0.1,0.4-0.3,0.9-0.5,1.2c-0.7,3.4-1.9,6.9-1.9,10.3c0.1,7.1,0.7,14.1,0.4,21.2c-0.3,9.8,0.2,19.7-0.7,29.5
		c-0.2,2.2,0.4,3.8,2.7,4.3c1.2,0.3,1.6,0.8,1.5,2.2c-0.7,7.8-0.8,15.7-2,23.5c-0.5,2.9-0.5,5.8,3.2,6.8
		C144,169.6,144,169.7,144,169.8z"/>
	<path class="st1" d="M31.8,445c-0.5,0.8-0.7,1.7-0.6,2.6c-0.1,4,0.3,8-1,11.9c-0.9-3.8-0.3-7.6-0.4-11.4c0-1.2-0.1-2.4-0.3-3.5
		c0.8-2,1.2-4,1.2-6.1c0-14.1,0.1-28.2,0-42.2c0-6.8-0.2-13.5,1.1-20.1c0.2-1,0.1-2.3,1.5-2.6c0.9,3.7-0.5,7.1-0.4,10.7
		c0.1,18.5,0,37,0.1,55.5C33.1,441.7,31.5,443.1,31.8,445z"/>
	<path class="st1" d="M124.3,195c-0.5,1.6-0.1,3.3,1,4.6c0.4,0.5,1,0.9,0.6,1.6c-0.3,0.5-0.9,0.7-1.5,0.5c-4.2-0.9-8.1,1.2-12.2,1.5
		c-1.6,0.1-2.5-0.2-3-1.6c0.7-1.7,2.5-1.2,3.7-1.7C116.9,198.4,120.6,196.8,124.3,195z"/>
	<path class="st1" d="M27.5,384.8c0.6,1.7,0.2,3.5,0.2,5.2c0,11.5,0.1,23,0,34.4c0,2.9,0.2,5.9-0.8,8.8c-1.6-0.8-0.9-2.3-0.8-3.5
		c0.8-10.4,0.2-20.7,0.3-31.1c0.1-3.9,0-7.8,0.1-11.7C26.5,386.2,26.1,385.1,27.5,384.8z"/>
	<path class="st1" d="M33.5,580.5c0.7,4.5,1.1,9.1,1.3,13.7c0.4,7.8,1,15.5,1.4,23.2c0.2,0.7,0.1,1.5-0.2,2.2
		c-1-4.4-1.9-8.7-1.8-13.2c0.1-4.5-0.2-9.1-0.9-13.5C32.8,588.8,32.8,584.6,33.5,580.5z"/>
	<path class="st1" d="M469.3,489.7c-0.3-0.5-0.5-1.2-0.4-1.8c0-10.3,0-20.7,0-31c-0.1-0.6,0-1.3,0.4-1.8c1.1,0.4,0.8,1.3,0.8,2.1
		c0.2,10.2,1,20.3,0,30.5C470.1,488.3,470.5,489.3,469.3,489.7z"/>
	<path class="st1" d="M240.8,0.8c-1.4,1.4-3.3,1.1-5,1.2c-8.4,0.2-16.9,0.2-25.3,0.2c-0.5,0.1-0.9-0.1-1.3-0.4
		c0.2-0.4,0.7-0.7,1.1-0.6c9.8-0.2,19.6-1,29.4-0.7C240.1,0.5,240.5,0.6,240.8,0.8z"/>
	<path class="st1" d="M468.2,512.6c-0.8-3.5-0.8-7.2,0-10.7c0.6-2.4-1.4-3.3-1.3-5.1c0-0.2,0-0.4,0-0.6c-0.1-1.2-1.2-3.3,0.2-3.4
		c2-0.1,0.5,2.3,1.3,3.4l0.9-1c1.1,2.7,0.2,5.6,0.3,8.4c0,2.6-0.3,5.1-0.5,7.7C469.2,511.9,468.8,512.4,468.2,512.6z"/>
	<path class="st1" d="M465.7,557.7c-1.1-3.4-0.3-6.9-0.3-10.4c0-4.2,0.6-8.4,1.6-12.5c0.9,4.6,0.3,9.2-0.3,13.6
		C466.3,551.5,467,554.7,465.7,557.7z"/>
	<path class="st1" d="M274,0.7c-0.7,0.9-1.7,0.5-2.6,0.5c-5.1,0-10.1,0-15.2,0c-0.8,0-1.7,0.3-2.3-0.5c0.4-0.7,1.1-0.7,1.7-0.7
		c5.6,0,11.2,0,16.7,0C272.9,0,273.6-0.1,274,0.7z"/>
	<path class="st1" d="M294,1.8c-4.6,0.8-9.2,0.2-13.7,0.2c-0.8,0-1.5-0.5-1.7-1.3C283.8,0.1,289,0.4,294,1.8z"/>
	<path class="st1" d="M108.2,201.7c0.1,0.8,0.8,1.9-1,1.7c-4.5-0.5-8.4,1.5-12.5,2.7c-1,0.3-1.8,0.8-2.8,0.4c1-1.7,2.9-1.6,4.4-2.1
		C100.2,203.3,104,201.5,108.2,201.7z"/>
	<path class="st1" d="M30.2,513.6c0.3,0.2,0.5,0.5,0.6,0.8c0.2,5.3,0.9,10.7,0.3,16c-1.7-2.1-0.6-4.7-1-7.1
		C29.6,520.1,29.2,516.8,30.2,513.6z"/>
	<path class="st1" d="M30,480.1c0.4,5.6,0.4,11.2,0,16.9c-0.4-0.2-0.7-0.6-0.7-1.1c0-4.9,0-9.8,0-14.6
		C29.3,480.7,29.5,480.2,30,480.1z"/>
	<path class="st1" d="M464.5,573.3c-0.8-4.3-0.4-8.6-0.1-12.8c0-0.7,0.5-1.3,1.1-1.4C466.1,563.9,465.3,568.6,464.5,573.3z"/>
	<path class="st1" d="M31.4,542.6c1,4.6,1.3,9.3,0.8,14c-1.5-1.3-0.9-3.3-1.1-4.9C30.9,548.7,30.2,545.6,31.4,542.6z"/>
	<path class="st1" d="M467.1,531.5c-0.6-4.2-1.1-8.4,1-12.3C468.3,523.3,468.8,527.5,467.1,531.5z"/>
	<path class="st1" d="M36.1,620.6c1.6,3.5,1.2,7.1,1.1,10.8C36.5,627.8,34.7,624.4,36.1,620.6z"/>
	<path class="st1" d="M201.7,2c-0.2,0.6-0.8,1-1.5,1.1c-3.3,0-6.7,0.6-10-0.2C193.9,1.6,197.9,1.3,201.7,2z"/>
	<path class="st1" d="M32.6,564.9c1,4,1.3,8.2,0.9,12.3C31.8,573.3,31.5,569,32.6,564.9z"/>
	<path class="st1" d="M463.4,584.5c-0.5-3.5-1.2-7.1,1-10.3C465.1,577.7,464.3,581.1,463.4,584.5z"/>
	<path class="st1" d="M138.2,147c0.2,3.4,0.6,6.8-0.8,10.1c-0.9-0.4-0.6-1.3-0.5-1.9C137.4,152.5,136.9,149.6,138.2,147z"/>
	<path class="st1" d="M462.3,595.6c-0.4-2.9-1.3-5.8,0.8-8.4C464.2,590.2,463.2,592.9,462.3,595.6z"/>
	<path class="st1" d="M461.1,606.2c-0.5-2.8-1.1-5.6,0.9-8.1C462.9,600.9,462.3,603.6,461.1,606.2z"/>
	<path class="st1" d="M44.4,693.8c1.4,2.3,1.3,4.8,1,7.3C44.9,698.6,43.3,696.4,44.4,693.8z"/>
	<path class="st1" d="M460,616.8c-0.4-2.3-1-4.7,0.8-6.7C461.9,612.5,460.9,614.7,460,616.8z"/>
	<path class="st1" d="M458.9,627.4c-0.6-2.3-0.6-4.6,0.8-6.7C460.7,623.1,459.8,625.3,458.9,627.4z"/>
	<path class="st1" d="M457.7,637.5c-0.7-2.3-0.3-4.8,0.9-6.8C459.4,633,459,635.5,457.7,637.5z"/>
	<path class="st1" d="M43,682.1c0.6,2.2,1.5,4.4,1,6.8C42.2,686.8,42.5,684.4,43,682.1z"/>
	<path class="st1" d="M39.6,654.2c1.2,1.9,1.2,4.1,0.9,6.2C39.3,658.5,38.7,656.4,39.6,654.2z"/>
	<path class="st1" d="M451.7,688.2c-0.6-2.3-0.7-4.5,0.9-6.4C453.4,684.1,452.6,686.2,451.7,688.2z"/>
	<path class="st1" d="M452.8,680.4c-0.7-2.5-0.4-5.2,0.9-7.6C454.6,675.5,453.6,677.9,452.8,680.4z"/>
	<path class="st1" d="M186.9,3.2c-1.6,2.1-3.7,1.1-5.7,0.9C183,2.9,184.8,2.1,186.9,3.2z"/>
	<path class="st1" d="M53.5,757.4c0.5,2,1.5,4,1.1,6.2C52.7,761.8,53,759.6,53.5,757.4z"/>
	<path class="st1" d="M38.5,644.1c1.2,1.9,1.2,4.1,0.8,6.2C38.3,648.4,37.5,646.4,38.5,644.1z"/>
	<path class="st1" d="M456.5,647.6c-0.6-2.1-0.3-4.4,0.9-6.2C458.3,643.4,457.9,645.8,456.5,647.6z"/>
	<path class="st1" d="M37.4,633.5c1.1,1.9,1.4,4.1,0.8,6.1C37.3,637.7,36.4,635.8,37.4,633.5z"/>
	<path class="st1" d="M41.9,673.7c0.8,1.8,1.4,3.7,0.9,5.7C41.1,677.7,41.2,675.8,41.9,673.7z"/>
	<path class="st1" d="M46.8,711.1c1.4,1.7,1.2,3.7,0.9,5.7C46.7,715,45.9,713.2,46.8,711.1z"/>
	<path class="st1" d="M47.9,719.5c1.1,1.6,1.5,3.7,0.9,5.6C47.8,723.3,47,721.5,47.9,719.5z"/>
	<path class="st1" d="M45.6,702.4c1.1,2,1.4,4.2,0.9,6.4C45.7,706.8,44.9,704.7,45.6,702.4z"/>
	<path class="st1" d="M50.2,735.6c1,1.5,1.3,3.4,0.9,5.1C49.9,739.2,49.2,737.6,50.2,735.6z"/>
	<path class="st1" d="M51.3,743.4c1,1.5,1.3,3.4,0.9,5.1C50.9,747.2,50.5,745.2,51.3,743.4z"/>
	<path class="st1" d="M40.7,664.2c1,1.7,1.3,3.7,0.9,5.7C40.3,668.3,40,666.1,40.7,664.2z"/>
	<path class="st1" d="M49,727.8c1.3,1.5,1.3,3.3,0.9,5.1C48.9,731.4,48.2,729.7,49,727.8z"/>
	<path class="st1" d="M179.1,4.3c-1.4,1.7-3.3,1.3-5.1,1C175.5,3.9,177.2,3.4,179.1,4.3z"/>
	<path class="st1" d="M450.5,695.5c-0.7-1.8-0.4-3.9,0.9-5.4C452,692,451.7,693.9,450.5,695.5z"/>
	<path class="st1" d="M55,767.7c1.3,1.6,1.2,3.4,0.9,5.3C55.2,771.3,54.4,769.7,55,767.7z"/>
	<path class="st1" d="M449.4,702.2c-0.8-1.6-0.4-3.5,0.9-4.8C451.1,699.2,450.4,700.7,449.4,702.2z"/>
	<path class="st1" d="M447.1,715.7c-0.6-1.6-0.3-3.3,0.9-4.6C448.8,712.7,448.4,714.5,447.1,715.7z"/>
	<path class="st1" d="M173,5.4c-1.1,1.4-2.5,1.4-4,1c0.7-1.3,2.4-1.8,3.7-1.1C172.8,5.3,172.9,5.3,173,5.4z"/>
	<path class="st1" d="M57.2,780.6c1.3,1.4,1.3,3.1,1,4.8C57.5,783.9,56.6,782.4,57.2,780.6z"/>
	<path class="st1" d="M448.3,708.9c-0.7-1.5-0.3-3.3,0.9-4.5C450,706.1,449.3,707.5,448.3,708.9z"/>
	<path class="st1" d="M446,722.3c-0.6-1.4-0.2-3,0.9-4C447.6,719.7,447.2,721.4,446,722.3z"/>
	<path class="st1" d="M56.1,774.4c1,1.3,1.4,3.1,1,4.7C56.3,777.7,55.5,776.2,56.1,774.4z"/>
	<path class="st1" d="M430.5,810.5c-0.3-1.7-0.5-3.5,0.9-4.9C432,807.4,431.3,809,430.5,810.5z"/>
	<path class="st1" d="M58.5,787.5c1,1.1,1.3,2.6,0.9,4C58.6,790.3,58,789.1,58.5,787.5z"/>
	<path class="st1" d="M167.9,6.5c-0.8,1.1-2.2,1.5-3.4,1C165.4,6.2,166.4,5.5,167.9,6.5z"/>
	<path class="st1" d="M438.9,764.1c-0.6-1.3-0.3-2.9,0.8-3.9C440.4,761.7,439.7,762.9,438.9,764.1z"/>
	<path class="st1" d="M440.1,757.4c-0.4-1.4-0.5-2.8,0.8-3.9C441.8,755,440.8,756.2,440.1,757.4z"/>
	<path class="st1" d="M63,810.4c0.7,1.1,1.3,2.1,0.9,3.5C62.8,813.2,62.3,811.6,63,810.4C63,810.4,63,810.4,63,810.4z"/>
	<path class="st1" d="M67.8,833.6c1,1.2,1.4,2.7,1,4.2C68,836.5,67.2,835.2,67.8,833.6z"/>
	<path class="st1" d="M72.5,855c0.8,0.9,1.2,2.2,1,3.4C72.2,857.8,71.8,856.2,72.5,855z"/>
	<path class="st1" d="M66.8,828.5c1,1.2,1.3,2.7,0.9,4.2C66.9,831.4,66.3,830.1,66.8,828.5z"/>
	<path class="st1" d="M455.4,657.6c-0.3-1.5-0.8-3,0.7-4.2C456.4,654.9,456.9,656.4,455.4,657.6z"/>
	<path class="st1" d="M61.9,804.8c0.7,1,1.3,2.1,0.9,3.4C61.6,807.3,61.1,806.3,61.9,804.8z"/>
	<path class="st1" d="M59.6,793.1c0.9,0.9,1.2,2.2,0.8,3.5C59.5,795.6,58.8,794.5,59.6,793.1z"/>
	<path class="st1" d="M26.6,438.8c0.4,1.3,0.4,2.8-0.1,4.1C25.6,441.7,25.6,439.9,26.6,438.8z"/>
	<path class="st1" d="M434.3,789.3c-0.5-1.2-0.2-2.6,0.8-3.5c0.8,1.1,0.5,2.5-0.6,3.3C434.5,789.2,434.4,789.2,434.3,789.3z"/>
	<path class="st1" d="M60.8,799.2c0.9,0.9,1.3,2.2,0.9,3.5C60.8,801.7,60,800.7,60.8,799.2z"/>
	<path class="st1" d="M71.3,850c0.9,0.9,1.3,2.2,1,3.4C71.4,852.5,70.6,851.4,71.3,850z"/>
	<path class="st1" d="M69,839.4c0.9,0.9,1.3,2.2,0.9,3.5C69.1,841.9,68.3,840.8,69,839.4z"/>
	<path class="st1" d="M70.2,845c0.9,0.9,1.3,2.2,0.9,3.5C70.4,847.4,69.5,846.4,70.2,845z"/>
	<path class="st1" d="M436.5,777c-0.4-1.3-0.4-2.5,0.8-3.5C438.3,775,437.4,776,436.5,777z"/>
	<path class="st1" d="M64.2,816c0.5,1.1,1.3,2.1,0.9,3.5C63.9,818.7,63.5,817.2,64.2,816C64.2,816,64.2,816,64.2,816z"/>
	<path class="st1" d="M435.4,783.1c-0.6-1.2-0.2-2.6,0.8-3.5C437,781.1,436.5,782.2,435.4,783.1z"/>
	<path class="st1" d="M437.7,770.3c-0.5-1.3-0.5-2.5,0.8-3.5C439.4,768.3,438.6,769.3,437.7,770.3z"/>
	<path class="st1" d="M134.2,169.3c0.2,1.6-1,2.1-2.2,2.6C132.1,170.5,132.5,169.3,134.2,169.3z"/>
	<path class="st1" d="M28.9,371.8c0.2,1.2,0.4,2.5-0.7,3.4C26.8,373.8,27.9,372.8,28.9,371.8z"/>
	<path class="st1" d="M454.3,666.5c-0.5-1.4-0.7-2.7,0.7-3.7C455.4,664.2,455.9,665.5,454.3,666.5z"/>
	<path class="st1" d="M73.6,860c0.6,0.9,1.2,1.7,0.9,2.9c-1-0.3-1.5-1.3-1.2-2.3C73.4,860.4,73.5,860.2,73.6,860z"/>
	<path class="st1" d="M418.7,860.7c-0.2-1.4-0.3-2.7,1.1-3.7C420.3,858.5,419.6,859.6,418.7,860.7z"/>
	<path class="st1" d="M78.4,879.3c0.9,0.8,1.3,2,0.9,3.2C78.6,881.6,77.9,880.6,78.4,879.3z"/>
	<path class="st1" d="M81.9,892.4c0.8,0.7,1.2,1.8,0.9,2.9C82,894.5,81.1,893.7,81.9,892.4z"/>
	<path class="st1" d="M75.9,869c0.4,0.9,1.2,1.7,0.9,2.9C75.3,871.2,75.3,870.2,75.9,869z"/>
	<path class="st1" d="M429.5,815.4c-0.6-1.1-0.3-2.6,0.7-3.4C430.9,813.4,430.2,814.4,429.5,815.4z"/>
	<path class="st1" d="M140.5,32.6c-0.3,0.9,0,2-0.8,2.9C138.8,34.3,138.8,33.2,140.5,32.6z"/>
	<path class="st1" d="M27.8,379.1c0.4,0.9,0.4,2-0.1,2.9c-0.8-0.7-0.8-1.8-0.2-2.6C27.5,379.3,27.6,379.2,27.8,379.1z"/>
	<path class="st1" d="M422.5,845.6c-0.5-1.2,0.2-2,0.9-2.9c0.6,0.9,0.3,2.2-0.7,2.7C422.7,845.5,422.6,845.6,422.5,845.6z"/>
	<path class="st1" d="M79.7,884c0.9,0.7,1.2,1.9,0.9,2.9C79.8,886.1,79.1,885.2,79.7,884z"/>
	<path class="st1" d="M424.8,836.7c-0.5-1.1-0.1-2.3,0.9-2.9C426.2,834.8,425.9,836.1,424.8,836.7
		C424.8,836.7,424.8,836.7,424.8,836.7z"/>
	<path class="st1" d="M428.3,821c-0.6-0.9-0.4-2.1,0.5-2.7c0.1,0,0.1-0.1,0.2-0.1C429.8,819.4,429,820.2,428.3,821z"/>
	<path class="st1" d="M416.5,869.1c-0.5-1.1-0.1-2.5,0.9-3.2C417.8,867,417.5,868.3,416.5,869.1z"/>
	<path class="st1" d="M417.7,864.5c-0.5-1-0.1-2.2,0.8-2.8C419.4,863,418.5,863.7,417.7,864.5z"/>
	<path class="st1" d="M426,831.7c-0.6-1.2-0.1-2.1,0.8-2.9C427.4,829.8,427,831.1,426,831.7z"/>
	<path class="st1" d="M427.2,826.6c-0.6-0.9-0.4-2.1,0.5-2.7c0.1-0.1,0.2-0.1,0.2-0.1C428.6,825,428,825.8,427.2,826.6z"/>
	<path class="st1" d="M138.9,38.8c0,0.9,0.7,2-0.3,2.8C137.6,40.6,137.8,39.7,138.9,38.8z"/>
	<path class="st1" d="M83.1,896.9c0.7,0.5,1.1,1.5,0.8,2.4C83,898.6,82.3,898,83.1,896.9z"/>
	<path class="st1" d="M74.8,865.1c0.7,0.6,1.3,1.3,0.8,2.3C74.7,866.8,74.2,866.2,74.8,865.1z"/>
	<path class="st1" d="M163.5,7.7c-0.6,0.8-1.2,1.4-2.3,0.9C161.6,7.4,162.3,6.9,163.5,7.7z"/>
	<path class="st1" d="M420,856.1c-0.5-1.1-0.1-2.4,0.8-3.1C421.3,854.3,420.7,855.2,420,856.1z"/>
	<path class="st1" d="M137.1,160.9c0.3,1.1,0.3,2.1-0.6,2.9C135.6,162.6,136.3,161.8,137.1,160.9z"/>
	<path class="st1" d="M80.9,888.5c0.8,0.5,1.1,1.5,0.8,2.4C81,890.2,80.3,889.6,80.9,888.5z"/>
	<path class="st1" d="M441.4,749.1c-0.5-0.9-0.3-2,0.6-2.5c0,0,0.1,0,0.1,0C442.5,747.5,442.7,748.5,441.4,749.1z"/>
	<path class="st1" d="M52.6,752.3c0.9,0.6,0.4,1.5,0.3,2.3C51.7,754,51.8,753.2,52.6,752.3z"/>
	<path class="st1" d="M443.7,735.7c-0.4-1-0.4-1.9,0.7-2.6C444.8,734.2,445,735.1,443.7,735.7z"/>
	<path class="st1" d="M444.9,729c-0.4-1-0.6-1.9,0.6-2.6C445.9,727.4,446,728.4,444.9,729z"/>
	<path class="st1" d="M442.6,742.4c-0.4-1-0.5-2,0.7-2.6C443.7,740.8,443.8,741.8,442.6,742.4z"/>
	<path class="st1" d="M454,671.5c-0.6-0.6-0.6-1.5,0-2.1c0,0,0.1-0.1,0.1-0.1c0.6,0.5,0.6,1.4,0.1,2
		C454.1,671.3,454,671.4,454,671.5z"/>
	<path class="st1" d="M415.4,873c-0.4-0.8-0.1-1.9,0.8-2.3c0,0,0,0,0.1,0C416.8,871.7,416.2,872.4,415.4,873z"/>
	<path class="st1" d="M133.9,986.6c0.2,0.3,0.2,0.7,0,1.1c-1.2,0.8-1.4-0.2-1.7-1C132.7,986.3,133.4,986.3,133.9,986.6L133.9,986.6z
		"/>
	<path class="st1" d="M413.1,881.4c-0.5-1.1,0.1-1.7,0.9-2.3C414.6,880.1,414.1,880.8,413.1,881.4z"/>
	<path class="st1" d="M142.8,25.5c0.5,1-0.1,1.4-0.9,1.7C141.1,26,142.1,25.8,142.8,25.5z"/>
	<path class="st1" d="M432,801.5c-0.4-0.6-0.3-1.4,0.3-1.9c0.1-0.1,0.2-0.1,0.3-0.2C433.1,800.4,433.1,801.1,432,801.5z"/>
	<path class="st1" d="M433.2,795.4c-0.4-0.6-0.3-1.4,0.2-1.8c0.1-0.1,0.2-0.1,0.3-0.2C434.2,794.2,434.2,795,433.2,795.4z"/>
	<path class="st1" d="M423.6,841.2c-0.3-0.9-0.4-1.6,0.7-2c0.4,0.6,0.3,1.4-0.3,1.8C423.9,841.1,423.8,841.1,423.6,841.2z"/>
	<path class="st1" d="M54.6,764.6c0.5,0.4,0.5,1.2,0.1,1.7c-0.5-0.3-0.6-0.9-0.3-1.4C54.5,764.8,54.5,764.7,54.6,764.6z"/>
	<path class="st1" d="M91.5,206.7c-0.1,1.3-0.8,1.4-1.7,0.9c0.2-0.7,0.9-1.1,1.6-0.9C91.4,206.7,91.4,206.7,91.5,206.7z"/>
	<path class="st1" d="M65.6,823c0.7,0.4,1,1.3,0.6,2c-0.7-0.2-1.1-0.9-0.9-1.6C65.4,823.2,65.5,823.1,65.6,823z"/>
	<path class="st1" d="M44.1,690.4c0.5,0.4,0.6,1.2,0.1,1.7c-0.5-0.3-0.7-0.9-0.4-1.4C43.9,690.6,44,690.5,44.1,690.4z"/>
	<path class="st1" d="M414.2,877.4c-0.3-0.9-0.3-1.6,0.7-2c0.4,0.7,0.2,1.5-0.5,1.9C414.3,877.4,414.3,877.4,414.2,877.4z"/>
	<path class="st1" d="M138,138.5c1.2,0.3,1.4,1,0.5,1.8C137.7,139.9,138.2,139.1,138,138.5z"/>
	<path class="st1" d="M26.9,443.3c0.8,0,1.6,0,1.8,1C27.8,444.4,27.1,444.3,26.9,443.3z"/>
	<path class="st1" d="M154.2,11.7c-0.1,0.9-0.7,0.9-1.4,0.8C152.9,11.6,153.5,11.5,154.2,11.7z"/>
	<path class="st1" d="M145,21c0.3,0.9,0,1.3-0.9,1.3C144,21.6,144.4,21.1,145,21z"/>
	<path class="st1" d="M455.1,661.4c-0.6-0.4-0.3-0.8,0.1-1.1C455.8,660.8,455.7,661.1,455.1,661.4z"/>
	<path class="st1" d="M135,167.7c0.1,0.6,0.2,1.2-0.7,1.4c-0.3-0.4-0.2-0.9,0.2-1.2C134.7,167.8,134.8,167.7,135,167.7z"/>
	<path class="st1" d="M421.4,850.1c-0.3-0.4-0.3-1,0.1-1.3c0.1-0.1,0.3-0.2,0.4-0.2c0.3,0.4,0.3,1-0.1,1.3
		C421.7,850,421.6,850,421.4,850.1z"/>
	<path class="st1" d="M456.2,652.5c-0.7-0.5-0.3-0.8,0.2-1.1C456.8,651.8,456.8,652.2,456.2,652.5z"/>
	<path class="st1" d="M141.3,29.4c0.1,0.5,0.1,0.9-0.5,1.1C140.2,29.8,140.6,29.5,141.3,29.4z"/>
	<path class="st1" d="M87.1,209c0.1,1-0.3,1.2-1.2,1c-0.1-0.5,0.3-1,0.8-1C86.8,209,87,209,87.1,209z"/>
	<path class="st1" d="M29.8,369.3c0.2,0.5,0.1,0.9-0.5,0.9c-0.2-0.2-0.3-0.4-0.3-0.6c0.1-0.3,0.4-0.5,0.7-0.4
		C29.7,369.2,29.7,369.3,29.8,369.3z"/>
	<path class="st1" d="M83.1,212.3c0.1,0.9-0.2,1.2-1.1,1.1c-0.1-0.5,0.2-1,0.7-1.1C82.8,212.3,82.9,212.3,83.1,212.3z"/>
	<path class="st1" d="M84.2,211.2c0,0.8-0.3,1.3-1.2,1.1c-0.1-0.5,0.2-1,0.7-1.1C84,211.2,84.1,211.2,84.2,211.2z"/>
	<path class="st1" d="M441.2,751.3c-0.5-0.4-0.4-0.8,0.1-1.1C441.9,750.6,441.7,750.9,441.2,751.3z"/>
	<path class="st1" d="M128,184.2c0.5,0.1,0.9,0.5,0.8,1c0,0.1-0.1,0.3-0.2,0.4c-0.5-0.1-0.9-0.5-0.8-1
		C127.9,184.5,127.9,184.4,128,184.2z"/>
	<path class="st1" d="M76.9,872.9c0.3,0.2,0.4,0.7,0.2,1c0,0,0,0.1-0.1,0.1C76.6,873.7,76.5,873.3,76.9,872.9z"/>
	<path class="st1" d="M77.2,874.9c0.5,0.1,0.8,0.6,0.7,1.2c0,0.1-0.1,0.2-0.1,0.3c-0.5-0.1-0.9-0.5-0.8-1
		C77.1,875.1,77.1,875,77.2,874.9z"/>
	<path class="st1" d="M443.4,739c-0.6-0.4-0.4-0.8,0.1-1.1C444,738.3,443.9,738.7,443.4,739z"/>
	<path class="st1" d="M88.9,208c-0.1,0.9-0.5,1.2-1.4,0.7c0-0.5,0.5-0.9,1-0.9C88.6,207.9,88.8,208,88.9,208z"/>
	<path class="st1" d="M65.3,821c0.3,0.2,0.4,0.7,0.2,1c0,0-0.1,0.1-0.1,0.1c-0.3-0.1-0.5-0.5-0.4-0.8C65.1,821.1,65.2,821,65.3,821z
		"/>
	<path class="st1" d="M159.8,9c0,0.5-0.4,0.9-0.9,0.9c-0.2,0-0.3,0-0.5-0.1c0-0.5,0.4-0.9,0.9-0.9C159.5,8.8,159.7,8.9,159.8,9z"/>
	<path class="st1" d="M84.4,901.7c0.5,0.1,0.8,0.7,0.7,1.2c0,0.1,0,0.1-0.1,0.2c-0.5-0.1-0.8-0.5-0.8-1
		C84.3,902,84.3,901.8,84.4,901.7z"/>
	<path class="st1" d="M85.4,905.2c0.7,0.2,0.5,0.7,0.3,1.2C85.1,906.2,84.7,905.9,85.4,905.2z"/>
	<path class="st1" d="M131.9,171.9c0.1,0.5-0.4,1-0.9,1.1c0,0,0,0-0.1,0C130.7,172.2,131,171.8,131.9,171.9z"/>
	<path class="st1" d="M157.1,10.2c-0.3,0.6-0.6,1.1-1.4,0.8C155.8,10.2,156.2,9.7,157.1,10.2z"/>
	<path class="st1" d="M442.2,745.1c-0.5-0.5-0.3-0.8,0.1-1.1C442.9,744.5,442.8,744.8,442.2,745.1z"/>
	<path class="st1" d="M146.1,19.3c0.2,0.4,0,0.6-0.5,0.6L146.1,19.3z"/>
	<path class="st1" d="M386.8,949c-0.9-0.2-1.8-1.1-2.6,0c-0.8,1.1,0.6,1.2,1,1.8c0.2,0.5,0.2,1.1-0.2,1.6
		c-2.7,6.1-6.1,11.8-9.3,17.7c-0.2,0.4-0.8,1.2-1.2,0.5c-1.4-2.1-2.1-0.1-3.2,0.3c-5.1,2-9.3,5.8-15.1,6.4c-4.4,0.5-8.8,1.5-13,2.8
		c-5.6,1.6-11.3,1.8-16.9,2.6c-1.4,0.1-2.8,0.5-3.9,1.3c-2.6,2.2-5.9,2.1-8.9,2.5c-3.5,0.5-6.2,1.2-7.2,5.2c-0.8,3.4-4,3-6.4,3.2
		c-3.6,0.2-7.2,0.2-10.9,0c-0.5,0-1.7,0.3-1.1-0.8c1.2-2.2-0.5-1.8-1.6-1.8c-1.5-0.1-3,0.1-4.5,0c-2.7-0.2-5.4-0.6-7.7-2.7
		s-5.4-2.8-8.1-4.2c-0.9-0.5-0.9,0.7-2.1,0.7c-2.6-29.3-1-58.7-1.2-88.1c-0.2-29.3-0.2-58.9-0.2-88.4c-0.1-35.2-0.1-70.5-0.2-105.7
		c-0.1-45.6-0.1-91.1-0.2-136.6c0-23.3-0.1-46.6-0.2-70c0-11.4,0.3-22.9,0.1-34.3c-0.4-23,0.4-45.9,0-68.9
		c-0.1-4.6-0.4-9.3-0.1-13.9c0-0.2,0-0.4,0-0.5c-2.4-4.1,0.7-4.2,3.4-4.9c8.2-2.1,16.5-3.5,25-4c7-0.3,14-1.7,20.5-4.3
		c0.7-0.3,1.8-0.3,1.6-1.5c-0.2-0.9-1-1.2-1.8-1.4c-5.7-1.5-11.5-2.7-17.1-4.5c-5.9-1.7-11.7-4-17.2-6.8c-4.5-2.3-8.8-4.7-13-7.4
		c-1.3-0.7-2.1-2.2-1.9-3.7c-0.1-18.2-0.3-36.4-0.4-54.7c-0.1-17.9-0.2-35.9-0.5-53.8c-0.2-1.9,0.8-3.6,2.4-4.6
		c5.8-3.9,12.3-6.2,18.9-7.8c12.9-2.9,26-5.2,39.2-6.9c9.4-1.2,18.8-2,28.2-3.1c7.9-0.9,15.9-1,23.9-1.4c6.5-0.1,13,0.7,19.2,2.4
		c4.5,1,9,2.4,13.3,4.1c6.9,2.9,11.1,8.1,14.1,14.6c3.8,8.1,5.7,16.8,7.1,25.6c1.6,9.8,3.3,19.6,5,29.4c1.8,10.7,3.4,21.4,5.6,32
		c1.8,8.5,4,17,6.3,25.4c1,3.7,2.7,7.3,2.8,11.3c0,1.5,0.1,2.7-2.2,3.1c-2.2,0.4-4.2,1.8-6.3,2.7c-0.8,0.3-1.3,1.2-1,2.1
		c0.1,0.8,0.8,1.4,1.6,1.3c0,0,0,0,0,0c2.6-0.3,5.1,0.5,7.7,0.3c7.7-0.4,17.4,3.7,18.4,14.3c1,11.2,0.5,22.3,0.7,33.4
		c0.2,9.4,0.2,18.8,0.3,28.2c0,1.8,0.1,3.6-2.4,3.9c-1.4,0.2-1.4,1.5-1.4,2.6c0.1,10.8,0.5,21.6,0.3,32.3
		c-0.2,10.6-0.4,21.1-1.4,31.7c-0.3,3.4,0.1,6.9-0.3,10.3c-1.2,10.4-1.3,20.9-2,31.3c-0.5,6.9-1.2,13.7-1.6,20.7
		c-0.5,6.9-0.8,13.8-1.3,20.7c-0.7,9.2-1.6,18.4-2.5,27.7c-1,9.6-1.8,19.1-3.2,28.6c-0.8,5.5-1.2,11.1-2.3,16.5
		c-1,5.1-1,10.3-2.2,15.4c-1.6,7.2-2,14.6-3.2,21.9c-1,6-2.2,11.9-3.1,18c-0.8,5.5-1.6,11.2-2.9,16.7c-0.7,3.2-0.6,6.7-1.4,10
		c-1.4,5.6-1.4,11.4-3.3,17c-1.3,3.9-1.3,8.6-1.7,13c-0.3,3.5-0.4,7.7-2.4,10.1c-3.9,4.5-2.1,10.1-4.2,14.6
		c-2.4,5.1-1.6,11.1-4.8,15.9c-0.4,0.6-0.6,1.4-0.6,2.1c0,6.5-2.2,12.6-4,18.6c-1.7,5.6-3.4,11.3-5.1,16.8c-2,7-4.2,13.9-6.2,21
		c-1.9,7-3,14.1-4.7,21.1c-1.2,4.8-2,9.9-3,14.8c-0.6,2.9-0.9,6-2.3,8.8c-0.2,0.3-0.3,0.7-0.3,1c1.2,6.4-3.2,11.3-4.3,17.1
		c-0.4,1.9-2.2,3.6-2.1,6C386.1,946.5,387.3,947.5,386.8,949z"/>
	<path class="st2" d="M31.8,445c-0.3-1.9,1.3-3.3,1.3-5.4c-0.2-18.5,0-37-0.1-55.5c0-3.6,1.4-7.1,0.4-10.7c0-0.2,0.1-0.3,0.2-0.4
		c0.3,0,0.5-0.1,0.8-0.2c3-3.4,6.4-5.7,11.3-4.9c0.5,0.1,0.9,0.1,1.4,0c11.9-1.2,23.8-1.6,35.7-2.2c4.2-0.2,8.3,0.6,12.5,0.6
		c10.1-0.1,20.3-0.3,30.4,0.5c1.7,0.1,3.4,0.8,5.2,0.6c5.5-0.5,11,0,16.5,0.3c13.6,0.9,27.2,1.4,40.8,1.3c1.6,0,3.1-1,4.7-0.4
		c4.5,1.8,9.2,2.5,14,3.1c3.8,0.4,7.6,1.2,11.5,0.3l1,0.1c0.5,1.2,1.7,1,2.6,1.2c4.8,1.2,9.6,2.6,14.5,3.4c3.2,0.5,2.3,4.6,5.2,5
		c0.1,0,0,0.5,0,0.8c0.9,3,0,6.1,0,9.1c0,17.1,0,34.2-0.1,51.3c-0.1,12.7,0.5,25.4-0.4,38.1c-0.2,3.6,0.4,7.3,0.4,11.1
		c0,6.9-0.3,13.8-0.5,20.7c-0.2,6.6,0.2,13.1,0.4,19.7c0.4,14.4,0.1,28.8,0,43.3c-0.2,23.3,0.2,46.5-0.4,69.8
		c-0.3,13.2,0.2,26.5,0.3,39.8c0.2,27.9,0.8,55.7-0.3,83.6c-0.5,13.8-0.4,27.6,0.1,41.4c0.3,7.6,0.2,15.2,0.3,22.8
		c-0.1,2.3-0.4,4.5-0.7,6.8c-0.4-0.2-0.7-0.6-0.8-1.1c-0.4-1.3,0.9-3.6-0.9-3.8c-1.9-0.3-2.1,2.2-2.7,3.7l-0.1,0.3
		c-1.7,4.6-0.3,9.7-2.7,14.1c-0.3,0.9-0.1,1.9,0.7,2.6c2.6,1.5,2.5,4.4,3.7,6.6c0.6,0.9-0.1,3,1.6,2.8c1.2-0.1,0.1-2,0.8-2.9
		c0.2-0.1,0.4-0.2,0.6-0.2c0.3,4.1,0.7,8.2,0.8,12.3c0.1,11.3,0,22.7,0.1,34c0,1-0.5,2.3,0.7,3.1c0.3,20,0.2,40,0,60
		c-1.5,0.8-2.4,2.5-2,4.2c0.4,2.6-1.1,4.9-0.8,7.5c0.2,1.2-1.1,2.8-1.7,4.1c-2.4,4.5-6.1,7.5-11.7,7.7c-10.8,0.4-21.6,0.1-32.4-0.9
		c-9.2-0.9-18.4-1.9-27.6-3.1c-6-0.8-12-2.2-17.9-3.4c-1.1-0.2-1.8-0.7-0.4-1.7c1.1-0.7,0.3-1.4-0.1-2.1c-1.8-3.6-5.5-5.1-8.4-7.5
		c-1.9-1.6-3.7-3.2-4.1-5.7c-0.8-4.6-4.8-6-7.8-8.5c-3.3-2.7-6.9-5.4-8.1-9.9c-1.2-4.3-5-7-6.3-11.3c-1.6-5.2-4.2-10-6.4-14.9
		c-1.5-3.2-2.6-6.6-4.4-9.7c-1.7-2.9-2.2-6.4-3.4-9.6c-2.7-7.6-4.3-15.6-7.8-23c-0.6-1.2-0.4-2.4-0.7-3.5c-1.3-4.3-3.1-8.5-3.8-12.9
		c-1.4-8.5-5.5-16.3-6.1-25c-0.2-2.9-2.1-5.5-2.7-8.4c-1-5.4-2.4-10.8-3.5-16.2c-0.7-3.6-1-7.4-3-10.7c-0.5-0.8-0.4-2.2-0.2-3.3
		c0.5-4.2-0.9-8.1-2.6-11.8c-0.8-1.8-1.2-3.7-1.1-5.6c0.1-5.7-2.2-10.8-3.1-16.2c-1.2-7.3-2.1-14.6-3.4-21.9
		c-1.6-9.1-2.6-18.2-4-27.3c-1.6-11-3.1-22-5.4-32.8c-0.4-1.7,0-3.5-0.4-5.3c-2-7.8-2-15.8-3-23.8c-1.1-9.1-1.8-18.2-2.6-27.3
		c-0.9-10-1.7-19.9-2.7-29.9c-1-10-1.6-20-2.2-30.1c-0.4-7.7-0.5-15.4-1.2-23c-1-11.1-0.6-22.3-1.8-33.5c-0.4-3.5-0.5-7.1-0.4-10.6
		c0.4-8.5-0.6-17-0.5-25.6c0.1-8.9-0.3-17.8,0.9-26.6c0.2-1.6-0.2-3.2-0.1-4.9s-1.6-2-3.1-1.6l-1-0.7c-0.3-0.8-0.8-0.7-1.3-0.3
		C32,445.2,31.9,445.1,31.8,445z M239.7,771.2h-0.9c0.2,7-1.8,14,0.9,21V771.2L239.7,771.2z"/>
	<path class="st2" d="M159,211.7l3.3,0.2c2.1,1.7,4.4,1.7,6.8,0.9l2.1,0.3c1.8,1.1,3.7,1.7,5.7,0.8l2.1,0.3c0.3,0.9,1.2,0.7,1.8,0.9
		c7.7,1.2,15.3,2.4,22.9,4.3c3.2,0.8,6.4,1.8,9.6,2.3c7,0.9,13.6,3.6,19.1,7.9c1.6,1.4,3.3,2.6,5.1,3.8c2.4,1.5,4.5,3.1,4.1,6.5
		c-0.1,0.8-0.3,1.7,0.7,2.2c0.3,17,0.2,34,0,51.1c-0.5,0-0.9,0.4-0.9,0.9c0,0.1,0,0.2,0,0.2c0.5,4.7,0.1,9.4,0.1,14.1
		c0,8.9,0,17.7,0,26.6c0,1.2,0.1,2.5-1.1,3.2c-6,3.7-11.1,8.3-16.9,12.2c-8.1,5.5-17.3,7.8-26.7,10.3c0.2-0.9,1.4-1,0.9-1.8
		c-0.4-0.8-1.1-0.4-1.7-0.2c-1.3,0.4-2.6,1-4,0.8c-4.6-0.6-9.2-0.6-13.8-0.1c-8.1,0.6-16.2,1.5-24.3,1.9c-5.3,0.3-10.7,0.3-16,0.4
		c-11.8,0.3-23.6,0.5-35.3,0.4c-11.8-0.1-23.5,0-35.1-2.5c-4.1-0.9-8.2-1.7-11.5-4.5c-1.8-1.6-4.3-2.9-2.4-6.5
		c1.5-2.9,2.1-6.3,2.6-9.6c0.4-3.3,1.3-6.5,1.6-9.7c0.3-3.3,2.4-6.5,1.5-10l0.3-1c0.9-0.4,0.6-1,0.4-1.7l0.2-0.6
		c0.4-0.1,0.6-0.5,0.6-0.8c1.4-9.6,3.9-19,4.8-28.7c0.5-5.9,2.6-11.6,3-17.6c0.3-4.6,1-9.2,1.9-13.6c1.6-8,3.5-16,7.3-23.2
		c2.1-4,3.1-8.5,8.4-11c4.9-2.4,10-4.4,15.2-5.7c8.7-2.1,17.7-3.1,26.6-3c5.4,0,10.6-1.7,16-1.2c0.3-0.1,0.6-0.4,0.8-0.6l8.8,0.5
		c0.3,0.8,0.7,1,1.2,0.2l2.2,0.1C157.3,212.7,158.1,212.5,159,211.7z"/>
	<path class="st2" d="M144,169.8c0-0.1,0-0.2-0.1-0.3c-3.8-1-3.7-3.9-3.2-6.8c1.2-7.8,1.3-15.7,2-23.5c0.1-1.3-0.3-1.9-1.5-2.2
		c-2.4-0.5-3-2.1-2.7-4.3c0.9-9.8,0.4-19.7,0.7-29.5c0.2-7.1-0.3-14.1-0.4-21.2c0-3.4,1.2-6.9,1.9-10.3c0.2-0.4,0.4-0.8,0.5-1.2
		c-1.9-10.7,0.5-21.1,2.1-31.6c0.6-4.4,1.5-8.6,3.5-12.7c2.6-5,6.7-7.8,11.6-9.6c3.7-1.4,7.3-3,11.5-2.9c1,0,2.3-0.1,2.8-1.3
		c6.2-0.4,12.5-0.5,18.8-0.1c2.7,1.7,5.5,1.7,8.5,0.8l3.2,0.3c1.5,1.5,3.2,1.8,5.1,0.7l2.2,0.3c1.2,1.1,2.4,1.8,4,0.8l3.4,0.6
		c0.2,1.2,0.8,1.3,1.6,0.4l2.8,0.8c0.2,1.3,0.8,1.4,1.6,0.4l6.7,1.8c0.5,0.8,1.4,1.3,2.4,1c0.7,0.1,1.4,0.5,1.9,1.1
		c0.5,1.2,1.7,1.9,3,1.8c0.9,0.3,1.7,0.9,2.2,1.6c-0.2,1.3,0.4,1.8,1.6,1.8l0,0c0.1,1.5,0.3,2.9,0.4,4.4c0.4,5.3-0.3,10.5-0.4,15.8
		c-0.2,4.1-0.1,8.1,0.4,12.2c0.6,4.3-1.1,8.4-1.2,12.7c-0.1,3.5,0.1,6.9,2.6,10.4c0-4.1,0-7.5,0-11c0-1,0-2.1,1.5-2
		c0.2,0,0.3,0.2,0.3,0.3c-0.4,1.1-0.4,2.4,0,3.5l0.1,2.9c-0.4,0.3-0.5,0.8-0.2,1.2c0,0.1,0.1,0.1,0.1,0.1l-0.1,2.9
		c-0.2,0.5-0.2,1.1,0.1,1.5l-0.3,7.6c-1.6,1.1,0.3,3.7-1.9,4.5c-0.6-1.9,0.4-3.7,0.3-5.5c0-1.3,0.7-3.7-0.7-3.7
		c-2,0-1.1,2.3-1.2,3.6c-0.3,4.6,0.8,9,1.5,13.6c0.7,5-0.5,10.1-0.1,15.2c0.6,7.9-0.5,15.9,0.1,23.9c0.5,7.5,0.1,15.1,0.1,22.7
		c0.1,1.1-0.7,2.2-1.8,2.4c-1.6,0.5-3.3,0.4-4.7,1.4l-2.1,0.2c-3.6-0.2-7.1,0-10.7,0.5c-7.6,0.9-15.3,1.3-22.9,1.6
		c-4.9,0.2-9.8,0.3-14.6,0.3c-8.3,0.1-16.6,0.4-25-0.2c-1.4-0.1-3-0.5-4.3,0.5L144,169.8z M238.2,72.7c-0.8,1.6-0.7,3.4,0.1,5
		C238.9,75.5,238.9,74.1,238.2,72.7z M241.3,82l-0.1,0.2h0.2L241.3,82z"/>
	<path class="st1" d="M271.6,205.4c2.6-0.5,5.4-0.3,8-1.2c-0.4-0.9-1.2-0.5-1.8-0.5c-6.8-0.1-13.6-0.2-20.3-0.3
		c-0.8,0-2,0.4-2.1-0.8c-0.1-1.3,1.1-1.2,2-1.3c3-0.2,6.1-0.5,8.9-1.7c0.6-0.2,1.3-0.2,1.5-1.3c-4.1-1-8.3-0.4-12.9-1.1
		c1.3-1.4,3.3-1.9,5.1-1.4c1.3,0.3,2.8,0.8,3.4-1.3c0.2-1,1.3-0.6,1.9-0.7c9.4-0.7,18.7-0.7,28.1-1c7.9-0.2,15.9,0.3,23.9-1
		c-2.4-0.2-4.8-0.5-7.2-0.6c-17.2-0.5-34.4-0.9-51.5-1.9c-2.4-0.1-3.6-0.4-3.2-3.5c0.4-3.1,1.3-6.2-0.5-9.2c-0.2-0.3-0.2-0.7,0.1-1
		c0.2-0.1,0.4-0.2,0.6-0.2c2,0,3.9-0.8,6-0.6c2.8,0.3,5.6,0,8.3-0.7c3.6-1.1,7.2-0.9,10.7-1.2c12.9-0.9,25.8-1.3,38.7-1.5
		c11.4-0.2,22.9-0.7,34.2,0.7c2.7,0.3,5.5,0.7,8,2.2c3.4,2.1,3.9,5.5,1.1,8.2c-0.9,0.9-1.6,1.8-0.9,2.9c1.7,2.7-0.5,3.3-2.2,3.9
		c-3.3,1.1-6.7,1.4-10.1,1.8c-5.4,0.5-10.8,0.8-16.1,0.7c-1-0.2-2,0.1-2.7,0.7c5.6,0.5,10.6,0.2,15.6,1v0.7h-27.9
		c0.8,1.5,1.9,1.1,2.9,1.1c10.1,0.3,20.2,0.5,30.4,0.6c3,0,5.5,1.3,8.2,2.3c1.1,0.4,1.1,1.1,0.2,1.8c-0.9,0.7-1.9,1.1-3,1.3
		c-6.3,1.2-12.8,0.8-19.1,1.3c-12.5,0.9-24.9,2.9-37.4,3.4c-5,0.2-10.1,0.2-15,0.6C280.7,207.1,276.3,205.3,271.6,205.4z
		 M321.4,192.2c-0.8-0.7-2.1-0.7-2.9,0C319.4,192.9,320.6,192.9,321.4,192.2L321.4,192.2z M323.2,192.1c1,0.8,1.7,0.9,2.6,0.2
		C324.9,191.5,324.2,191.6,323.2,192.1L323.2,192.1z"/>
	<path class="st2" d="M130.6,181.6V180c1.5-1,2.6-2.3,2.3-4.3c0.6-0.7,1.4-1.1,2.3-1.3c0.8,0.8,1.7,0.4,2.6,0.2
		c7.7-1.5,15.5-2.4,23.3-2.5c15.1-0.4,30.1,1.3,45.2,1.2c0.6,0,1.3,0.3,1.9,0.3c4.4,0.4,8.8,0.4,13.2-0.1l1,0.1
		c2.3,1.3,4.6,0.8,7,0.5l3.7,0.3c1.5,1.6,3.1,2.2,5.1,0.9l2.2,0.2c1,0.1-1.7,2.9,1.2,1.7c0.2,0.1,0.4,0.3,0.5,0.5
		c0,1.9,0.3,3.7,1,5.5c-1.6,0.4-3.2,0.8-4.8,1.1c-0.3,0-0.6,0-0.8,0c-9.9,0-19.8,0.9-29.8,0.6c-0.6,0-1.4-0.3-2,0.6
		c0.6,0,1.1,0.1,1.5,0.1c10.8-0.2,21.5,0.3,32.3,0.6c1.6,0,3.2,0.1,4.3,1.6c-1.5,0.9-3.3,0.9-5,1.1c-0.7-1.1-1.2-0.8-1.8,0.1
		l-6.1,0.4c-0.5-0.8-0.9-0.8-1.2,0.1l-6.1,0.5c-0.6-1-1.2-0.9-1.7,0.1l-4.9,0.3c-0.2-0.5-0.8-0.7-1.2-0.5c-0.2,0.1-0.4,0.3-0.5,0.6
		l-6.1,0.4c-2.7-0.8-5.3-1.2-7.9,0.4l-5,0.2c-0.4-0.6-0.8-0.5-1.2,0.1l-10.1,0.5c-1.6-1.1-3.4-0.6-5.1-0.5
		c-12.3,0.5-24.6,0.9-36.9-0.1c-1-0.1-2.2-0.6-3.1,0.5c-1.4-0.3-2.9-0.4-4.3-0.9c-3.3-1-3.9-2-3.4-5.5c0.3-0.3,0.4-0.7,0.1-1
		c-0.3-0.3-0.7-0.4-1-0.1l-0.1-0.1C131.7,183.5,132.3,182.3,130.6,181.6z"/>
	<path class="st1" d="M59,319.3c0.9,3.5-1.2,6.6-1.5,10s-1.1,6.5-1.6,9.7c-0.4,3.3-1.1,6.7-2.6,9.6c-1.8,3.5,0.5,4.9,2.4,6.5
		c3.3,2.7,7.4,3.6,11.5,4.5c11.6,2.5,23.4,2.3,35.1,2.5c11.7,0.1,23.6-0.1,35.3-0.4c5.3-0.1,10.7-0.1,16-0.4
		c8.1-0.4,16.2-1.3,24.3-1.9c4.6-0.5,9.2-0.4,13.8,0.1c1.5,0.2,2.7-0.4,4-0.8c0.6-0.2,1.3-0.5,1.7,0.2c0.4,0.8-0.7,0.9-0.9,1.8
		c9.4-2.5,18.6-4.9,26.7-10.3c5.8-3.9,11-8.6,16.9-12.2c1.2-0.7,1.1-2,1.1-3.2c0-8.9,0.1-17.7,0-26.6c0-4.7,0.4-9.4-0.1-14.1
		c-0.2-0.5,0.1-1,0.6-1.1c0.1,0,0.2,0,0.2,0c0.6,0.8,0.3,1.8,0.3,2.7c0,13.3,0,26.6,0,39.8c0,1.2,0,2.5-1.2,3.2
		c-4.9,2.8-9,6.8-13.5,10.1c-7.3,5.4-15.5,8.6-24,11.1c-4.8,1.4-9.6,2.7-14.4,4c-0.8,0.2-1.8,0.4-1.8,1.4c0,1,1.1,0.9,1.7,1.2
		c5.5,2.2,11.3,3.5,17.3,4c3.9,0.3,7.8,0.3,11.5,1.5c-3.9,0.9-7.6,0.1-11.5-0.3c-4.8-0.5-9.5-1.2-14-3.1c-1.5-0.6-3.1,0.4-4.7,0.4
		c-13.6,0.1-27.2-0.4-40.8-1.3c-5.5-0.4-11-0.9-16.5-0.3c-1.8,0.2-3.5-0.5-5.2-0.6c-10.1-0.8-20.3-0.5-30.4-0.5
		c-4.2,0-8.3-0.8-12.5-0.6c-11.9,0.6-23.8,1-35.7,2.2c-0.5,0.1-0.9,0.1-1.4,0c-4.8-0.8-8.3,1.5-11.3,4.9c-0.2,0.1-0.5,0.2-0.8,0.2
		c-0.1-2.6,1.9-3.9,3.5-5.5c1-1,2.1-1.8,3.4-2.4c4.4-1.8,5.4-5.7,6.7-9.8c1.6-5,3.7-9.8,5.6-14.8c1.4-4,2.5-8.1,3.4-12.2
		c0.7-2.8,1.3-5.6,1.7-8.5C58.2,319.6,58.6,319.4,59,319.3z M188.8,368.3l-0.3-0.1c0,0.1,0,0.1,0.1,0.2
		C188.6,368.4,188.7,368.3,188.8,368.3L188.8,368.3z"/>
	<path class="st1" d="M242.3,911.5c-1.2-0.8-0.7-2-0.7-3.1c0-11.3,0-22.7-0.1-34c0-4.1-0.5-8.2-0.8-12.3c-0.2,0-0.4,0.1-0.6,0.2
		c-0.7,0.9,0.4,2.7-0.8,2.9c-1.6,0.2-1-1.8-1.6-2.8c-1.3-2.2-1.1-5.1-3.7-6.6c-0.7-0.6-1-1.6-0.7-2.6c2.5-4.4,1.1-9.6,2.7-14.1
		l0.1-0.3c0.6-1.5,0.8-3.9,2.7-3.7c1.8,0.2,0.6,2.5,0.9,3.8c0.1,0.5,0.4,0.9,0.8,1.1c0.4-2.2,0.6-4.5,0.7-6.8c0-7.6,0-15.2-0.3-22.8
		c-0.5-13.8-0.6-27.6-0.1-41.4c1.1-27.9,0.5-55.7,0.3-83.6c-0.1-13.2-0.6-26.5-0.3-39.8c0.6-23.3,0.2-46.5,0.4-69.8
		c0.1-14.4,0.4-28.8,0-43.3c-0.2-6.6-0.6-13.2-0.4-19.7c0.2-6.9,0.6-13.8,0.5-20.7c0-3.7-0.7-7.5-0.4-11.1
		c0.8-12.7,0.3-25.4,0.4-38.1c0.1-17.1,0.1-34.2,0.1-51.3c0-3,0.9-6.1,0-9.1c-0.1-0.3,0-0.8,0-0.8c-2.8-0.5-2-4.5-5.2-5
		c-4.9-0.8-9.7-2.2-14.5-3.4c-0.9-0.2-2.1-0.1-2.6-1.2c1.8-0.8,3.2,0.4,4.8,0.8c5,1.1,9.9,2.6,14.9,3.5c3.3,0.6,3.8,2.8,3.8,5.3
		c0.1,11.1,0.1,22.3,0.1,33.4c0,47.4,0,94.8,0,142.2c0,35.8-0.2,71.6-0.2,107.3c0,81,0.1,161.9,0.2,242.9
		C242.7,908.9,243,910.3,242.3,911.5z"/>
	<path class="st2" d="M234.9,201.3l7.7,0.3c0,2-2.2,0.5-2.6,1.7l-12.3,0.3c-9.7-0.6-19.5-0.6-29.1,1.5c6.4,0.5,12.9,0.5,19.3,0.2
		c2-0.1,4.1-1.1,5.9,0.8l-1.1,0.2c-1.4-1.2-2.8-1.5-3.9,0.4c-1,0.4-2.1,0.6-3.2,0.6c-19.5,0.4-38.9-0.3-58.2-3.3
		c-5.6-0.9-11.5-0.8-17.2-1.1c-1.2-0.1-2.4-0.3-3.6-0.6c-1.1-0.1-2-1.2-1.8-2.3c0,0,0,0,0-0.1c-0.1-1.3,0.9-2.3,2.1-2.4
		c4.1-0.7,8.3-1,12.5-0.9l10.6-0.2c0.9,0.7,1.9,0.4,2.9,0.5c12.3,0.1,24.6-0.2,36.9-0.7c3-0.1,5.9,0.6,8.8,0.4
		c2.7-0.2,5.3,0.6,7.9,0.4c-3.6,0.8-7.3,1.1-11,1c-0.5,0-1.2-0.1-1.4,0.6c-0.1,0.3,0,0.7,0.3,0.8c0,0,0.1,0,0.2,0
		c3.1,0.7,6.1,2.2,9.3,2.3c6.4,0.1,12.8,0.1,19.2,0.1C233.5,201.8,234.3,202.1,234.9,201.3z M196,204.7c0.1,0.2,0.2,0.3,0.4,0.2
		c0.2-0.1,0.3-0.2,0.2-0.4c-0.1-0.2-0.2-0.3-0.4-0.2c0,0,0,0,0,0C196.2,204.4,196.1,204.5,196,204.7L196,204.7z"/>
	<path class="st1" d="M234.9,201.3c-0.5,0.8-1.3,0.5-2,0.5c-6.4,0-12.8,0-19.2-0.1c-3.2-0.1-6.2-1.6-9.3-2.3
		c-0.3-0.1-0.6-0.4-0.5-0.7c0-0.1,0-0.1,0-0.2c0.2-0.7,0.9-0.6,1.4-0.6c3.7,0.1,7.4-0.2,11-1c-2.6,0.2-5.2-0.6-7.9-0.4
		c-2.9,0.2-5.9-0.5-8.8-0.4c-12.3,0.5-24.6,0.8-36.9,0.7c-1,0-2.1,0.3-2.9-0.5c-1-0.8-2.3-0.5-3.5-0.6c-5.1-0.5-10.1-2.6-15.2-2.7
		c-0.5,0.1-0.9-0.3-1-0.8c0.9-1.1,2.1-0.6,3.1-0.5c12.3,1,24.6,0.7,36.9,0.1c1.7-0.1,3.5-0.6,5.1,0.5c3.5-0.5,6.9,0.7,10.4,0.6
		c7.2-0.1,14.5,0.1,21.7,0.3c3.9,0.1,7.8,0.4,11.6,0.5c2.1,0.1,5,0.1,6.3,0.9c2.5,1.5,5.3,0.7,7.7,2.2c-5.1,1.4-10.5,0.5-15.1,1.7
		C229.8,199.6,232.7,199.3,234.9,201.3z"/>
	<path class="st1" d="M144.5,210.5c-0.2,0.3-0.5,0.5-0.8,0.6c-5.4-0.5-10.6,1.2-16,1.2c-9-0.1-17.9,0.9-26.6,3
		c-5.3,1.4-10.4,3.3-15.2,5.7c-5.2,2.6-6.3,7-8.4,11c-3.8,7.2-5.7,15.2-7.3,23.2c-1,4.5-1.6,9.1-1.9,13.7c-0.3,6-2.4,11.6-3,17.6
		c-0.9,9.7-3.4,19.1-4.8,28.7c0,0.4-0.2,0.7-0.6,0.8c-1.8-1.4-0.6-3.5-0.3-4.7c1.1-4.4,1.2-8.9,2-13.2c0.4-2.3,1.3-4.5,1.3-6.8
		c0.1-4.3,1-8.6,1.6-12.8c0.7-5.3,1.7-10.6,2.6-16c0.6-3.9,0.9-8,1.7-11.8c0.8-3.9,2-8,3.2-12c1.4-4.8,4-9,6.2-13.5
		c2.4-4.8,6.7-7.6,11.1-9.7c6.2-3,12.8-5,19.6-5.7c6.6-0.7,13.3-0.9,20-0.5c4.1,0.2,8.2,0.2,12.2,0.4
		C142.3,209.8,143.6,209.5,144.5,210.5z"/>
	<path class="st1" d="M221.5,173.6c-4.4,0.5-8.8,0.6-13.2,0.1c-0.6,0-1.3-0.3-1.9-0.3c-15.1,0.1-30.1-1.7-45.2-1.2
		c-7.8,0.2-15.6,1-23.3,2.6c-0.9,0.2-1.8,0.6-2.6-0.2c3.9-2.4,8.4-2.2,12.7-3c3-0.5,6.1-0.2,9-1.4c1.3-1,2.9-0.6,4.3-0.5
		c8.3,0.6,16.6,0.2,25,0.2c4.9,0,9.8-0.1,14.6-0.3c7.7-0.4,15.3-0.7,22.9-1.6c3.5-0.5,7.1-0.6,10.7-0.5l-1.8,1.2
		c0.5,1.2,1.6,0.6,2.4,0.7c2.7,0.1,5.4-0.4,8,0.3c0.6,0.1,1.5,0.1,1.4,1.1c-0.1,0.8-0.9,0.9-1.5,0.9c-3.7,0.1-7.4,0.3-11.1,0.3
		c-6.6,0.1-13.2,0.1-19.8,0.1c-0.7,0-1.5-0.3-2.1,0.6C213.8,173.4,217.7,172.5,221.5,173.6z"/>
	<path class="st1" d="M236.6,167.1c1.4-0.9,3.1-0.9,4.7-1.4c1.1-0.2,1.9-1.2,1.8-2.4c-0.1-7.6,0.4-15.2-0.1-22.7
		c-0.6-8,0.5-16-0.1-23.9c-0.4-5.1,0.9-10.2,0.1-15.2c-0.7-4.5-1.8-9-1.5-13.6c0.1-1.3-0.8-3.7,1.2-3.6c1.3,0,0.6,2.4,0.7,3.7
		c0.1,1.8-0.9,3.6-0.3,5.5c2.2-0.9,0.3-3.4,1.9-4.5c-0.2,2.5,1.3,5.2-1.2,7.3c-0.3,0.4-0.4,0.9-0.2,1.3c1.3,2.9,0.2,5.8,0.6,8.7
		c0.2,1-1,2.8,1.3,3c0.1,0.2,0.1,0.4,0.1,0.6c-2.5,2.5-1.1,5.7-1.2,8.5c-0.3,4.4-0.6,9,0.2,13.3c1.7,9.6-0.2,19.2,0.5,28.8
		C245.1,165.7,242.2,167.7,236.6,167.1z"/>
	<path class="st1" d="M244.9,69c-1.5-0.1-1.5,1-1.5,2c0,3.4,0,6.8,0,11c-2.5-3.6-2.7-7-2.6-10.4c0.1-4.2,1.8-8.3,1.2-12.7
		c-0.5-4-0.6-8.1-0.5-12.1c0.1-5.3,0.8-10.5,0.4-15.8c-0.1-1.5-0.2-2.9-0.4-4.4c1.9,0.9,1.8,2.7,1.9,4.5c0.1,10.3,0.1,20.7,0.4,31
		C244,64.4,243.6,66.8,244.9,69z"/>
	<path class="st1" d="M243.8,188.1c-1.1-1.4-2.6-1.5-4.3-1.6c-10.8-0.3-21.5-0.8-32.3-0.6c-0.4,0-0.9-0.1-1.5-0.1
		c0.6-1,1.4-0.6,2-0.6c9.9,0.3,19.8-0.6,29.8-0.6c0.3,0,0.6,0,0.8,0c1.6-0.4,3.2-0.7,4.8-1.1c-0.7-1.7-1-3.6-1-5.5
		c-0.1-0.2-0.3-0.4-0.5-0.5c-2.9,1.1-0.2-1.6-1.2-1.7c2.7-0.4,4.6,0.3,4.7,3.5c0,0.9,0.9,1.4,1.1,2.2c0.2,0.8,0.5,1.8-0.1,2.4
		c-1,1-1.8,1.9-1.1,3.5C245.1,187.6,244.4,188.1,243.8,188.1z"/>
	<path class="st1" d="M242.3,242c-1-0.5-0.8-1.4-0.7-2.2c0.5-3.3-1.6-4.9-4.1-6.5c-1.8-1.2-3.5-2.4-5.1-3.8
		c-5.5-4.3-12.1-7.1-19.1-7.9c-3.2-0.5-6.4-1.5-9.6-2.3c-7.6-1.8-15.2-3-22.9-4.3c-0.7-0.1-1.5,0.1-1.8-0.9c6-0.1,11.7,1.5,17.5,2.5
		c7.9,1.4,15.8,3.3,23.6,5.3c5.4,1.4,10.1,4.3,14.4,7.6c1.9,1.4,3.8,3,5.7,4.3C243.4,236.3,242.8,239.1,242.3,242z"/>
	<path class="st1" d="M223.7,206.1c-1.7-1.8-3.9-0.9-5.9-0.8c-6.4,0.3-12.9,0.2-19.3-0.2c9.6-2.1,19.3-2.1,29.1-1.5
		c0,1.9,1.5,1.3,2.4,1.3c2.7,0.1,5.4,0,8,0.8C233.2,206.2,228.5,206.8,223.7,206.1z"/>
	<path class="st1" d="M249.7,83.5c0.3,3.2,0.1,6.4-0.5,9.5c-0.1,0.6,0.1,1.8-0.9,1.7c-1.1,0-1-1.2-1-1.9c0-6.8,0-13.5,0.1-20.3
		c0-1,0-2,0-3.1c0-0.7,0-1.6,1-1.6c0.8,0,1.5,0.6,1.5,1.4c0.1,1.7,0,3.3-0.3,5c-0.4,0-1-1-1.3,0c-0.1,0.7-0.1,1.4,0,2.2l1.2-0.7
		c0.4,1,0.4,2.1,0.1,3c-0.9-0.2-1.3,0.2-1.3,1.2c0,2.7,0,5.4,0,8.7C249.5,86.6,247.9,84.6,249.7,83.5z"/>
	<path class="st2" d="M253.3,68.5c-0.2,4.2-0.1,8.5,0.2,12.7c0.2,1.7,0.4,4-1.2,5.6c-0.1-5.7-0.2-11.5-0.2-17.2
		C252,68.8,252,67.8,253.3,68.5z"/>
	<path class="st1" d="M467.4,479.9v8.8h-0.6v-8.8H467.4z"/>
	<path class="st2" d="M249.7,83.5c-1.8,1.1-0.2,3.1-1.4,5c0-3.3,0-6,0-8.7c0-1,0.4-1.3,1.3-1.2l0.2,1.6c-0.6,0.6-0.6,1.6,0,2.2
		L249.7,83.5z"/>
	<path class="st1" d="M465.5,510.5c1.7,2.2,1.3,4,0.9,5.8c-0.1,0.6-0.2,1.2-0.9,1.1c-0.5-0.1-0.8-0.6-0.7-1.1c0-0.1,0-0.1,0.1-0.2
		C465.5,514.5,465.3,512.8,465.5,510.5z"/>
	<path class="st1" d="M199.8,13c-2.9,0.9-5.8,0.9-8.5-0.8C194.1,11.8,197,12.1,199.8,13z"/>
	<path class="st1" d="M239.9,203.4c0.4-1.2,2.7,0.2,2.6-1.7c0.8-0.5,1.8-0.4,2.1,0.4s-0.7,1.4-1.5,1.5
		C242,203.7,240.9,204.1,239.9,203.4z"/>
	<path class="st1" d="M201.4,191.6c2.6-1.5,5.2-1.1,7.9-0.4C206.7,191.9,204,192,201.4,191.6z"/>
	<path class="st1" d="M169.1,212.8c-2.4,0.9-4.7,0.9-6.8-0.9C164.6,211.7,166.9,211.6,169.1,212.8z"/>
	<path class="st1" d="M229.5,174.2c-2.4,0.3-4.8,0.8-7-0.5C224.8,173.1,227.3,173.3,229.5,174.2z"/>
	<path class="st1" d="M176.9,213.9c-2.1,0.9-3.9,0.3-5.7-0.8C173.1,212.7,175.1,213,176.9,213.9z"/>
	<path class="st1" d="M467.1,466.4c-0.6-1.3-0.9-2.6-0.2-3.9c0.2-0.1,0.5-0.1,0.7,0C468.1,463.9,467.3,465.1,467.1,466.4z"/>
	<path class="st1" d="M238.2,175.4c-2,1.3-3.7,0.7-5.1-0.9C234.9,174.2,236.7,174.6,238.2,175.4z"/>
	<path class="st1" d="M208.1,14.1c-1.9,1.1-3.6,0.8-5.1-0.7C204.7,13,206.5,13.3,208.1,14.1z"/>
	<path class="st1" d="M132.9,175.8c0.2,2-0.8,3.2-2.3,4.3C130.1,177.9,131.1,176.6,132.9,175.8z"/>
	<path class="st1" d="M218.7,206.8c1.1-1.9,2.5-1.6,3.9-0.4C221.4,207.3,220.1,207,218.7,206.8z"/>
	<path class="st1" d="M214.3,15.2c-1.6,1.1-2.8,0.4-4-0.8C211.6,14.1,213.1,14.4,214.3,15.2z"/>
	<path class="st2" d="M249.5,75.5l-1.2,0.7c-0.1-0.7-0.1-1.4,0-2.2c0.3-0.9,0.8,0.1,1.3,0L249.5,75.5z"/>
	<path class="st1" d="M245.2,72.8c-0.4-1.1-0.4-2.4,0-3.5C245.9,70.4,245.9,71.8,245.2,72.8z"/>
	<path class="st1" d="M237.7,23.2c-1.3,0.1-2.5-0.6-3-1.8C236,21.5,237.1,22.2,237.7,23.2z"/>
	<path class="st1" d="M130.6,181.6c1.7,0.6,1.1,1.9,0.8,3C129.9,184,130.1,182.8,130.6,181.6z"/>
	<path class="st1" d="M232.8,20.3c-0.9,0.3-1.9-0.2-2.4-1C231.6,18.8,232.2,19.5,232.8,20.3z"/>
	<path class="st1" d="M249.7,82.3c-0.6-0.6-0.6-1.6,0-2.2C250.3,80.8,250.3,81.7,249.7,82.3z"/>
	<path class="st1" d="M159,211.7c-0.9,0.8-1.7,1-2.3-0.4C157.6,211,158.4,210.8,159,211.7z"/>
	<path class="st1" d="M241.6,26.6c-1.2,0-1.8-0.5-1.6-1.8C240.9,24.9,241.6,25.7,241.6,26.6z"/>
	<path class="st1" d="M129.1,197.8c0.4,0.1,0.8,0.2,0.7,0.7c-0.1,0.2-0.3,0.4-0.5,0.5c-0.3,0.1-0.6,0-0.7-0.3c0-0.1,0-0.1,0-0.2
		C128.4,198,128.8,198,129.1,197.8z"/>
	<path class="st1" d="M215.3,190.9c0.1-0.5,0.6-0.8,1.1-0.6c0.3,0.1,0.5,0.3,0.6,0.5c-0.4,0.5-1.1,0.6-1.6,0.2
		C215.4,191,215.4,190.9,215.3,190.9z"/>
	<path class="st1" d="M237.1,189.3c0.5-1,1.1-1.2,1.8-0.1C238.4,189.7,237.6,189.8,237.1,189.3z"/>
	<path class="st1" d="M59.7,316.7c0.2,0.6,0.6,1.3-0.4,1.7C58.2,317.5,58.5,317,59.7,316.7z"/>
	<path class="st1" d="M222,190.4c0.5-1,1.1-1.1,1.7-0.1C223.3,190.9,222.5,190.9,222,190.4C222,190.5,222,190.5,222,190.4z"/>
	<path class="st1" d="M31.5,372.2c-0.4-0.5-0.4-1.2,0.1-1.6c0.2-0.1,0.3,0,0.5,0.1C32.4,371.2,32,371.6,31.5,372.2z"/>
	<path class="st1" d="M223.7,17.5c-0.8,1-1.4,0.9-1.6-0.4c0.5-0.3,1.2-0.2,1.5,0.3C223.7,17.3,223.7,17.4,223.7,17.5z"/>
	<path class="st1" d="M219.3,16.3c-0.8,0.9-1.3,0.8-1.6-0.4C218.2,15.5,218.9,15.7,219.3,16.3C219.2,16.2,219.3,16.2,219.3,16.3z"/>
	<path class="st1" d="M245.2,77c-0.3-0.3-0.4-0.8-0.1-1.2c0,0,0.1-0.1,0.1-0.1c0.4,0.2,0.5,0.7,0.3,1C245.5,76.9,245.3,77,245.2,77z
		"/>
	<path class="st1" d="M245.2,81.5c-0.3-0.5-0.4-1-0.1-1.5c0.4,0.2,0.7,0.7,0.5,1.1C245.5,81.3,245.4,81.4,245.2,81.5z"/>
	<path class="st1" d="M464.8,531.6l0.3,0.4l-0.5,0.3c-0.1-0.1-0.1-0.3-0.1-0.4C464.5,531.8,464.7,531.7,464.8,531.6z"/>
	<path class="st1" d="M131.4,184.7c0.3-0.3,0.8-0.2,1,0.1c0.3,0.3,0.2,0.8-0.1,1c-0.5,0.1-0.9-0.3-1-0.7
		C131.4,185,131.4,184.9,131.4,184.7z"/>
	<path class="st1" d="M195.3,191.9c0.3-0.6,0.7-0.6,1.2-0.1C196.1,192.4,195.7,192.5,195.3,191.9z"/>
	<path class="st1" d="M467,476.4c0.1,0.1,0.2,0.2,0.3,0.3c0,0.2-0.1,0.4-0.2,0.4c-0.1,0-0.2,0-0.2,0c-0.1-0.1-0.2-0.3-0.2-0.4
		C466.8,476.6,466.9,476.5,467,476.4z"/>
	<path class="st1" d="M229.8,189.9c0.3-0.9,0.7-0.9,1.2-0.1c-0.2,0.4-0.6,0.5-1,0.3C229.9,190,229.9,189.9,229.8,189.9z"/>
	<path class="st1" d="M154.6,211.2c-0.5,0.8-0.9,0.6-1.2-0.2c0.3-0.3,0.8-0.3,1.1,0C154.5,211,154.5,211.1,154.6,211.2z"/>
	<polygon class="st1" points="261.7,199.7 261.5,199.8 261.7,199.9 	"/>
	<path class="st0" d="M358.3,106c0.6,9.1,1.1,18.1,1.7,27.2c0.1,1,0,1.7-1.1,1.8c-1.5,0.2-1.4-0.8-1.4-1.8
		c-0.3-10.3-1.6-20.6-1.2-30.9c0.1-2.2-1.1-4.1-0.6-6.3c0.1-0.7-0.1-1.6,0.9-1.7c1.1-0.1,1.3,0.8,1.4,1.7c0.2,3.3,0.4,6.7,0.6,10
		L358.3,106z"/>
	<path class="st0" d="M468.4,445.6l-0.1,0.2c0-0.1-0.1-0.1-0.1-0.2c0-0.1,0.1-0.1,0.1-0.2L468.4,445.6z"/>
	<path class="st1" d="M32.2,445.2c0.5-0.4,1.1-0.5,1.3,0.3C32.8,446.7,32.5,445.9,32.2,445.2z"/>
	<path class="st1" d="M134,986.7c0-0.5,0.3-0.5,0.7-0.5c0.1,0,0.1,0.1,0.2,0.2C134.7,986.8,134.3,986.8,134,986.7
		C133.9,986.6,133.9,986.6,134,986.7L134,986.7z"/>
	<path class="st1" d="M239.7,771.2v21c-2.7-7-0.7-14-0.9-21L239.7,771.2z"/>
	<path class="st1" d="M238.2,72.7c0.7,1.4,0.7,2.9,0.1,4.9C237.5,76.1,237.5,74.2,238.2,72.7z"/>
	<polygon class="st1" points="241.3,82 241.4,82.1 241.2,82.1 	"/>
	<path class="st0" d="M321.4,192.2c-0.8,0.7-2.1,0.7-2.9,0C319.4,191.5,320.6,191.5,321.4,192.2z"/>
	<path class="st0" d="M323.2,192.1c1-0.4,1.7-0.5,2.6,0.2C324.9,193,324.2,192.9,323.2,192.1z"/>
	<path class="st2" d="M188.8,368.3c-0.1,0-0.2,0.1-0.3,0.1c0-0.1,0-0.1-0.1-0.2L188.8,368.3z"/>
	<path class="st1" d="M196.1,204.7c-0.1-0.2,0-0.4,0.2-0.5c0.2-0.1,0.4,0,0.5,0.2c0.1,0.2,0,0.4-0.2,0.5c0,0,0,0,0,0
		C196.3,204.8,196.2,204.8,196.1,204.7z"/>
</g>
</svg>
